<svg width="4725" height="1161" viewBox="0 0 4725 1161" fill="none" xmlns="http://www.w3.org/2000/svg">
<rect width="4725" height="1161" fill="white"/>
<rect x="105" y="115" width="688" height="320" rx="45" fill="#EBF1FE"/>
<rect x="105" y="115" width="688" height="320" rx="45" stroke="#2259C9" stroke-width="10"/>
<path d="M306.136 272.807L295.057 273.489C294.867 272.542 294.46 271.689 293.835 270.932C293.21 270.155 292.386 269.54 291.364 269.085C290.36 268.612 289.157 268.375 287.756 268.375C285.881 268.375 284.299 268.773 283.011 269.568C281.723 270.345 281.08 271.386 281.08 272.693C281.08 273.735 281.496 274.616 282.33 275.335C283.163 276.055 284.593 276.633 286.619 277.068L294.517 278.659C298.759 279.53 301.922 280.932 304.006 282.864C306.089 284.795 307.131 287.333 307.131 290.477C307.131 293.337 306.288 295.847 304.602 298.006C302.936 300.165 300.644 301.85 297.727 303.062C294.83 304.256 291.487 304.852 287.699 304.852C281.922 304.852 277.32 303.65 273.892 301.244C270.483 298.82 268.485 295.525 267.898 291.358L279.801 290.733C280.161 292.494 281.032 293.839 282.415 294.767C283.797 295.676 285.568 296.131 287.727 296.131C289.848 296.131 291.553 295.723 292.841 294.909C294.148 294.076 294.811 293.006 294.83 291.699C294.811 290.6 294.347 289.701 293.438 289C292.528 288.28 291.127 287.731 289.233 287.352L281.676 285.847C277.415 284.994 274.242 283.517 272.159 281.415C270.095 279.312 269.062 276.633 269.062 273.375C269.062 270.572 269.82 268.157 271.335 266.131C272.869 264.104 275.019 262.542 277.784 261.443C280.568 260.345 283.826 259.795 287.557 259.795C293.068 259.795 297.405 260.96 300.568 263.29C303.75 265.619 305.606 268.792 306.136 272.807ZM334.638 304.852C330.149 304.852 326.286 303.943 323.047 302.125C319.827 300.288 317.346 297.693 315.604 294.341C313.861 290.97 312.99 286.983 312.99 282.381C312.99 277.892 313.861 273.953 315.604 270.562C317.346 267.172 319.799 264.53 322.962 262.636C326.143 260.742 329.875 259.795 334.155 259.795C337.034 259.795 339.714 260.259 342.195 261.188C344.695 262.097 346.873 263.47 348.729 265.307C350.604 267.144 352.062 269.455 353.104 272.239C354.145 275.004 354.666 278.242 354.666 281.955V285.278H317.82V277.778H343.274C343.274 276.036 342.895 274.492 342.138 273.148C341.38 271.803 340.329 270.752 338.984 269.994C337.659 269.218 336.115 268.83 334.354 268.83C332.517 268.83 330.888 269.256 329.467 270.108C328.066 270.941 326.967 272.068 326.172 273.489C325.376 274.89 324.969 276.453 324.95 278.176V285.307C324.95 287.466 325.348 289.331 326.143 290.903C326.958 292.475 328.104 293.688 329.581 294.54C331.058 295.392 332.81 295.818 334.837 295.818C336.181 295.818 337.412 295.629 338.53 295.25C339.647 294.871 340.604 294.303 341.399 293.545C342.195 292.788 342.801 291.86 343.217 290.761L354.411 291.5C353.842 294.189 352.678 296.538 350.916 298.545C349.174 300.534 346.92 302.087 344.155 303.205C341.409 304.303 338.236 304.852 334.638 304.852ZM382.45 304.852C377.962 304.852 374.098 303.943 370.859 302.125C367.64 300.288 365.159 297.693 363.416 294.341C361.674 290.97 360.803 286.983 360.803 282.381C360.803 277.892 361.674 273.953 363.416 270.562C365.159 267.172 367.611 264.53 370.774 262.636C373.956 260.742 377.687 259.795 381.967 259.795C384.846 259.795 387.526 260.259 390.007 261.188C392.507 262.097 394.685 263.47 396.541 265.307C398.416 267.144 399.875 269.455 400.916 272.239C401.958 275.004 402.479 278.242 402.479 281.955V285.278H365.632V277.778H391.087C391.087 276.036 390.708 274.492 389.95 273.148C389.193 271.803 388.142 270.752 386.797 269.994C385.471 269.218 383.928 268.83 382.166 268.83C380.329 268.83 378.7 269.256 377.28 270.108C375.878 270.941 374.78 272.068 373.984 273.489C373.189 274.89 372.782 276.453 372.763 278.176V285.307C372.763 287.466 373.161 289.331 373.956 290.903C374.77 292.475 375.916 293.688 377.393 294.54C378.871 295.392 380.623 295.818 382.649 295.818C383.994 295.818 385.225 295.629 386.342 295.25C387.46 294.871 388.416 294.303 389.212 293.545C390.007 292.788 390.613 291.86 391.03 290.761L402.223 291.5C401.655 294.189 400.49 296.538 398.729 298.545C396.986 300.534 394.732 302.087 391.967 303.205C389.221 304.303 386.049 304.852 382.45 304.852ZM426.456 304.71C423.142 304.71 420.14 303.858 417.45 302.153C414.78 300.43 412.659 297.902 411.087 294.568C409.534 291.216 408.757 287.106 408.757 282.239C408.757 277.239 409.562 273.081 411.172 269.767C412.782 266.434 414.922 263.943 417.592 262.295C420.282 260.629 423.227 259.795 426.428 259.795C428.871 259.795 430.907 260.212 432.536 261.045C434.183 261.86 435.509 262.883 436.513 264.114C437.536 265.326 438.312 266.519 438.842 267.693H439.212V245.818H451.286V304H439.354V297.011H438.842C438.274 298.223 437.469 299.426 436.428 300.619C435.405 301.794 434.07 302.769 432.422 303.545C430.793 304.322 428.804 304.71 426.456 304.71ZM430.291 295.08C432.242 295.08 433.89 294.549 435.234 293.489C436.598 292.409 437.64 290.903 438.359 288.972C439.098 287.04 439.467 284.777 439.467 282.182C439.467 279.587 439.107 277.333 438.388 275.42C437.668 273.508 436.626 272.03 435.263 270.989C433.899 269.947 432.242 269.426 430.291 269.426C428.303 269.426 426.626 269.966 425.263 271.045C423.899 272.125 422.867 273.621 422.166 275.534C421.465 277.447 421.115 279.663 421.115 282.182C421.115 284.72 421.465 286.964 422.166 288.915C422.886 290.847 423.918 292.362 425.263 293.46C426.626 294.54 428.303 295.08 430.291 295.08ZM497.543 272.807L486.463 273.489C486.274 272.542 485.866 271.689 485.241 270.932C484.616 270.155 483.793 269.54 482.77 269.085C481.766 268.612 480.563 268.375 479.162 268.375C477.287 268.375 475.705 268.773 474.418 269.568C473.13 270.345 472.486 271.386 472.486 272.693C472.486 273.735 472.902 274.616 473.736 275.335C474.569 276.055 475.999 276.633 478.026 277.068L485.923 278.659C490.166 279.53 493.329 280.932 495.412 282.864C497.495 284.795 498.537 287.333 498.537 290.477C498.537 293.337 497.694 295.847 496.009 298.006C494.342 300.165 492.05 301.85 489.134 303.062C486.236 304.256 482.893 304.852 479.105 304.852C473.329 304.852 468.726 303.65 465.298 301.244C461.889 298.82 459.891 295.525 459.304 291.358L471.207 290.733C471.567 292.494 472.438 293.839 473.821 294.767C475.204 295.676 476.974 296.131 479.134 296.131C481.255 296.131 482.959 295.723 484.247 294.909C485.554 294.076 486.217 293.006 486.236 291.699C486.217 290.6 485.753 289.701 484.844 289C483.935 288.28 482.533 287.731 480.639 287.352L473.082 285.847C468.821 284.994 465.649 283.517 463.565 281.415C461.501 279.312 460.469 276.633 460.469 273.375C460.469 270.572 461.226 268.157 462.741 266.131C464.276 264.104 466.425 262.542 469.19 261.443C471.974 260.345 475.232 259.795 478.963 259.795C484.474 259.795 488.812 260.96 491.974 263.29C495.156 265.619 497.012 268.792 497.543 272.807ZM513.232 304.739C511.357 304.739 509.747 304.076 508.402 302.75C507.076 301.405 506.413 299.795 506.413 297.92C506.413 296.064 507.076 294.473 508.402 293.148C509.747 291.822 511.357 291.159 513.232 291.159C515.05 291.159 516.641 291.822 518.004 293.148C519.368 294.473 520.05 296.064 520.05 297.92C520.05 299.17 519.728 300.316 519.084 301.358C518.459 302.381 517.635 303.205 516.612 303.83C515.589 304.436 514.463 304.739 513.232 304.739ZM553.196 260.364V269.455H526.918V260.364H553.196ZM532.884 249.909H544.986V290.591C544.986 291.708 545.156 292.58 545.497 293.205C545.838 293.811 546.312 294.237 546.918 294.483C547.543 294.729 548.262 294.852 549.077 294.852C549.645 294.852 550.213 294.805 550.781 294.71C551.349 294.597 551.785 294.511 552.088 294.455L553.991 303.46C553.385 303.65 552.533 303.867 551.435 304.114C550.336 304.379 549.001 304.54 547.429 304.597C544.512 304.71 541.955 304.322 539.759 303.432C537.58 302.542 535.885 301.159 534.673 299.284C533.461 297.409 532.865 295.042 532.884 292.182V249.909ZM571.193 260.364L579.205 275.619L587.415 260.364H599.83L587.188 282.182L600.17 304H587.812L579.205 288.915L570.739 304H558.239L571.193 282.182L558.693 260.364H571.193ZM630.227 260.364V269.455H603.949V260.364H630.227ZM609.915 249.909H622.017V290.591C622.017 291.708 622.188 292.58 622.528 293.205C622.869 293.811 623.343 294.237 623.949 294.483C624.574 294.729 625.294 294.852 626.108 294.852C626.676 294.852 627.244 294.805 627.812 294.71C628.381 294.597 628.816 294.511 629.119 294.455L631.023 303.46C630.417 303.65 629.564 303.867 628.466 304.114C627.367 304.379 626.032 304.54 624.46 304.597C621.544 304.71 618.987 304.322 616.79 303.432C614.612 302.542 612.917 301.159 611.705 299.284C610.492 297.409 609.896 295.042 609.915 292.182V249.909Z" fill="#2C2C2C"/>
<rect x="954" y="115" width="688" height="320" rx="45" fill="#ECF8EB"/>
<rect x="954" y="115" width="688" height="320" rx="45" stroke="#2259C9" stroke-width="10"/>
<path d="M1040.06 304V245.818H1063.01C1067.42 245.818 1071.18 246.661 1074.29 248.347C1077.4 250.013 1079.76 252.333 1081.39 255.307C1083.04 258.261 1083.86 261.67 1083.86 265.534C1083.86 269.398 1083.03 272.807 1081.36 275.761C1079.7 278.716 1077.28 281.017 1074.12 282.665C1070.98 284.312 1067.17 285.136 1062.7 285.136H1048.07V275.278H1060.71C1063.08 275.278 1065.03 274.871 1066.56 274.057C1068.12 273.223 1069.27 272.078 1070.03 270.619C1070.8 269.142 1071.19 267.447 1071.19 265.534C1071.19 263.602 1070.8 261.917 1070.03 260.477C1069.27 259.019 1068.12 257.892 1066.56 257.097C1065.01 256.282 1063.04 255.875 1060.65 255.875H1052.36V304H1040.06ZM1099.1 320.364C1097.56 320.364 1096.12 320.241 1094.78 319.994C1093.45 319.767 1092.36 319.473 1091.48 319.114L1094.21 310.08C1095.63 310.515 1096.91 310.752 1098.05 310.79C1099.2 310.828 1100.2 310.563 1101.03 309.994C1101.88 309.426 1102.57 308.46 1103.1 307.097L1103.81 305.25L1088.16 260.364H1100.89L1109.92 292.409H1110.38L1119.5 260.364H1132.31L1115.35 308.716C1114.53 311.064 1113.43 313.11 1112.02 314.852C1110.64 316.614 1108.89 317.968 1106.77 318.915C1104.65 319.881 1102.09 320.364 1099.1 320.364ZM1161.71 260.364V269.455H1135.43V260.364H1161.71ZM1141.4 249.909H1153.5V290.591C1153.5 291.708 1153.67 292.58 1154.01 293.205C1154.35 293.811 1154.83 294.237 1155.43 294.483C1156.06 294.729 1156.78 294.852 1157.59 294.852C1158.16 294.852 1158.73 294.805 1159.3 294.71C1159.87 294.597 1160.3 294.511 1160.6 294.455L1162.51 303.46C1161.9 303.65 1161.05 303.867 1159.95 304.114C1158.85 304.379 1157.52 304.54 1155.94 304.597C1153.03 304.71 1150.47 304.322 1148.27 303.432C1146.1 302.542 1144.4 301.159 1143.19 299.284C1141.98 297.409 1141.38 295.042 1141.4 292.182V249.909ZM1182.63 278.773V304H1170.53V245.818H1182.29V268.062H1182.81C1183.79 265.487 1185.38 263.47 1187.58 262.011C1189.78 260.534 1192.53 259.795 1195.85 259.795C1198.88 259.795 1201.52 260.458 1203.77 261.784C1206.04 263.091 1207.81 264.975 1209.06 267.438C1210.32 269.881 1210.95 272.807 1210.93 276.216V304H1198.83V278.375C1198.85 275.686 1198.17 273.593 1196.78 272.097C1195.42 270.6 1193.51 269.852 1191.04 269.852C1189.4 269.852 1187.94 270.203 1186.67 270.903C1185.42 271.604 1184.43 272.627 1183.71 273.972C1183.01 275.297 1182.65 276.898 1182.63 278.773ZM1240.17 304.852C1235.76 304.852 1231.94 303.915 1228.72 302.04C1225.52 300.146 1223.05 297.513 1221.31 294.142C1219.56 290.752 1218.69 286.822 1218.69 282.352C1218.69 277.845 1219.56 273.905 1221.31 270.534C1223.05 267.144 1225.52 264.511 1228.72 262.636C1231.94 260.742 1235.76 259.795 1240.17 259.795C1244.58 259.795 1248.39 260.742 1251.59 262.636C1254.81 264.511 1257.29 267.144 1259.03 270.534C1260.78 273.905 1261.65 277.845 1261.65 282.352C1261.65 286.822 1260.78 290.752 1259.03 294.142C1257.29 297.513 1254.81 300.146 1251.59 302.04C1248.39 303.915 1244.58 304.852 1240.17 304.852ZM1240.23 295.477C1242.23 295.477 1243.91 294.909 1245.26 293.773C1246.6 292.617 1247.61 291.045 1248.3 289.057C1249 287.068 1249.35 284.805 1249.35 282.267C1249.35 279.729 1249 277.466 1248.3 275.477C1247.61 273.489 1246.6 271.917 1245.26 270.761C1243.91 269.606 1242.23 269.028 1240.23 269.028C1238.2 269.028 1236.5 269.606 1235.11 270.761C1233.75 271.917 1232.72 273.489 1232.02 275.477C1231.34 277.466 1230.99 279.729 1230.99 282.267C1230.99 284.805 1231.34 287.068 1232.02 289.057C1232.72 291.045 1233.75 292.617 1235.11 293.773C1236.5 294.909 1238.2 295.477 1240.23 295.477ZM1281.62 278.773V304H1269.52V260.364H1281.05V268.062H1281.56C1282.53 265.525 1284.15 263.517 1286.42 262.04C1288.69 260.544 1291.45 259.795 1294.69 259.795C1297.72 259.795 1300.36 260.458 1302.61 261.784C1304.87 263.11 1306.62 265.004 1307.87 267.466C1309.12 269.909 1309.74 272.826 1309.74 276.216V304H1297.64V278.375C1297.66 275.705 1296.98 273.621 1295.6 272.125C1294.21 270.61 1292.31 269.852 1289.89 269.852C1288.26 269.852 1286.82 270.203 1285.57 270.903C1284.34 271.604 1283.37 272.627 1282.67 273.972C1281.99 275.297 1281.64 276.898 1281.62 278.773ZM1374.11 272.807L1363.03 273.489C1362.84 272.542 1362.43 271.689 1361.8 270.932C1361.18 270.155 1360.36 269.54 1359.33 269.085C1358.33 268.612 1357.13 268.375 1355.72 268.375C1353.85 268.375 1352.27 268.773 1350.98 269.568C1349.69 270.345 1349.05 271.386 1349.05 272.693C1349.05 273.735 1349.46 274.616 1350.3 275.335C1351.13 276.055 1352.56 276.633 1354.59 277.068L1362.49 278.659C1366.73 279.53 1369.89 280.932 1371.97 282.864C1374.06 284.795 1375.1 287.333 1375.1 290.477C1375.1 293.337 1374.26 295.847 1372.57 298.006C1370.9 300.165 1368.61 301.85 1365.7 303.062C1362.8 304.256 1359.46 304.852 1355.67 304.852C1349.89 304.852 1345.29 303.65 1341.86 301.244C1338.45 298.82 1336.45 295.525 1335.87 291.358L1347.77 290.733C1348.13 292.494 1349 293.839 1350.38 294.767C1351.77 295.676 1353.54 296.131 1355.7 296.131C1357.82 296.131 1359.52 295.723 1360.81 294.909C1362.12 294.076 1362.78 293.006 1362.8 291.699C1362.78 290.6 1362.32 289.701 1361.41 289C1360.5 288.28 1359.1 287.731 1357.2 287.352L1349.64 285.847C1345.38 284.994 1342.21 283.517 1340.13 281.415C1338.06 279.312 1337.03 276.633 1337.03 273.375C1337.03 270.572 1337.79 268.157 1339.3 266.131C1340.84 264.104 1342.99 262.542 1345.75 261.443C1348.54 260.345 1351.79 259.795 1355.53 259.795C1361.04 259.795 1365.37 260.96 1368.54 263.29C1371.72 265.619 1373.57 268.792 1374.11 272.807ZM1402.44 304.852C1397.97 304.852 1394.12 303.905 1390.9 302.011C1387.7 300.098 1385.24 297.447 1383.52 294.057C1381.81 290.667 1380.96 286.765 1380.96 282.352C1380.96 277.883 1381.82 273.962 1383.54 270.591C1385.29 267.201 1387.76 264.559 1390.96 262.665C1394.16 260.752 1397.97 259.795 1402.38 259.795C1406.19 259.795 1409.52 260.487 1412.38 261.869C1415.24 263.252 1417.5 265.193 1419.17 267.693C1420.84 270.193 1421.75 273.129 1421.92 276.5H1410.5C1410.18 274.322 1409.33 272.57 1407.95 271.244C1406.58 269.9 1404.79 269.227 1402.58 269.227C1400.7 269.227 1399.06 269.739 1397.66 270.761C1396.28 271.765 1395.2 273.233 1394.42 275.165C1393.65 277.097 1393.26 279.436 1393.26 282.182C1393.26 284.966 1393.64 287.333 1394.4 289.284C1395.17 291.235 1396.26 292.722 1397.66 293.744C1399.06 294.767 1400.7 295.278 1402.58 295.278C1403.96 295.278 1405.2 294.994 1406.3 294.426C1407.42 293.858 1408.34 293.034 1409.06 291.955C1409.79 290.856 1410.28 289.54 1410.5 288.006H1421.92C1421.74 291.339 1420.83 294.275 1419.2 296.812C1417.59 299.331 1415.36 301.301 1412.52 302.722C1409.68 304.142 1406.32 304.852 1402.44 304.852ZM1429.67 304V260.364H1441.41V267.977H1441.86C1442.66 265.269 1443.99 263.223 1445.87 261.841C1447.74 260.439 1449.9 259.739 1452.34 259.739C1452.95 259.739 1453.6 259.777 1454.3 259.852C1455 259.928 1455.62 260.032 1456.15 260.165V270.903C1455.58 270.733 1454.8 270.581 1453.79 270.449C1452.79 270.316 1451.87 270.25 1451.04 270.25C1449.26 270.25 1447.67 270.638 1446.26 271.415C1444.88 272.172 1443.78 273.233 1442.97 274.597C1442.17 275.96 1441.78 277.532 1441.78 279.312V304H1429.67ZM1462.41 304V260.364H1474.51V304H1462.41ZM1468.49 254.739C1466.69 254.739 1465.14 254.142 1463.86 252.949C1462.59 251.737 1461.95 250.288 1461.95 248.602C1461.95 246.936 1462.59 245.506 1463.86 244.312C1465.14 243.1 1466.69 242.494 1468.49 242.494C1470.29 242.494 1471.82 243.1 1473.09 244.312C1474.38 245.506 1475.02 246.936 1475.02 248.602C1475.02 250.288 1474.38 251.737 1473.09 252.949C1471.82 254.142 1470.29 254.739 1468.49 254.739ZM1484.2 320.364V260.364H1496.14V267.693H1496.68C1497.21 266.519 1497.97 265.326 1498.98 264.114C1500 262.883 1501.33 261.86 1502.95 261.045C1504.6 260.212 1506.65 259.795 1509.09 259.795C1512.27 259.795 1515.21 260.629 1517.9 262.295C1520.59 263.943 1522.74 266.434 1524.35 269.767C1525.96 273.081 1526.76 277.239 1526.76 282.239C1526.76 287.106 1525.98 291.216 1524.4 294.568C1522.85 297.902 1520.73 300.43 1518.04 302.153C1515.37 303.858 1512.38 304.71 1509.06 304.71C1506.71 304.71 1504.72 304.322 1503.07 303.545C1501.44 302.769 1500.1 301.794 1499.06 300.619C1498.02 299.426 1497.23 298.223 1496.68 297.011H1496.31V320.364H1484.2ZM1496.05 282.182C1496.05 284.777 1496.41 287.04 1497.13 288.972C1497.85 290.903 1498.89 292.409 1500.26 293.489C1501.62 294.549 1503.28 295.08 1505.23 295.08C1507.2 295.08 1508.86 294.54 1510.23 293.46C1511.59 292.362 1512.62 290.847 1513.32 288.915C1514.04 286.964 1514.4 284.72 1514.4 282.182C1514.4 279.663 1514.05 277.447 1513.35 275.534C1512.65 273.621 1511.62 272.125 1510.26 271.045C1508.89 269.966 1507.22 269.426 1505.23 269.426C1503.26 269.426 1501.59 269.947 1500.23 270.989C1498.88 272.03 1497.85 273.508 1497.13 275.42C1496.41 277.333 1496.05 279.587 1496.05 282.182ZM1558.04 260.364V269.455H1531.76V260.364H1558.04ZM1537.73 249.909H1549.83V290.591C1549.83 291.708 1550 292.58 1550.34 293.205C1550.68 293.811 1551.16 294.237 1551.76 294.483C1552.39 294.729 1553.11 294.852 1553.92 294.852C1554.49 294.852 1555.06 294.805 1555.62 294.71C1556.19 294.597 1556.63 294.511 1556.93 294.455L1558.84 303.46C1558.23 303.65 1557.38 303.867 1556.28 304.114C1555.18 304.379 1553.84 304.54 1552.27 304.597C1549.36 304.71 1546.8 304.322 1544.6 303.432C1542.42 302.542 1540.73 301.159 1539.52 299.284C1538.3 297.409 1537.71 295.042 1537.73 292.182V249.909Z" fill="#2C2C2C"/>
<rect x="1803" y="115" width="1044" height="320" rx="45" fill="#FEF7E8"/>
<rect x="1803" y="115" width="1044" height="320" rx="45" stroke="#2259C9" stroke-width="10"/>
<path d="M2067.18 219.625C2066.79 218.242 2066.23 217.021 2065.51 215.96C2064.79 214.881 2063.91 213.972 2062.87 213.233C2061.84 212.475 2060.67 211.898 2059.34 211.5C2058.04 211.102 2056.59 210.903 2055 210.903C2052.02 210.903 2049.41 211.642 2047.15 213.119C2044.92 214.597 2043.18 216.746 2041.93 219.568C2040.68 222.371 2040.05 225.799 2040.05 229.852C2040.05 233.905 2040.67 237.352 2041.9 240.193C2043.13 243.034 2044.87 245.203 2047.13 246.699C2049.38 248.176 2052.04 248.915 2055.11 248.915C2057.89 248.915 2060.27 248.422 2062.24 247.438C2064.23 246.434 2065.74 245.023 2066.79 243.205C2067.85 241.386 2068.38 239.237 2068.38 236.756L2070.88 237.125H2055.88V227.864H2080.22V235.193C2080.22 240.307 2079.14 244.701 2076.98 248.375C2074.83 252.03 2071.85 254.852 2068.06 256.841C2064.28 258.811 2059.94 259.795 2055.05 259.795C2049.6 259.795 2044.81 258.593 2040.68 256.188C2036.55 253.763 2033.33 250.326 2031.02 245.875C2028.73 241.405 2027.58 236.102 2027.58 229.966C2027.58 225.25 2028.26 221.045 2029.63 217.352C2031.01 213.64 2032.94 210.496 2035.42 207.92C2037.9 205.345 2040.79 203.384 2044.09 202.04C2047.38 200.695 2050.95 200.023 2054.8 200.023C2058.09 200.023 2061.16 200.506 2064 201.472C2066.84 202.419 2069.36 203.763 2071.56 205.506C2073.77 207.248 2075.58 209.322 2076.98 211.727C2078.39 214.114 2079.29 216.746 2079.68 219.625H2067.18ZM2108.95 259.852C2104.54 259.852 2100.72 258.915 2097.5 257.04C2094.3 255.146 2091.83 252.513 2090.09 249.142C2088.35 245.752 2087.47 241.822 2087.47 237.352C2087.47 232.845 2088.35 228.905 2090.09 225.534C2091.83 222.144 2094.3 219.511 2097.5 217.636C2100.72 215.742 2104.54 214.795 2108.95 214.795C2113.36 214.795 2117.17 215.742 2120.37 217.636C2123.59 219.511 2126.07 222.144 2127.82 225.534C2129.56 228.905 2130.43 232.845 2130.43 237.352C2130.43 241.822 2129.56 245.752 2127.82 249.142C2126.07 252.513 2123.59 255.146 2120.37 257.04C2117.17 258.915 2113.36 259.852 2108.95 259.852ZM2109.01 250.477C2111.02 250.477 2112.69 249.909 2114.04 248.773C2115.38 247.617 2116.39 246.045 2117.08 244.057C2117.78 242.068 2118.13 239.805 2118.13 237.267C2118.13 234.729 2117.78 232.466 2117.08 230.477C2116.39 228.489 2115.38 226.917 2114.04 225.761C2112.69 224.606 2111.02 224.028 2109.01 224.028C2106.98 224.028 2105.28 224.606 2103.89 225.761C2102.53 226.917 2101.5 228.489 2100.8 230.477C2100.12 232.466 2099.78 234.729 2099.78 237.267C2099.78 239.805 2100.12 242.068 2100.8 244.057C2101.5 246.045 2102.53 247.617 2103.89 248.773C2105.28 249.909 2106.98 250.477 2109.01 250.477ZM2158.01 259.852C2153.6 259.852 2149.79 258.915 2146.57 257.04C2143.36 255.146 2140.89 252.513 2139.15 249.142C2137.41 245.752 2136.54 241.822 2136.54 237.352C2136.54 232.845 2137.41 228.905 2139.15 225.534C2140.89 222.144 2143.36 219.511 2146.57 217.636C2149.79 215.742 2153.6 214.795 2158.01 214.795C2162.43 214.795 2166.23 215.742 2169.43 217.636C2172.65 219.511 2175.14 222.144 2176.88 225.534C2178.62 228.905 2179.49 232.845 2179.49 237.352C2179.49 241.822 2178.62 245.752 2176.88 249.142C2175.14 252.513 2172.65 255.146 2169.43 257.04C2166.23 258.915 2162.43 259.852 2158.01 259.852ZM2158.07 250.477C2160.08 250.477 2161.75 249.909 2163.1 248.773C2164.44 247.617 2165.46 246.045 2166.14 244.057C2166.84 242.068 2167.19 239.805 2167.19 237.267C2167.19 234.729 2166.84 232.466 2166.14 230.477C2165.46 228.489 2164.44 226.917 2163.1 225.761C2161.75 224.606 2160.08 224.028 2158.07 224.028C2156.04 224.028 2154.34 224.606 2152.96 225.761C2151.59 226.917 2150.56 228.489 2149.86 230.477C2149.18 232.466 2148.84 234.729 2148.84 237.267C2148.84 239.805 2149.18 242.068 2149.86 244.057C2150.56 246.045 2151.59 247.617 2152.96 248.773C2154.34 249.909 2156.04 250.477 2158.07 250.477ZM2207.02 276.273C2203.1 276.273 2199.74 275.733 2196.93 274.653C2194.15 273.593 2191.93 272.144 2190.29 270.307C2188.64 268.47 2187.57 266.405 2187.08 264.114L2198.27 262.608C2198.61 263.479 2199.15 264.294 2199.89 265.051C2200.63 265.809 2201.6 266.415 2202.82 266.869C2204.05 267.343 2205.54 267.58 2207.3 267.58C2209.94 267.58 2212.11 266.936 2213.81 265.648C2215.53 264.379 2216.39 262.248 2216.39 259.256V251.273H2215.88C2215.35 252.485 2214.56 253.631 2213.5 254.71C2212.44 255.79 2211.07 256.67 2209.41 257.352C2207.74 258.034 2205.75 258.375 2203.44 258.375C2200.16 258.375 2197.18 257.617 2194.49 256.102C2191.82 254.568 2189.69 252.229 2188.1 249.085C2186.53 245.922 2185.74 241.926 2185.74 237.097C2185.74 232.153 2186.55 228.025 2188.16 224.71C2189.77 221.396 2191.91 218.915 2194.58 217.267C2197.27 215.619 2200.21 214.795 2203.41 214.795C2205.86 214.795 2207.9 215.212 2209.55 216.045C2211.2 216.86 2212.52 217.883 2213.53 219.114C2214.55 220.326 2215.33 221.519 2215.88 222.693H2216.34V215.364H2228.36V259.426C2228.36 263.138 2227.45 266.244 2225.63 268.744C2223.81 271.244 2221.29 273.119 2218.07 274.369C2214.87 275.638 2211.19 276.273 2207.02 276.273ZM2207.28 249.284C2209.23 249.284 2210.87 248.801 2212.22 247.835C2213.58 246.85 2214.62 245.449 2215.34 243.631C2216.08 241.794 2216.45 239.597 2216.45 237.04C2216.45 234.483 2216.09 232.267 2215.37 230.392C2214.65 228.498 2213.61 227.03 2212.25 225.989C2210.88 224.947 2209.23 224.426 2207.28 224.426C2205.29 224.426 2203.61 224.966 2202.25 226.045C2200.88 227.106 2199.85 228.583 2199.15 230.477C2198.45 232.371 2198.1 234.559 2198.1 237.04C2198.1 239.559 2198.45 241.737 2199.15 243.574C2199.87 245.392 2200.9 246.803 2202.25 247.807C2203.61 248.792 2205.29 249.284 2207.28 249.284ZM2250.09 200.818V259H2237.99V200.818H2250.09ZM2279.67 259.852C2275.18 259.852 2271.32 258.943 2268.08 257.125C2264.86 255.288 2262.38 252.693 2260.63 249.341C2258.89 245.97 2258.02 241.983 2258.02 237.381C2258.02 232.892 2258.89 228.953 2260.63 225.562C2262.38 222.172 2264.83 219.53 2267.99 217.636C2271.17 215.742 2274.91 214.795 2279.19 214.795C2282.06 214.795 2284.74 215.259 2287.23 216.188C2289.73 217.097 2291.9 218.47 2293.76 220.307C2295.63 222.144 2297.09 224.455 2298.13 227.239C2299.18 230.004 2299.7 233.242 2299.7 236.955V240.278H2262.85V232.778H2288.31C2288.31 231.036 2287.93 229.492 2287.17 228.148C2286.41 226.803 2285.36 225.752 2284.02 224.994C2282.69 224.218 2281.15 223.83 2279.38 223.83C2277.55 223.83 2275.92 224.256 2274.5 225.108C2273.1 225.941 2272 227.068 2271.2 228.489C2270.41 229.89 2270 231.453 2269.98 233.176V240.307C2269.98 242.466 2270.38 244.331 2271.17 245.903C2271.99 247.475 2273.13 248.688 2274.61 249.54C2276.09 250.392 2277.84 250.818 2279.87 250.818C2281.21 250.818 2282.44 250.629 2283.56 250.25C2284.68 249.871 2285.63 249.303 2286.43 248.545C2287.23 247.788 2287.83 246.86 2288.25 245.761L2299.44 246.5C2298.87 249.189 2297.71 251.538 2295.95 253.545C2294.21 255.534 2291.95 257.087 2289.19 258.205C2286.44 259.303 2283.27 259.852 2279.67 259.852ZM2336.37 259H2323.18L2343.27 200.818H2359.12L2379.18 259H2366L2351.42 214.114H2350.97L2336.37 259ZM2335.54 236.131H2366.68V245.733H2335.54V236.131ZM2400 259.71C2396.69 259.71 2393.69 258.858 2391 257.153C2388.33 255.43 2386.21 252.902 2384.63 249.568C2383.08 246.216 2382.3 242.106 2382.3 237.239C2382.3 232.239 2383.11 228.081 2384.72 224.767C2386.33 221.434 2388.47 218.943 2391.14 217.295C2393.83 215.629 2396.77 214.795 2399.97 214.795C2402.42 214.795 2404.45 215.212 2406.08 216.045C2407.73 216.86 2409.06 217.883 2410.06 219.114C2411.08 220.326 2411.86 221.519 2412.39 222.693H2412.76V200.818H2424.83V259H2412.9V252.011H2412.39C2411.82 253.223 2411.02 254.426 2409.97 255.619C2408.95 256.794 2407.62 257.769 2405.97 258.545C2404.34 259.322 2402.35 259.71 2400 259.71ZM2403.84 250.08C2405.79 250.08 2407.44 249.549 2408.78 248.489C2410.14 247.409 2411.19 245.903 2411.91 243.972C2412.64 242.04 2413.01 239.777 2413.01 237.182C2413.01 234.587 2412.65 232.333 2411.93 230.42C2411.21 228.508 2410.17 227.03 2408.81 225.989C2407.45 224.947 2405.79 224.426 2403.84 224.426C2401.85 224.426 2400.17 224.966 2398.81 226.045C2397.45 227.125 2396.41 228.621 2395.71 230.534C2395.01 232.447 2394.66 234.663 2394.66 237.182C2394.66 239.72 2395.01 241.964 2395.71 243.915C2396.43 245.847 2397.46 247.362 2398.81 248.46C2400.17 249.54 2401.85 250.08 2403.84 250.08ZM2471.09 227.807L2460.01 228.489C2459.82 227.542 2459.41 226.689 2458.79 225.932C2458.16 225.155 2457.34 224.54 2456.32 224.085C2455.31 223.612 2454.11 223.375 2452.71 223.375C2450.83 223.375 2449.25 223.773 2447.96 224.568C2446.68 225.345 2446.03 226.386 2446.03 227.693C2446.03 228.735 2446.45 229.616 2447.28 230.335C2448.12 231.055 2449.55 231.633 2451.57 232.068L2459.47 233.659C2463.71 234.53 2466.88 235.932 2468.96 237.864C2471.04 239.795 2472.08 242.333 2472.08 245.477C2472.08 248.337 2471.24 250.847 2469.56 253.006C2467.89 255.165 2465.6 256.85 2462.68 258.062C2459.78 259.256 2456.44 259.852 2452.65 259.852C2446.88 259.852 2442.27 258.65 2438.85 256.244C2435.44 253.82 2433.44 250.525 2432.85 246.358L2444.75 245.733C2445.11 247.494 2445.99 248.839 2447.37 249.767C2448.75 250.676 2450.52 251.131 2452.68 251.131C2454.8 251.131 2456.51 250.723 2457.79 249.909C2459.1 249.076 2459.76 248.006 2459.78 246.699C2459.76 245.6 2459.3 244.701 2458.39 244C2457.48 243.28 2456.08 242.731 2454.19 242.352L2446.63 240.847C2442.37 239.994 2439.2 238.517 2437.11 236.415C2435.05 234.312 2434.02 231.633 2434.02 228.375C2434.02 225.572 2434.77 223.157 2436.29 221.131C2437.82 219.104 2439.97 217.542 2442.74 216.443C2445.52 215.345 2448.78 214.795 2452.51 214.795C2458.02 214.795 2462.36 215.96 2465.52 218.29C2468.7 220.619 2470.56 223.792 2471.09 227.807ZM2508.48 259H2495.29L2515.38 200.818H2531.23L2551.29 259H2538.11L2523.53 214.114H2523.08L2508.48 259ZM2507.65 236.131H2538.79V245.733H2507.65V236.131ZM2558.29 259V200.818H2581.25C2585.66 200.818 2589.42 201.661 2592.52 203.347C2595.63 205.013 2598 207.333 2599.63 210.307C2601.27 213.261 2602.1 216.67 2602.1 220.534C2602.1 224.398 2601.26 227.807 2599.6 230.761C2597.93 233.716 2595.52 236.017 2592.35 237.665C2589.21 239.312 2585.4 240.136 2580.93 240.136H2566.3V230.278H2578.94C2581.31 230.278 2583.26 229.871 2584.8 229.057C2586.35 228.223 2587.51 227.078 2588.26 225.619C2589.04 224.142 2589.43 222.447 2589.43 220.534C2589.43 218.602 2589.04 216.917 2588.26 215.477C2587.51 214.019 2586.35 212.892 2584.8 212.097C2583.24 211.282 2581.27 210.875 2578.89 210.875H2570.59V259H2558.29ZM2622.39 200.818V259H2610.09V200.818H2622.39ZM1974.16 358V314.364H1980.75V335.202H1981.28L1999.58 314.364H2007.87L1990.27 334.009L2007.93 358H2000.01L1985.9 338.504L1980.75 344.428V358H1974.16ZM2025.2 358.661C2021.97 358.661 2019.19 357.972 2016.87 356.594C2014.55 355.202 2012.76 353.249 2011.5 350.734C2010.25 348.206 2009.62 345.244 2009.62 341.849C2009.62 338.497 2010.25 335.543 2011.5 332.986C2012.76 330.429 2014.52 328.433 2016.78 326.999C2019.05 325.564 2021.71 324.847 2024.75 324.847C2026.6 324.847 2028.39 325.152 2030.12 325.763C2031.85 326.374 2033.41 327.332 2034.78 328.639C2036.16 329.946 2037.25 331.643 2038.04 333.732C2038.84 335.805 2039.24 338.327 2039.24 341.295V343.554H2013.22V338.781H2032.99C2032.99 337.105 2032.65 335.621 2031.97 334.328C2031.29 333.021 2030.33 331.991 2029.1 331.239C2027.87 330.486 2026.44 330.109 2024.79 330.109C2023 330.109 2021.44 330.55 2020.1 331.43C2018.78 332.297 2017.76 333.433 2017.04 334.839C2016.33 336.232 2015.97 337.744 2015.97 339.378V343.107C2015.97 345.294 2016.35 347.155 2017.12 348.689C2017.9 350.223 2018.99 351.395 2020.38 352.205C2021.77 353 2023.4 353.398 2025.26 353.398C2026.47 353.398 2027.57 353.227 2028.56 352.886C2029.56 352.531 2030.42 352.006 2031.14 351.31C2031.87 350.614 2032.42 349.754 2032.8 348.732L2038.83 349.818C2038.35 351.594 2037.48 353.149 2036.23 354.484C2035 355.805 2033.44 356.835 2031.57 357.574C2029.71 358.298 2027.58 358.661 2025.2 358.661ZM2049.4 370.273C2048.44 370.273 2047.58 370.195 2046.8 370.038C2046.01 369.896 2045.43 369.74 2045.05 369.57L2046.58 364.349C2047.75 364.662 2048.78 364.797 2049.69 364.754C2050.6 364.712 2051.41 364.371 2052.1 363.732C2052.81 363.092 2053.44 362.048 2053.98 360.599L2054.76 358.426L2042.79 325.273H2049.61L2057.9 350.67H2058.24L2066.53 325.273H2073.37L2059.88 362.368C2059.25 364.072 2058.46 365.514 2057.49 366.693C2056.53 367.886 2055.38 368.781 2054.04 369.378C2052.71 369.974 2051.16 370.273 2049.4 370.273ZM2086.45 358L2076.82 325.273H2083.4L2089.81 349.307H2090.13L2096.57 325.273H2103.15L2109.54 349.2H2109.86L2116.24 325.273H2122.82L2113.21 358H2106.71L2100.06 334.371H2099.57L2092.93 358H2086.45ZM2141.65 358.661C2138.59 358.661 2135.91 357.957 2133.62 356.551C2131.33 355.145 2129.56 353.178 2128.29 350.649C2127.03 348.121 2126.4 345.166 2126.4 341.786C2126.4 338.391 2127.03 335.422 2128.29 332.879C2129.56 330.337 2131.33 328.362 2133.62 326.956C2135.91 325.55 2138.59 324.847 2141.65 324.847C2144.72 324.847 2147.4 325.55 2149.69 326.956C2151.97 328.362 2153.75 330.337 2155.01 332.879C2156.28 335.422 2156.91 338.391 2156.91 341.786C2156.91 345.166 2156.28 348.121 2155.01 350.649C2153.75 353.178 2151.97 355.145 2149.69 356.551C2147.4 357.957 2144.72 358.661 2141.65 358.661ZM2141.68 353.312C2143.66 353.312 2145.31 352.787 2146.62 351.736C2147.93 350.685 2148.89 349.286 2149.52 347.538C2150.16 345.791 2150.48 343.866 2150.48 341.764C2150.48 339.676 2150.16 337.759 2149.52 336.011C2148.89 334.25 2147.93 332.837 2146.62 331.771C2145.31 330.706 2143.66 330.173 2141.68 330.173C2139.67 330.173 2138.01 330.706 2136.69 331.771C2135.38 332.837 2134.41 334.25 2133.77 336.011C2133.15 337.759 2132.83 339.676 2132.83 341.764C2132.83 343.866 2133.15 345.791 2133.77 347.538C2134.41 349.286 2135.38 350.685 2136.69 351.736C2138.01 352.787 2139.67 353.312 2141.68 353.312ZM2164.02 358V325.273H2170.18V330.472H2170.52C2171.12 328.71 2172.17 327.325 2173.67 326.317C2175.19 325.294 2176.91 324.783 2178.83 324.783C2179.23 324.783 2179.7 324.797 2180.24 324.825C2180.79 324.854 2181.22 324.889 2181.54 324.932V331.026C2181.28 330.955 2180.82 330.876 2180.17 330.791C2179.52 330.692 2178.86 330.642 2178.21 330.642C2176.71 330.642 2175.36 330.962 2174.18 331.601C2173.02 332.226 2172.1 333.099 2171.41 334.222C2170.73 335.33 2170.39 336.594 2170.39 338.014V358H2164.02ZM2198.13 358.639C2195.49 358.639 2193.13 357.964 2191.05 356.615C2188.99 355.251 2187.38 353.312 2186.2 350.798C2185.03 348.27 2184.45 345.237 2184.45 341.7C2184.45 338.163 2185.04 335.138 2186.22 332.624C2187.41 330.109 2189.04 328.185 2191.12 326.849C2193.19 325.514 2195.54 324.847 2198.17 324.847C2200.2 324.847 2201.84 325.188 2203.07 325.869C2204.32 326.537 2205.29 327.318 2205.97 328.213C2206.66 329.108 2207.2 329.896 2207.59 330.578H2207.97V314.364H2214.34V358H2208.12V352.908H2207.59C2207.2 353.604 2206.65 354.399 2205.93 355.294C2205.22 356.189 2204.24 356.97 2202.99 357.638C2201.74 358.305 2200.12 358.639 2198.13 358.639ZM2199.53 353.206C2201.37 353.206 2202.91 352.723 2204.18 351.757C2205.46 350.777 2206.42 349.42 2207.08 347.688C2207.74 345.955 2208.08 343.937 2208.08 341.636C2208.08 339.364 2207.75 337.375 2207.1 335.67C2206.44 333.966 2205.49 332.638 2204.22 331.686C2202.96 330.734 2201.39 330.259 2199.53 330.259C2197.62 330.259 2196.02 330.756 2194.74 331.75C2193.46 332.744 2192.5 334.101 2191.84 335.82C2191.2 337.538 2190.88 339.477 2190.88 341.636C2190.88 343.824 2191.21 345.791 2191.86 347.538C2192.52 349.286 2193.48 350.67 2194.76 351.693C2196.05 352.702 2197.64 353.206 2199.53 353.206ZM2223.95 358V314.364H2239.5C2242.9 314.364 2245.71 314.982 2247.94 316.217C2250.17 317.453 2251.84 319.143 2252.94 321.288C2254.05 323.419 2254.61 325.82 2254.61 328.49C2254.61 331.175 2254.05 333.589 2252.92 335.734C2251.82 337.865 2250.14 339.555 2247.9 340.805C2245.67 342.041 2242.86 342.659 2239.48 342.659H2228.78V337.077H2238.88C2241.03 337.077 2242.77 336.707 2244.1 335.969C2245.44 335.216 2246.42 334.193 2247.04 332.901C2247.67 331.608 2247.98 330.138 2247.98 328.49C2247.98 326.842 2247.67 325.379 2247.04 324.101C2246.42 322.822 2245.43 321.821 2244.08 321.097C2242.75 320.372 2240.98 320.01 2238.8 320.01H2230.53V358H2223.95ZM2268.18 314.364V358H2261.81V314.364H2268.18ZM2286.28 358.724C2284.21 358.724 2282.33 358.341 2280.65 357.574C2278.98 356.793 2277.65 355.663 2276.67 354.186C2275.7 352.709 2275.22 350.898 2275.22 348.753C2275.22 346.906 2275.58 345.386 2276.29 344.193C2277 343 2277.96 342.055 2279.16 341.359C2280.37 340.663 2281.72 340.138 2283.21 339.783C2284.7 339.428 2286.22 339.158 2287.77 338.973C2289.73 338.746 2291.32 338.561 2292.54 338.419C2293.77 338.263 2294.65 338.014 2295.21 337.673C2295.76 337.332 2296.04 336.778 2296.04 336.011V335.862C2296.04 334.001 2295.51 332.56 2294.46 331.537C2293.42 330.514 2291.88 330.003 2289.82 330.003C2287.67 330.003 2285.98 330.479 2284.75 331.43C2283.52 332.368 2282.68 333.412 2282.21 334.562L2276.22 333.199C2276.93 331.21 2277.97 329.605 2279.33 328.384C2280.71 327.148 2282.3 326.253 2284.08 325.699C2285.87 325.131 2287.76 324.847 2289.73 324.847C2291.04 324.847 2292.42 325.003 2293.89 325.315C2295.36 325.614 2296.74 326.168 2298.02 326.977C2299.31 327.787 2300.37 328.945 2301.19 330.45C2302.02 331.942 2302.43 333.881 2302.43 336.267V358H2296.21V353.526H2295.95C2295.54 354.349 2294.92 355.159 2294.1 355.955C2293.28 356.75 2292.22 357.411 2290.92 357.936C2289.63 358.462 2288.08 358.724 2286.28 358.724ZM2287.66 353.611C2289.43 353.611 2290.93 353.263 2292.18 352.567C2293.45 351.871 2294.4 350.962 2295.06 349.839C2295.73 348.703 2296.06 347.489 2296.06 346.196V341.977C2295.83 342.205 2295.39 342.418 2294.74 342.616C2294.1 342.801 2293.37 342.964 2292.54 343.107C2291.72 343.234 2290.92 343.355 2290.14 343.469C2289.35 343.568 2288.7 343.653 2288.18 343.724C2286.94 343.881 2285.81 344.143 2284.79 344.513C2283.78 344.882 2282.97 345.415 2282.36 346.111C2281.76 346.793 2281.46 347.702 2281.46 348.838C2281.46 350.415 2282.05 351.608 2283.21 352.418C2284.38 353.213 2285.86 353.611 2287.66 353.611ZM2317.29 338.568V358H2310.92V325.273H2317.03V330.599H2317.44C2318.19 328.866 2319.37 327.474 2320.97 326.423C2322.59 325.372 2324.63 324.847 2327.09 324.847C2329.32 324.847 2331.27 325.315 2332.95 326.253C2334.62 327.176 2335.92 328.554 2336.85 330.386C2337.77 332.219 2338.23 334.484 2338.23 337.183V358H2331.86V337.95C2331.86 335.578 2331.24 333.724 2330.01 332.389C2328.77 331.04 2327.07 330.365 2324.91 330.365C2323.44 330.365 2322.12 330.685 2320.97 331.324C2319.84 331.963 2318.93 332.901 2318.27 334.136C2317.61 335.358 2317.29 336.835 2317.29 338.568ZM2353.87 314.364V358H2347.29V314.364H2353.87ZM2375.2 358.639C2372.56 358.639 2370.2 357.964 2368.12 356.615C2366.06 355.251 2364.45 353.312 2363.27 350.798C2362.1 348.27 2361.52 345.237 2361.52 341.7C2361.52 338.163 2362.11 335.138 2363.29 332.624C2364.48 330.109 2366.11 328.185 2368.19 326.849C2370.26 325.514 2372.61 324.847 2375.24 324.847C2377.27 324.847 2378.91 325.188 2380.14 325.869C2381.39 326.537 2382.36 327.318 2383.04 328.213C2383.74 329.108 2384.27 329.896 2384.66 330.578H2385.04V314.364H2391.41V358H2385.19V352.908H2384.66C2384.27 353.604 2383.72 354.399 2383 355.294C2382.29 356.189 2381.31 356.97 2380.06 357.638C2378.81 358.305 2377.19 358.639 2375.2 358.639ZM2376.6 353.206C2378.44 353.206 2379.99 352.723 2381.25 351.757C2382.53 350.777 2383.49 349.42 2384.15 347.688C2384.81 345.955 2385.15 343.937 2385.15 341.636C2385.15 339.364 2384.82 337.375 2384.17 335.67C2383.51 333.966 2382.56 332.638 2381.29 331.686C2380.03 330.734 2378.47 330.259 2376.6 330.259C2374.69 330.259 2373.09 330.756 2371.81 331.75C2370.53 332.744 2369.57 334.101 2368.91 335.82C2368.27 337.538 2367.95 339.477 2367.95 341.636C2367.95 343.824 2368.28 345.791 2368.93 347.538C2369.59 349.286 2370.55 350.67 2371.83 351.693C2373.12 352.702 2374.72 353.206 2376.6 353.206ZM2414.61 358.661C2411.39 358.661 2408.61 357.972 2406.28 356.594C2403.96 355.202 2402.17 353.249 2400.91 350.734C2399.66 348.206 2399.04 345.244 2399.04 341.849C2399.04 338.497 2399.66 335.543 2400.91 332.986C2402.17 330.429 2403.94 328.433 2406.19 326.999C2408.47 325.564 2411.12 324.847 2414.16 324.847C2416.01 324.847 2417.8 325.152 2419.53 325.763C2421.27 326.374 2422.82 327.332 2424.2 328.639C2425.58 329.946 2426.66 331.643 2427.46 333.732C2428.25 335.805 2428.65 338.327 2428.65 341.295V343.554H2402.64V338.781H2422.41C2422.41 337.105 2422.07 335.621 2421.39 334.328C2420.7 333.021 2419.75 331.991 2418.51 331.239C2417.29 330.486 2415.85 330.109 2414.21 330.109C2412.42 330.109 2410.85 330.55 2409.52 331.43C2408.2 332.297 2407.17 333.433 2406.45 334.839C2405.74 336.232 2405.38 337.744 2405.38 339.378V343.107C2405.38 345.294 2405.77 347.155 2406.54 348.689C2407.32 350.223 2408.4 351.395 2409.8 352.205C2411.19 353 2412.81 353.398 2414.67 353.398C2415.88 353.398 2416.98 353.227 2417.98 352.886C2418.97 352.531 2419.83 352.006 2420.56 351.31C2421.28 350.614 2421.83 349.754 2422.22 348.732L2428.25 349.818C2427.76 351.594 2426.9 353.149 2425.65 354.484C2424.41 355.805 2422.86 356.835 2420.98 357.574C2419.12 358.298 2417 358.661 2414.61 358.661ZM2445.24 358.724C2443.17 358.724 2441.3 358.341 2439.62 357.574C2437.94 356.793 2436.62 355.663 2435.63 354.186C2434.67 352.709 2434.19 350.898 2434.19 348.753C2434.19 346.906 2434.54 345.386 2435.25 344.193C2435.96 343 2436.92 342.055 2438.13 341.359C2439.34 340.663 2440.68 340.138 2442.18 339.783C2443.67 339.428 2445.19 339.158 2446.74 338.973C2448.7 338.746 2450.29 338.561 2451.51 338.419C2452.73 338.263 2453.62 338.014 2454.17 337.673C2454.73 337.332 2455 336.778 2455 336.011V335.862C2455 334.001 2454.48 332.56 2453.43 331.537C2452.39 330.514 2450.84 330.003 2448.78 330.003C2446.64 330.003 2444.95 330.479 2443.71 331.43C2442.49 332.368 2441.64 333.412 2441.17 334.562L2435.19 333.199C2435.9 331.21 2436.93 329.605 2438.3 328.384C2439.68 327.148 2441.26 326.253 2443.05 325.699C2444.84 325.131 2446.72 324.847 2448.7 324.847C2450 324.847 2451.39 325.003 2452.85 325.315C2454.33 325.614 2455.71 326.168 2456.98 326.977C2458.28 327.787 2459.34 328.945 2460.16 330.45C2460.98 331.942 2461.39 333.881 2461.39 336.267V358H2455.17V353.526H2454.92C2454.51 354.349 2453.89 355.159 2453.06 355.955C2452.24 356.75 2451.18 357.411 2449.89 357.936C2448.6 358.462 2447.05 358.724 2445.24 358.724ZM2446.63 353.611C2448.39 353.611 2449.9 353.263 2451.15 352.567C2452.41 351.871 2453.37 350.962 2454.02 349.839C2454.69 348.703 2455.02 347.489 2455.02 346.196V341.977C2454.8 342.205 2454.36 342.418 2453.7 342.616C2453.06 342.801 2452.33 342.964 2451.51 343.107C2450.68 343.234 2449.88 343.355 2449.1 343.469C2448.32 343.568 2447.67 343.653 2447.14 343.724C2445.9 343.881 2444.78 344.143 2443.75 344.513C2442.74 344.882 2441.93 345.415 2441.32 346.111C2440.73 346.793 2440.43 347.702 2440.43 348.838C2440.43 350.415 2441.01 351.608 2442.18 352.418C2443.34 353.213 2444.83 353.611 2446.63 353.611ZM2494.19 325.827C2493.96 323.81 2493.03 322.247 2491.38 321.139C2489.73 320.017 2487.66 319.456 2485.16 319.456C2483.37 319.456 2481.82 319.74 2480.51 320.308C2479.21 320.862 2478.19 321.629 2477.47 322.609C2476.76 323.575 2476.4 324.676 2476.4 325.912C2476.4 326.949 2476.64 327.844 2477.12 328.597C2477.62 329.349 2478.27 329.982 2479.06 330.493C2479.87 330.99 2480.74 331.409 2481.66 331.75C2482.59 332.077 2483.47 332.347 2484.33 332.56L2488.59 333.668C2489.98 334.009 2491.41 334.47 2492.87 335.053C2494.33 335.635 2495.69 336.402 2496.94 337.354C2498.19 338.305 2499.2 339.484 2499.97 340.891C2500.75 342.297 2501.14 343.98 2501.14 345.94C2501.14 348.412 2500.5 350.607 2499.22 352.524C2497.96 354.442 2496.12 355.955 2493.7 357.062C2491.3 358.17 2488.4 358.724 2484.99 358.724C2481.72 358.724 2478.89 358.206 2476.51 357.169C2474.12 356.132 2472.25 354.662 2470.9 352.759C2469.55 350.841 2468.81 348.568 2468.67 345.94H2475.27C2475.4 347.517 2475.91 348.831 2476.81 349.882C2477.71 350.919 2478.87 351.693 2480.28 352.205C2481.7 352.702 2483.25 352.95 2484.94 352.95C2486.81 352.95 2488.46 352.659 2489.91 352.077C2491.37 351.48 2492.52 350.656 2493.36 349.605C2494.2 348.54 2494.62 347.297 2494.62 345.876C2494.62 344.584 2494.25 343.526 2493.51 342.702C2492.79 341.878 2491.8 341.196 2490.55 340.656C2489.31 340.116 2487.91 339.641 2486.35 339.229L2481.19 337.822C2477.7 336.871 2474.93 335.472 2472.88 333.625C2470.85 331.778 2469.84 329.335 2469.84 326.295C2469.84 323.781 2470.52 321.587 2471.88 319.712C2473.25 317.837 2475.09 316.381 2477.42 315.344C2479.75 314.293 2482.38 313.767 2485.31 313.767C2488.26 313.767 2490.87 314.286 2493.13 315.322C2495.4 316.359 2497.19 317.787 2498.5 319.605C2499.8 321.409 2500.48 323.483 2500.54 325.827H2494.19ZM2522.6 358.661C2519.37 358.661 2516.6 357.972 2514.27 356.594C2511.95 355.202 2510.16 353.249 2508.9 350.734C2507.65 348.206 2507.02 345.244 2507.02 341.849C2507.02 338.497 2507.65 335.543 2508.9 332.986C2510.16 330.429 2511.92 328.433 2514.18 326.999C2516.46 325.564 2519.11 324.847 2522.15 324.847C2524 324.847 2525.79 325.152 2527.52 325.763C2529.25 326.374 2530.81 327.332 2532.19 328.639C2533.56 329.946 2534.65 331.643 2535.45 333.732C2536.24 335.805 2536.64 338.327 2536.64 341.295V343.554H2510.62V338.781H2530.4C2530.4 337.105 2530.06 335.621 2529.37 334.328C2528.69 333.021 2527.73 331.991 2526.5 331.239C2525.28 330.486 2523.84 330.109 2522.19 330.109C2520.4 330.109 2518.84 330.55 2517.51 331.43C2516.19 332.297 2515.16 333.433 2514.44 334.839C2513.73 336.232 2513.37 337.744 2513.37 339.378V343.107C2513.37 345.294 2513.76 347.155 2514.52 348.689C2515.3 350.223 2516.39 351.395 2517.78 352.205C2519.18 353 2520.8 353.398 2522.66 353.398C2523.87 353.398 2524.97 353.227 2525.97 352.886C2526.96 352.531 2527.82 352.006 2528.54 351.31C2529.27 350.614 2529.82 349.754 2530.21 348.732L2536.24 349.818C2535.75 351.594 2534.89 353.149 2533.64 354.484C2532.4 355.805 2530.84 356.835 2528.97 357.574C2527.11 358.298 2524.99 358.661 2522.6 358.661ZM2543.71 358V325.273H2549.87V330.472H2550.21C2550.8 328.71 2551.85 327.325 2553.36 326.317C2554.88 325.294 2556.6 324.783 2558.52 324.783C2558.91 324.783 2559.38 324.797 2559.92 324.825C2560.48 324.854 2560.91 324.889 2561.22 324.932V331.026C2560.97 330.955 2560.51 330.876 2559.86 330.791C2559.21 330.692 2558.55 330.642 2557.9 330.642C2556.39 330.642 2555.05 330.962 2553.87 331.601C2552.71 332.226 2551.78 333.099 2551.1 334.222C2550.42 335.33 2550.08 336.594 2550.08 338.014V358H2543.71ZM2595.73 325.273L2583.86 358H2577.04L2565.15 325.273H2571.99L2580.28 350.457H2580.62L2588.89 325.273H2595.73ZM2601.72 358V325.273H2608.09V358H2601.72ZM2604.93 320.223C2603.83 320.223 2602.87 319.854 2602.08 319.115C2601.3 318.362 2600.91 317.467 2600.91 316.43C2600.91 315.379 2601.3 314.484 2602.08 313.746C2602.87 312.993 2603.83 312.616 2604.93 312.616C2606.04 312.616 2606.99 312.993 2607.77 313.746C2608.56 314.484 2608.96 315.379 2608.96 316.43C2608.96 317.467 2608.56 318.362 2607.77 319.115C2606.99 319.854 2606.04 320.223 2604.93 320.223ZM2630.44 358.661C2627.28 358.661 2624.55 357.943 2622.26 356.509C2619.99 355.06 2618.24 353.064 2617.02 350.521C2615.8 347.979 2615.19 345.067 2615.19 341.786C2615.19 338.462 2615.81 335.528 2617.06 332.986C2618.31 330.429 2620.07 328.433 2622.35 326.999C2624.62 325.564 2627.3 324.847 2630.38 324.847C2632.87 324.847 2635.08 325.308 2637.03 326.232C2638.97 327.141 2640.54 328.419 2641.74 330.067C2642.94 331.714 2643.66 333.639 2643.89 335.841H2637.69C2637.35 334.307 2636.57 332.986 2635.34 331.878C2634.14 330.77 2632.52 330.216 2630.49 330.216C2628.71 330.216 2627.15 330.685 2625.82 331.622C2624.5 332.545 2623.47 333.866 2622.73 335.585C2621.99 337.29 2621.62 339.307 2621.62 341.636C2621.62 344.023 2621.98 346.082 2622.71 347.815C2623.43 349.548 2624.46 350.891 2625.78 351.842C2627.11 352.794 2628.68 353.27 2630.49 353.27C2631.69 353.27 2632.79 353.05 2633.77 352.609C2634.76 352.155 2635.59 351.509 2636.26 350.67C2636.94 349.832 2637.42 348.824 2637.69 347.645H2643.89C2643.66 349.761 2642.97 351.651 2641.82 353.312C2640.67 354.974 2639.13 356.281 2637.2 357.233C2635.28 358.185 2633.03 358.661 2630.44 358.661ZM2664.81 358.661C2661.58 358.661 2658.8 357.972 2656.47 356.594C2654.16 355.202 2652.37 353.249 2651.11 350.734C2649.86 348.206 2649.23 345.244 2649.23 341.849C2649.23 338.497 2649.86 335.543 2651.11 332.986C2652.37 330.429 2654.13 328.433 2656.39 326.999C2658.66 325.564 2661.32 324.847 2664.36 324.847C2666.2 324.847 2667.99 325.152 2669.73 325.763C2671.46 326.374 2673.02 327.332 2674.39 328.639C2675.77 329.946 2676.86 331.643 2677.65 333.732C2678.45 335.805 2678.85 338.327 2678.85 341.295V343.554H2652.83V338.781H2672.6C2672.6 337.105 2672.26 335.621 2671.58 334.328C2670.9 333.021 2669.94 331.991 2668.7 331.239C2667.48 330.486 2666.05 330.109 2664.4 330.109C2662.61 330.109 2661.05 330.55 2659.71 331.43C2658.39 332.297 2657.37 333.433 2656.65 334.839C2655.94 336.232 2655.58 337.744 2655.58 339.378V343.107C2655.58 345.294 2655.96 347.155 2656.73 348.689C2657.51 350.223 2658.6 351.395 2659.99 352.205C2661.38 353 2663.01 353.398 2664.87 353.398C2666.08 353.398 2667.18 353.227 2668.17 352.886C2669.17 352.531 2670.03 352.006 2670.75 351.31C2671.47 350.614 2672.03 349.754 2672.41 348.732L2678.44 349.818C2677.96 351.594 2677.09 353.149 2675.84 354.484C2674.61 355.805 2673.05 356.835 2671.18 357.574C2669.32 358.298 2667.19 358.661 2664.81 358.661Z" fill="#2C2C2C"/>
<rect x="3008" y="115" width="688" height="320" rx="45" fill="#EFF2FE"/>
<rect x="3008" y="115" width="688" height="320" rx="45" stroke="#2259C9" stroke-width="10"/>
<path d="M3190.39 266.188H3177.95C3177.72 264.578 3177.26 263.148 3176.56 261.898C3175.86 260.629 3174.96 259.549 3173.86 258.659C3172.76 257.769 3171.49 257.087 3170.05 256.614C3168.63 256.14 3167.09 255.903 3165.42 255.903C3162.41 255.903 3159.79 256.652 3157.55 258.148C3155.32 259.625 3153.58 261.784 3152.35 264.625C3151.12 267.447 3150.51 270.875 3150.51 274.909C3150.51 279.057 3151.12 282.542 3152.35 285.364C3153.6 288.186 3155.34 290.316 3157.58 291.756C3159.81 293.195 3162.4 293.915 3165.34 293.915C3166.98 293.915 3168.51 293.697 3169.91 293.261C3171.33 292.826 3172.59 292.191 3173.69 291.358C3174.79 290.506 3175.7 289.473 3176.41 288.261C3177.15 287.049 3177.66 285.667 3177.95 284.114L3190.39 284.17C3190.07 286.841 3189.27 289.417 3187.98 291.898C3186.71 294.36 3184.99 296.566 3182.84 298.517C3180.7 300.449 3178.14 301.983 3175.16 303.119C3172.21 304.237 3168.87 304.795 3165.14 304.795C3159.95 304.795 3155.31 303.621 3151.22 301.273C3147.14 298.924 3143.92 295.525 3141.56 291.074C3139.21 286.623 3138.03 281.235 3138.03 274.909C3138.03 268.564 3139.23 263.167 3141.61 258.716C3144 254.265 3147.24 250.875 3151.33 248.545C3155.42 246.197 3160.02 245.023 3165.14 245.023C3168.51 245.023 3171.63 245.496 3174.51 246.443C3177.41 247.39 3179.98 248.773 3182.21 250.591C3184.45 252.39 3186.26 254.597 3187.66 257.21C3189.09 259.824 3189.99 262.816 3190.39 266.188ZM3230.78 262.551C3230.55 260.259 3229.57 258.479 3227.85 257.21C3226.13 255.941 3223.79 255.307 3220.83 255.307C3218.82 255.307 3217.13 255.591 3215.75 256.159C3214.36 256.708 3213.3 257.475 3212.57 258.46C3211.85 259.445 3211.49 260.562 3211.49 261.812C3211.45 262.854 3211.67 263.763 3212.14 264.54C3212.63 265.316 3213.3 265.989 3214.16 266.557C3215.01 267.106 3215.99 267.589 3217.11 268.006C3218.23 268.403 3219.42 268.744 3220.69 269.028L3225.92 270.278C3228.46 270.847 3230.79 271.604 3232.91 272.551C3235.03 273.498 3236.86 274.663 3238.42 276.045C3239.97 277.428 3241.17 279.057 3242.03 280.932C3242.9 282.807 3243.34 284.956 3243.36 287.381C3243.34 290.941 3242.43 294.028 3240.63 296.642C3238.85 299.237 3236.28 301.254 3232.91 302.693C3229.55 304.114 3225.51 304.824 3220.78 304.824C3216.08 304.824 3211.99 304.104 3208.5 302.665C3205.04 301.225 3202.33 299.095 3200.38 296.273C3198.45 293.432 3197.43 289.919 3197.34 285.733H3209.24C3209.37 287.684 3209.93 289.312 3210.92 290.619C3211.92 291.907 3213.26 292.883 3214.92 293.545C3216.61 294.189 3218.51 294.511 3220.63 294.511C3222.72 294.511 3224.53 294.208 3226.06 293.602C3227.61 292.996 3228.82 292.153 3229.67 291.074C3230.52 289.994 3230.95 288.754 3230.95 287.352C3230.95 286.045 3230.56 284.947 3229.78 284.057C3229.02 283.167 3227.91 282.409 3226.43 281.784C3224.97 281.159 3223.18 280.591 3221.06 280.08L3214.72 278.489C3209.82 277.295 3205.95 275.43 3203.11 272.892C3200.26 270.354 3198.85 266.936 3198.87 262.636C3198.85 259.114 3199.79 256.036 3201.68 253.403C3203.6 250.771 3206.22 248.716 3209.55 247.239C3212.89 245.761 3216.68 245.023 3220.92 245.023C3225.24 245.023 3229 245.761 3232.22 247.239C3235.46 248.716 3237.98 250.771 3239.78 253.403C3241.58 256.036 3242.51 259.085 3242.57 262.551H3230.78ZM3262.15 245.818L3276.21 290.023H3276.75L3290.84 245.818H3304.48L3284.42 304H3268.57L3248.48 245.818H3262.15ZM3329.77 304V260.364H3341.5V267.977H3341.95C3342.75 265.269 3344.09 263.223 3345.96 261.841C3347.84 260.439 3349.99 259.739 3352.44 259.739C3353.04 259.739 3353.7 259.777 3354.4 259.852C3355.1 259.928 3355.71 260.032 3356.24 260.165V270.903C3355.68 270.733 3354.89 270.581 3353.89 270.449C3352.88 270.316 3351.96 270.25 3351.13 270.25C3349.35 270.25 3347.76 270.638 3346.36 271.415C3344.98 272.172 3343.88 273.233 3343.06 274.597C3342.27 275.96 3341.87 277.532 3341.87 279.312V304H3329.77ZM3380.36 304.852C3375.87 304.852 3372 303.943 3368.77 302.125C3365.55 300.288 3363.06 297.693 3361.32 294.341C3359.58 290.97 3358.71 286.983 3358.71 282.381C3358.71 277.892 3359.58 273.953 3361.32 270.562C3363.06 267.172 3365.52 264.53 3368.68 262.636C3371.86 260.742 3375.59 259.795 3379.87 259.795C3382.75 259.795 3385.43 260.259 3387.91 261.188C3390.41 262.097 3392.59 263.47 3394.45 265.307C3396.32 267.144 3397.78 269.455 3398.82 272.239C3399.86 275.004 3400.38 278.242 3400.38 281.955V285.278H3363.54V277.778H3388.99C3388.99 276.036 3388.61 274.492 3387.86 273.148C3387.1 271.803 3386.05 270.752 3384.7 269.994C3383.38 269.218 3381.83 268.83 3380.07 268.83C3378.24 268.83 3376.61 269.256 3375.19 270.108C3373.78 270.941 3372.69 272.068 3371.89 273.489C3371.1 274.89 3370.69 276.453 3370.67 278.176V285.307C3370.67 287.466 3371.07 289.331 3371.86 290.903C3372.68 292.475 3373.82 293.688 3375.3 294.54C3376.78 295.392 3378.53 295.818 3380.56 295.818C3381.9 295.818 3383.13 295.629 3384.25 295.25C3385.37 294.871 3386.32 294.303 3387.12 293.545C3387.91 292.788 3388.52 291.86 3388.94 290.761L3400.13 291.5C3399.56 294.189 3398.4 296.538 3396.63 298.545C3394.89 300.534 3392.64 302.087 3389.87 303.205C3387.13 304.303 3383.96 304.852 3380.36 304.852ZM3408.28 320.364V260.364H3420.21V267.693H3420.75C3421.28 266.519 3422.05 265.326 3423.06 264.114C3424.08 262.883 3425.4 261.86 3427.03 261.045C3428.68 260.212 3430.73 259.795 3433.17 259.795C3436.35 259.795 3439.29 260.629 3441.98 262.295C3444.67 263.943 3446.81 266.434 3448.42 269.767C3450.03 273.081 3450.84 277.239 3450.84 282.239C3450.84 287.106 3450.05 291.216 3448.48 294.568C3446.93 297.902 3444.81 300.43 3442.12 302.153C3439.45 303.858 3436.46 304.71 3433.14 304.71C3430.79 304.71 3428.79 304.322 3427.15 303.545C3425.52 302.769 3424.18 301.794 3423.14 300.619C3422.1 299.426 3421.3 298.223 3420.75 297.011H3420.38V320.364H3408.28ZM3420.13 282.182C3420.13 284.777 3420.49 287.04 3421.21 288.972C3421.93 290.903 3422.97 292.409 3424.33 293.489C3425.7 294.549 3427.35 295.08 3429.31 295.08C3431.28 295.08 3432.94 294.54 3434.31 293.46C3435.67 292.362 3436.7 290.847 3437.4 288.915C3438.12 286.964 3438.48 284.72 3438.48 282.182C3438.48 279.663 3438.13 277.447 3437.43 275.534C3436.73 273.621 3435.7 272.125 3434.33 271.045C3432.97 269.966 3431.29 269.426 3429.31 269.426C3427.34 269.426 3425.67 269.947 3424.31 270.989C3422.96 272.03 3421.93 273.508 3421.21 275.42C3420.49 277.333 3420.13 279.587 3420.13 282.182ZM3478.62 304.852C3474.21 304.852 3470.39 303.915 3467.17 302.04C3463.97 300.146 3461.5 297.513 3459.76 294.142C3458.02 290.752 3457.15 286.822 3457.15 282.352C3457.15 277.845 3458.02 273.905 3459.76 270.534C3461.5 267.144 3463.97 264.511 3467.17 262.636C3470.39 260.742 3474.21 259.795 3478.62 259.795C3483.04 259.795 3486.84 260.742 3490.04 262.636C3493.26 264.511 3495.74 267.144 3497.49 270.534C3499.23 273.905 3500.1 277.845 3500.1 282.352C3500.1 286.822 3499.23 290.752 3497.49 294.142C3495.74 297.513 3493.26 300.146 3490.04 302.04C3486.84 303.915 3483.04 304.852 3478.62 304.852ZM3478.68 295.477C3480.69 295.477 3482.36 294.909 3483.71 293.773C3485.05 292.617 3486.07 291.045 3486.75 289.057C3487.45 287.068 3487.8 284.805 3487.8 282.267C3487.8 279.729 3487.45 277.466 3486.75 275.477C3486.07 273.489 3485.05 271.917 3483.71 270.761C3482.36 269.606 3480.69 269.028 3478.68 269.028C3476.65 269.028 3474.95 269.606 3473.57 270.761C3472.2 271.917 3471.17 273.489 3470.47 275.477C3469.79 277.466 3469.45 279.729 3469.45 282.267C3469.45 284.805 3469.79 287.068 3470.47 289.057C3471.17 291.045 3472.2 292.617 3473.57 293.773C3474.95 294.909 3476.65 295.477 3478.68 295.477ZM3507.97 304V260.364H3519.7V267.977H3520.16C3520.95 265.269 3522.29 263.223 3524.16 261.841C3526.04 260.439 3528.2 259.739 3530.64 259.739C3531.25 259.739 3531.9 259.777 3532.6 259.852C3533.3 259.928 3533.92 260.032 3534.45 260.165V270.903C3533.88 270.733 3533.09 270.581 3532.09 270.449C3531.09 270.316 3530.17 270.25 3529.33 270.25C3527.55 270.25 3525.96 270.638 3524.56 271.415C3523.18 272.172 3522.08 273.233 3521.27 274.597C3520.47 275.96 3520.07 277.532 3520.07 279.312V304H3507.97ZM3566.1 260.364V269.455H3539.82V260.364H3566.1ZM3545.79 249.909H3557.89V290.591C3557.89 291.708 3558.06 292.58 3558.4 293.205C3558.74 293.811 3559.22 294.237 3559.82 294.483C3560.45 294.729 3561.17 294.852 3561.98 294.852C3562.55 294.852 3563.12 294.805 3563.69 294.71C3564.26 294.597 3564.69 294.511 3564.99 294.455L3566.9 303.46C3566.29 303.65 3565.44 303.867 3564.34 304.114C3563.24 304.379 3561.91 304.54 3560.34 304.597C3557.42 304.71 3554.86 304.322 3552.66 303.432C3550.49 302.542 3548.79 301.159 3547.58 299.284C3546.37 297.409 3545.77 295.042 3545.79 292.182V249.909Z" fill="#2C2C2C"/>
<rect x="3900" y="734" width="722" height="320" rx="45" fill="#FCEDEC"/>
<rect x="3900" y="734" width="722" height="320" rx="45" stroke="#2259C9" stroke-width="10" stroke-dasharray="20 20"/>
<path d="M3953.12 819.818H3968.29L3984.31 858.909H3984.99L4001.02 819.818H4016.19V878H4004.26V840.131H4003.77L3988.72 877.716H3980.59L3965.53 839.989H3965.05V878H3953.12V819.818ZM4038.54 878.824C4035.75 878.824 4033.27 878.341 4031.1 877.375C4028.92 876.39 4027.19 874.941 4025.92 873.028C4024.67 871.097 4024.05 868.691 4024.05 865.812C4024.05 863.388 4024.49 861.352 4025.38 859.705C4026.28 858.057 4027.49 856.731 4029.02 855.727C4030.56 854.723 4032.3 853.966 4034.25 853.455C4036.22 852.943 4038.28 852.583 4040.44 852.375C4042.98 852.11 4045.03 851.864 4046.58 851.636C4048.13 851.39 4049.26 851.03 4049.96 850.557C4050.66 850.083 4051.01 849.383 4051.01 848.455V848.284C4051.01 846.485 4050.44 845.093 4049.31 844.108C4048.19 843.123 4046.6 842.631 4044.53 842.631C4042.35 842.631 4040.62 843.114 4039.33 844.08C4038.05 845.027 4037.19 846.22 4036.78 847.659L4025.58 846.75C4026.15 844.098 4027.27 841.807 4028.94 839.875C4030.6 837.924 4032.75 836.428 4035.38 835.386C4038.04 834.326 4041.1 833.795 4044.59 833.795C4047.01 833.795 4049.33 834.08 4051.55 834.648C4053.78 835.216 4055.76 836.097 4057.49 837.29C4059.23 838.483 4060.6 840.017 4061.61 841.892C4062.61 843.748 4063.11 845.973 4063.11 848.568V878H4051.63V871.949H4051.29C4050.59 873.312 4049.66 874.515 4048.48 875.557C4047.31 876.58 4045.9 877.384 4044.25 877.972C4042.6 878.54 4040.7 878.824 4038.54 878.824ZM4042 870.472C4043.78 870.472 4045.36 870.121 4046.72 869.42C4048.08 868.701 4049.15 867.735 4049.93 866.523C4050.71 865.311 4051.1 863.937 4051.1 862.403V857.773C4050.72 858.019 4050.2 858.246 4049.53 858.455C4048.89 858.644 4048.16 858.824 4047.35 858.994C4046.53 859.146 4045.72 859.288 4044.9 859.42C4044.09 859.534 4043.35 859.638 4042.69 859.733C4041.27 859.941 4040.03 860.273 4038.96 860.727C4037.9 861.182 4037.08 861.797 4036.49 862.574C4035.91 863.331 4035.61 864.278 4035.61 865.415C4035.61 867.062 4036.21 868.322 4037.4 869.193C4038.61 870.045 4040.15 870.472 4042 870.472ZM4084.6 852.773V878H4072.5V834.364H4084.04V842.062H4084.55C4085.51 839.525 4087.13 837.517 4089.4 836.04C4091.68 834.544 4094.43 833.795 4097.67 833.795C4100.7 833.795 4103.34 834.458 4105.6 835.784C4107.85 837.11 4109.6 839.004 4110.85 841.466C4112.1 843.909 4112.73 846.826 4112.73 850.216V878H4100.63V852.375C4100.65 849.705 4099.96 847.621 4098.58 846.125C4097.2 844.61 4095.29 843.852 4092.87 843.852C4091.24 843.852 4089.8 844.203 4088.55 844.903C4087.32 845.604 4086.36 846.627 4085.65 847.972C4084.97 849.297 4084.62 850.898 4084.6 852.773ZM4150.25 859.42V834.364H4162.35V878H4150.73V870.074H4150.28C4149.29 872.631 4147.66 874.686 4145.36 876.239C4143.09 877.792 4140.32 878.568 4137.04 878.568C4134.12 878.568 4131.56 877.905 4129.34 876.58C4127.13 875.254 4125.39 873.369 4124.14 870.926C4122.91 868.483 4122.29 865.557 4122.27 862.148V834.364H4134.37V859.989C4134.39 862.564 4135.08 864.6 4136.44 866.097C4137.81 867.593 4139.63 868.341 4141.93 868.341C4143.38 868.341 4144.75 868.009 4146.02 867.347C4147.29 866.665 4148.31 865.661 4149.09 864.335C4149.88 863.009 4150.27 861.371 4150.25 859.42ZM4184.48 878.824C4181.69 878.824 4179.21 878.341 4177.03 877.375C4174.85 876.39 4173.13 874.941 4171.86 873.028C4170.61 871.097 4169.99 868.691 4169.99 865.812C4169.99 863.388 4170.43 861.352 4171.32 859.705C4172.21 858.057 4173.42 856.731 4174.96 855.727C4176.49 854.723 4178.24 853.966 4180.19 853.455C4182.16 852.943 4184.22 852.583 4186.38 852.375C4188.92 852.11 4190.96 851.864 4192.52 851.636C4194.07 851.39 4195.2 851.03 4195.9 850.557C4196.6 850.083 4196.95 849.383 4196.95 848.455V848.284C4196.95 846.485 4196.38 845.093 4195.24 844.108C4194.13 843.123 4192.53 842.631 4190.47 842.631C4188.29 842.631 4186.56 843.114 4185.27 844.08C4183.98 845.027 4183.13 846.22 4182.71 847.659L4171.52 846.75C4172.09 844.098 4173.21 841.807 4174.87 839.875C4176.54 837.924 4178.69 836.428 4181.32 835.386C4183.97 834.326 4187.04 833.795 4190.53 833.795C4192.95 833.795 4195.27 834.08 4197.49 834.648C4199.72 835.216 4201.7 836.097 4203.42 837.29C4205.17 838.483 4206.54 840.017 4207.54 841.892C4208.55 843.748 4209.05 845.973 4209.05 848.568V878H4197.57V871.949H4197.23C4196.53 873.312 4195.59 874.515 4194.42 875.557C4193.24 876.58 4191.83 877.384 4190.19 877.972C4188.54 878.54 4186.63 878.824 4184.48 878.824ZM4187.94 870.472C4189.72 870.472 4191.29 870.121 4192.66 869.42C4194.02 868.701 4195.09 867.735 4195.87 866.523C4196.64 865.311 4197.03 863.937 4197.03 862.403V857.773C4196.65 858.019 4196.13 858.246 4195.47 858.455C4194.83 858.644 4194.1 858.824 4193.28 858.994C4192.47 859.146 4191.65 859.288 4190.84 859.42C4190.03 859.534 4189.29 859.638 4188.62 859.733C4187.2 859.941 4185.96 860.273 4184.9 860.727C4183.84 861.182 4183.02 861.797 4182.43 862.574C4181.84 863.331 4181.55 864.278 4181.55 865.415C4181.55 867.062 4182.15 868.322 4183.34 869.193C4184.55 870.045 4186.09 870.472 4187.94 870.472ZM4230.54 819.818V878H4218.44V819.818H4230.54ZM4286.73 859.42V834.364H4298.84V878H4287.22V870.074H4286.76C4285.78 872.631 4284.14 874.686 4281.85 876.239C4279.58 877.792 4276.8 878.568 4273.52 878.568C4270.61 878.568 4268.04 877.905 4265.83 876.58C4263.61 875.254 4261.88 873.369 4260.63 870.926C4259.4 868.483 4258.77 865.557 4258.75 862.148V834.364H4270.85V859.989C4270.87 862.564 4271.56 864.6 4272.93 866.097C4274.29 867.593 4276.12 868.341 4278.41 868.341C4279.87 868.341 4281.23 868.009 4282.5 867.347C4283.77 866.665 4284.79 865.661 4285.57 864.335C4286.37 863.009 4286.75 861.371 4286.73 859.42ZM4308.52 894.364V834.364H4320.45V841.693H4320.99C4321.52 840.519 4322.29 839.326 4323.29 838.114C4324.31 836.883 4325.64 835.86 4327.27 835.045C4328.91 834.212 4330.96 833.795 4333.4 833.795C4336.59 833.795 4339.52 834.629 4342.21 836.295C4344.9 837.943 4347.05 840.434 4348.66 843.767C4350.27 847.081 4351.07 851.239 4351.07 856.239C4351.07 861.106 4350.29 865.216 4348.72 868.568C4347.16 871.902 4345.04 874.43 4342.35 876.153C4339.68 877.858 4336.69 878.71 4333.38 878.71C4331.03 878.71 4329.03 878.322 4327.38 877.545C4325.75 876.769 4324.42 875.794 4323.38 874.619C4322.33 873.426 4321.54 872.223 4320.99 871.011H4320.62V894.364H4308.52ZM4320.36 856.182C4320.36 858.777 4320.72 861.04 4321.44 862.972C4322.16 864.903 4323.2 866.409 4324.57 867.489C4325.93 868.549 4327.59 869.08 4329.54 869.08C4331.51 869.08 4333.18 868.54 4334.54 867.46C4335.9 866.362 4336.94 864.847 4337.64 862.915C4338.36 860.964 4338.72 858.72 4338.72 856.182C4338.72 853.663 4338.37 851.447 4337.66 849.534C4336.96 847.621 4335.93 846.125 4334.57 845.045C4333.2 843.966 4331.53 843.426 4329.54 843.426C4327.57 843.426 4325.9 843.947 4324.54 844.989C4323.2 846.03 4322.16 847.508 4321.44 849.42C4320.72 851.333 4320.36 853.587 4320.36 856.182ZM4375.22 878.71C4371.91 878.71 4368.91 877.858 4366.22 876.153C4363.55 874.43 4361.42 871.902 4359.85 868.568C4358.3 865.216 4357.52 861.106 4357.52 856.239C4357.52 851.239 4358.33 847.081 4359.94 843.767C4361.55 840.434 4363.69 837.943 4366.36 836.295C4369.05 834.629 4371.99 833.795 4375.19 833.795C4377.64 833.795 4379.67 834.212 4381.3 835.045C4382.95 835.86 4384.27 836.883 4385.28 838.114C4386.3 839.326 4387.08 840.519 4387.61 841.693H4387.98V819.818H4400.05V878H4388.12V871.011H4387.61C4387.04 872.223 4386.23 873.426 4385.19 874.619C4384.17 875.794 4382.84 876.769 4381.19 877.545C4379.56 878.322 4377.57 878.71 4375.22 878.71ZM4379.06 869.08C4381.01 869.08 4382.66 868.549 4384 867.489C4385.36 866.409 4386.41 864.903 4387.12 862.972C4387.86 861.04 4388.23 858.777 4388.23 856.182C4388.23 853.587 4387.87 851.333 4387.15 849.42C4386.43 847.508 4385.39 846.03 4384.03 844.989C4382.66 843.947 4381.01 843.426 4379.06 843.426C4377.07 843.426 4375.39 843.966 4374.03 845.045C4372.66 846.125 4371.63 847.621 4370.93 849.534C4370.23 851.447 4369.88 853.663 4369.88 856.182C4369.88 858.72 4370.23 860.964 4370.93 862.915C4371.65 864.847 4372.68 866.362 4374.03 867.46C4375.39 868.54 4377.07 869.08 4379.06 869.08ZM4422.44 878.824C4419.66 878.824 4417.18 878.341 4415 877.375C4412.82 876.39 4411.1 874.941 4409.83 873.028C4408.58 871.097 4407.96 868.691 4407.96 865.812C4407.96 863.388 4408.4 861.352 4409.29 859.705C4410.18 858.057 4411.39 856.731 4412.93 855.727C4414.46 854.723 4416.2 853.966 4418.15 853.455C4420.12 852.943 4422.19 852.583 4424.35 852.375C4426.89 852.11 4428.93 851.864 4430.48 851.636C4432.04 851.39 4433.16 851.03 4433.87 850.557C4434.57 850.083 4434.92 849.383 4434.92 848.455V848.284C4434.92 846.485 4434.35 845.093 4433.21 844.108C4432.09 843.123 4430.5 842.631 4428.44 842.631C4426.26 842.631 4424.53 843.114 4423.24 844.08C4421.95 845.027 4421.1 846.22 4420.68 847.659L4409.49 846.75C4410.06 844.098 4411.18 841.807 4412.84 839.875C4414.51 837.924 4416.66 836.428 4419.29 835.386C4421.94 834.326 4425.01 833.795 4428.5 833.795C4430.92 833.795 4433.24 834.08 4435.46 834.648C4437.69 835.216 4439.67 836.097 4441.39 837.29C4443.14 838.483 4444.51 840.017 4445.51 841.892C4446.52 843.748 4447.02 845.973 4447.02 848.568V878H4435.54V871.949H4435.2C4434.5 873.312 4433.56 874.515 4432.39 875.557C4431.21 876.58 4429.8 877.384 4428.15 877.972C4426.51 878.54 4424.6 878.824 4422.44 878.824ZM4425.91 870.472C4427.69 870.472 4429.26 870.121 4430.63 869.42C4431.99 868.701 4433.06 867.735 4433.84 866.523C4434.61 865.311 4435 863.937 4435 862.403V857.773C4434.62 858.019 4434.1 858.246 4433.44 858.455C4432.79 858.644 4432.07 858.824 4431.25 858.994C4430.44 859.146 4429.62 859.288 4428.81 859.42C4427.99 859.534 4427.26 859.638 4426.59 859.733C4425.17 859.941 4423.93 860.273 4422.87 860.727C4421.81 861.182 4420.99 861.797 4420.4 862.574C4419.81 863.331 4419.52 864.278 4419.52 865.415C4419.52 867.062 4420.12 868.322 4421.31 869.193C4422.52 870.045 4424.05 870.472 4425.91 870.472ZM4479.62 834.364V843.455H4453.34V834.364H4479.62ZM4459.31 823.909H4471.41V864.591C4471.41 865.708 4471.58 866.58 4471.92 867.205C4472.26 867.811 4472.73 868.237 4473.34 868.483C4473.96 868.729 4474.68 868.852 4475.5 868.852C4476.07 868.852 4476.63 868.805 4477.2 868.71C4477.77 868.597 4478.21 868.511 4478.51 868.455L4480.41 877.46C4479.81 877.65 4478.96 877.867 4477.86 878.114C4476.76 878.379 4475.42 878.54 4473.85 878.597C4470.93 878.71 4468.38 878.322 4466.18 877.432C4464 876.542 4462.31 875.159 4461.1 873.284C4459.88 871.409 4459.29 869.042 4459.31 866.182V823.909ZM4506.92 878.852C4502.43 878.852 4498.57 877.943 4495.33 876.125C4492.11 874.288 4489.63 871.693 4487.88 868.341C4486.14 864.97 4485.27 860.983 4485.27 856.381C4485.27 851.892 4486.14 847.953 4487.88 844.562C4489.63 841.172 4492.08 838.53 4495.24 836.636C4498.42 834.742 4502.16 833.795 4506.44 833.795C4509.31 833.795 4511.99 834.259 4514.48 835.188C4516.98 836.097 4519.15 837.47 4521.01 839.307C4522.88 841.144 4524.34 843.455 4525.38 846.239C4526.43 849.004 4526.95 852.242 4526.95 855.955V859.278H4490.1V851.778H4515.56C4515.56 850.036 4515.18 848.492 4514.42 847.148C4513.66 845.803 4512.61 844.752 4511.27 843.994C4509.94 843.218 4508.4 842.83 4506.63 842.83C4504.8 842.83 4503.17 843.256 4501.75 844.108C4500.35 844.941 4499.25 846.068 4498.45 847.489C4497.66 848.89 4497.25 850.453 4497.23 852.176V859.307C4497.23 861.466 4497.63 863.331 4498.42 864.903C4499.24 866.475 4500.38 867.688 4501.86 868.54C4503.34 869.392 4505.09 869.818 4507.12 869.818C4508.46 869.818 4509.69 869.629 4510.81 869.25C4511.93 868.871 4512.88 868.303 4513.68 867.545C4514.48 866.788 4515.08 865.86 4515.5 864.761L4526.69 865.5C4526.12 868.189 4524.96 870.538 4523.2 872.545C4521.46 874.534 4519.2 876.087 4516.44 877.205C4513.69 878.303 4510.52 878.852 4506.92 878.852ZM4571.15 846.807L4560.07 847.489C4559.88 846.542 4559.48 845.689 4558.85 844.932C4558.23 844.155 4557.4 843.54 4556.38 843.085C4555.38 842.612 4554.17 842.375 4552.77 842.375C4550.9 842.375 4549.31 842.773 4548.03 843.568C4546.74 844.345 4546.1 845.386 4546.1 846.693C4546.1 847.735 4546.51 848.616 4547.35 849.335C4548.18 850.055 4549.61 850.633 4551.63 851.068L4559.53 852.659C4563.78 853.53 4566.94 854.932 4569.02 856.864C4571.1 858.795 4572.15 861.333 4572.15 864.477C4572.15 867.337 4571.3 869.847 4569.62 872.006C4567.95 874.165 4565.66 875.85 4562.74 877.062C4559.85 878.256 4556.5 878.852 4552.71 878.852C4546.94 878.852 4542.34 877.65 4538.91 875.244C4535.5 872.82 4533.5 869.525 4532.91 865.358L4544.82 864.733C4545.18 866.494 4546.05 867.839 4547.43 868.767C4548.81 869.676 4550.58 870.131 4552.74 870.131C4554.86 870.131 4556.57 869.723 4557.86 868.909C4559.16 868.076 4559.83 867.006 4559.85 865.699C4559.83 864.6 4559.36 863.701 4558.45 863C4557.54 862.28 4556.14 861.731 4554.25 861.352L4546.69 859.847C4542.43 858.994 4539.26 857.517 4537.17 855.415C4535.11 853.312 4534.08 850.633 4534.08 847.375C4534.08 844.572 4534.84 842.157 4536.35 840.131C4537.88 838.104 4540.03 836.542 4542.8 835.443C4545.58 834.345 4548.84 833.795 4552.57 833.795C4558.08 833.795 4562.42 834.96 4565.58 837.29C4568.77 839.619 4570.62 842.792 4571.15 846.807ZM4089.36 977H4082.38L4098.08 933.364H4105.69L4121.39 977H4114.4L4102.06 941.29H4101.72L4089.36 977ZM4090.54 959.912H4113.21V965.452H4090.54V959.912ZM4138.9 977.639C4136.26 977.639 4133.9 976.964 4131.83 975.615C4129.77 974.251 4128.15 972.312 4126.97 969.798C4125.81 967.27 4125.22 964.237 4125.22 960.7C4125.22 957.163 4125.81 954.138 4126.99 951.624C4128.19 949.109 4129.82 947.185 4131.89 945.849C4133.97 944.514 4136.32 943.847 4138.95 943.847C4140.98 943.847 4142.61 944.188 4143.85 944.869C4145.1 945.537 4146.06 946.318 4146.74 947.213C4147.44 948.108 4147.98 948.896 4148.36 949.578H4148.75V933.364H4155.12V977H4148.9V971.908H4148.36C4147.98 972.604 4147.43 973.399 4146.7 974.294C4145.99 975.189 4145.01 975.97 4143.76 976.638C4142.51 977.305 4140.89 977.639 4138.9 977.639ZM4140.31 972.206C4142.14 972.206 4143.69 971.723 4144.95 970.757C4146.23 969.777 4147.2 968.42 4147.85 966.688C4148.52 964.955 4148.85 962.937 4148.85 960.636C4148.85 958.364 4148.53 956.375 4147.87 954.67C4147.22 952.966 4146.26 951.638 4145 950.686C4143.73 949.734 4142.17 949.259 4140.31 949.259C4138.39 949.259 4136.79 949.756 4135.52 950.75C4134.24 951.744 4133.27 953.101 4132.62 954.82C4131.98 956.538 4131.66 958.477 4131.66 960.636C4131.66 962.824 4131.99 964.791 4132.64 966.538C4133.29 968.286 4134.26 969.67 4135.54 970.693C4136.83 971.702 4138.42 972.206 4140.31 972.206ZM4188.73 952.263L4182.96 953.286C4182.72 952.547 4182.34 951.844 4181.81 951.176C4181.3 950.509 4180.6 949.962 4179.72 949.536C4178.84 949.109 4177.74 948.896 4176.42 948.896C4174.62 948.896 4173.11 949.301 4171.9 950.111C4170.69 950.906 4170.09 951.936 4170.09 953.2C4170.09 954.294 4170.5 955.175 4171.31 955.842C4172.12 956.51 4173.42 957.057 4175.23 957.483L4180.42 958.676C4183.44 959.372 4185.68 960.445 4187.16 961.893C4188.64 963.342 4189.37 965.224 4189.37 967.54C4189.37 969.5 4188.81 971.247 4187.67 972.781C4186.55 974.301 4184.98 975.494 4182.96 976.361C4180.96 977.227 4178.64 977.661 4175.99 977.661C4172.33 977.661 4169.34 976.879 4167.02 975.317C4164.71 973.74 4163.29 971.503 4162.76 968.605L4168.92 967.668C4169.3 969.273 4170.09 970.487 4171.28 971.311C4172.48 972.121 4174.03 972.526 4175.95 972.526C4178.04 972.526 4179.71 972.092 4180.96 971.226C4182.21 970.345 4182.83 969.273 4182.83 968.009C4182.83 966.986 4182.45 966.126 4181.68 965.43C4180.93 964.734 4179.77 964.209 4178.21 963.854L4172.67 962.639C4169.62 961.943 4167.36 960.835 4165.89 959.315C4164.44 957.795 4163.72 955.871 4163.72 953.541C4163.72 951.609 4164.26 949.919 4165.34 948.47C4166.42 947.021 4167.91 945.892 4169.81 945.082C4171.72 944.259 4173.9 943.847 4176.36 943.847C4179.89 943.847 4182.68 944.614 4184.71 946.148C4186.74 947.668 4188.08 949.706 4188.73 952.263ZM4240.83 933.364H4247.43V962.064C4247.43 965.118 4246.72 967.824 4245.28 970.182C4243.85 972.526 4241.83 974.372 4239.23 975.722C4236.63 977.057 4233.59 977.724 4230.09 977.724C4226.61 977.724 4223.57 977.057 4220.97 975.722C4218.37 974.372 4216.36 972.526 4214.92 970.182C4213.49 967.824 4212.77 965.118 4212.77 962.064V933.364H4219.35V961.531C4219.35 963.506 4219.79 965.26 4220.65 966.794C4221.53 968.328 4222.78 969.536 4224.38 970.416C4225.99 971.283 4227.89 971.716 4230.09 971.716C4232.31 971.716 4234.22 971.283 4235.82 970.416C4237.44 969.536 4238.68 968.328 4239.53 966.794C4240.4 965.26 4240.83 963.506 4240.83 961.531V933.364ZM4263.59 933.364V977H4257.01V933.364H4263.59ZM4305.17 931.318L4291.1 983.562H4285.41L4299.48 931.318H4305.17ZM4364.87 955.182C4364.87 959.841 4364.02 963.847 4362.32 967.199C4360.61 970.537 4358.27 973.108 4355.31 974.912C4352.35 976.702 4348.99 977.597 4345.23 977.597C4341.45 977.597 4338.08 976.702 4335.11 974.912C4332.15 973.108 4329.82 970.53 4328.12 967.178C4326.41 963.825 4325.56 959.827 4325.56 955.182C4325.56 950.523 4326.41 946.524 4328.12 943.186C4329.82 939.834 4332.15 937.263 4335.11 935.473C4338.08 933.669 4341.45 932.767 4345.23 932.767C4348.99 932.767 4352.35 933.669 4355.31 935.473C4358.27 937.263 4360.61 939.834 4362.32 943.186C4364.02 946.524 4364.87 950.523 4364.87 955.182ZM4358.35 955.182C4358.35 951.631 4357.78 948.641 4356.63 946.212C4355.49 943.768 4353.93 941.922 4351.94 940.672C4349.97 939.408 4347.73 938.776 4345.23 938.776C4342.71 938.776 4340.47 939.408 4338.49 940.672C4336.52 941.922 4334.96 943.768 4333.81 946.212C4332.67 948.641 4332.1 951.631 4332.1 955.182C4332.1 958.733 4332.67 961.73 4333.81 964.173C4334.96 966.602 4336.52 968.449 4338.49 969.713C4340.47 970.963 4342.71 971.588 4345.23 971.588C4347.73 971.588 4349.97 970.963 4351.94 969.713C4353.93 968.449 4355.49 966.602 4356.63 964.173C4357.78 961.73 4358.35 958.733 4358.35 955.182ZM4373.08 977V933.364H4379.66V971.332H4399.44V977H4373.08ZM4411.53 933.364L4421.97 950.43H4422.31L4432.75 933.364H4440.38L4426.78 955.182L4440.46 977H4432.79L4422.31 960.168H4421.97L4411.49 977H4403.82L4417.73 955.182L4403.9 933.364H4411.53Z" fill="#2C2C2C"/>
<path d="M947.536 278.536C949.488 276.583 949.488 273.417 947.536 271.464L915.716 239.645C913.763 237.692 910.597 237.692 908.645 239.645C906.692 241.597 906.692 244.763 908.645 246.716L936.929 275L908.645 303.284C906.692 305.237 906.692 308.403 908.645 310.355C910.597 312.308 913.763 312.308 915.716 310.355L947.536 278.536ZM798 275V280H944V275V270H798V275Z" fill="#2259C9"/>
<path d="M1796.54 278.536C1798.49 276.583 1798.49 273.417 1796.54 271.464L1764.72 239.645C1762.76 237.692 1759.6 237.692 1757.64 239.645C1755.69 241.597 1755.69 244.763 1757.64 246.716L1785.93 275L1757.64 303.284C1755.69 305.237 1755.69 308.403 1757.64 310.355C1759.6 312.308 1762.76 312.308 1764.72 310.355L1796.54 278.536ZM1647 275V280H1793V275V270H1647V275Z" fill="#2259C9"/>
<path d="M3001.54 278.536C3003.49 276.583 3003.49 273.417 3001.54 271.464L2969.72 239.645C2967.76 237.692 2964.6 237.692 2962.64 239.645C2960.69 241.597 2960.69 244.763 2962.64 246.716L2990.93 275L2962.64 303.284C2960.69 305.237 2960.69 308.403 2962.64 310.355C2964.6 312.308 2967.76 312.308 2969.72 310.355L3001.54 278.536ZM2852 275V280H2998V275V270H2852V275Z" fill="#2259C9"/>
<path d="M4286.21 805.195C4288.81 804.25 4290.14 801.381 4289.2 798.786L4273.79 756.504C4272.85 753.91 4269.98 752.573 4267.39 753.518C4264.79 754.463 4263.45 757.333 4264.4 759.927L4278.09 797.511L4240.51 811.203C4237.91 812.148 4236.58 815.018 4237.52 817.612C4238.47 820.207 4241.34 821.544 4243.93 820.599L4286.21 805.195ZM3352 366.001L3349.89 370.533L3358.85 374.711L3360.97 370.179L3363.08 365.647L3354.11 361.469L3352 366.001ZM3378.9 378.535L3376.79 383.067L3394.72 391.422L3396.83 386.89L3398.94 382.358L3381.01 374.002L3378.9 378.535ZM3414.76 395.246L3412.65 399.778L3430.58 408.134L3432.7 403.602L3434.81 399.07L3416.88 390.714L3414.76 395.246ZM3450.63 411.957L3448.52 416.49L3466.45 424.845L3468.56 420.313L3470.67 415.781L3452.74 407.425L3450.63 411.957ZM3486.49 428.669L3484.38 433.201L3502.32 441.557L3504.43 437.025L3506.54 432.492L3488.61 424.137L3486.49 428.669ZM3522.36 445.38L3520.25 449.912L3538.18 458.268L3540.29 453.736L3542.4 449.204L3524.47 440.848L3522.36 445.38ZM3558.23 462.092L3556.11 466.624L3574.05 474.979L3576.16 470.447L3578.27 465.915L3560.34 457.559L3558.23 462.092ZM3594.09 478.803L3591.98 483.335L3609.91 491.691L3612.02 487.159L3614.14 482.627L3596.2 474.271L3594.09 478.803ZM3629.96 495.514L3627.84 500.047L3645.78 508.402L3647.89 503.87L3650 499.338L3632.07 490.982L3629.96 495.514ZM3665.82 512.226L3663.71 516.758L3681.64 525.114L3683.75 520.581L3685.87 516.049L3667.93 507.694L3665.82 512.226ZM3701.69 528.937L3699.58 533.469L3717.51 541.825L3719.62 537.293L3721.73 532.761L3703.8 524.405L3701.69 528.937ZM3737.55 545.649L3735.44 550.181L3753.37 558.536L3755.49 554.004L3757.6 549.472L3739.66 541.116L3737.55 545.649ZM3773.42 562.36L3771.31 566.892L3789.24 575.248L3791.35 570.716L3793.46 566.183L3775.53 557.828L3773.42 562.36ZM3809.28 579.071L3807.17 583.604L3825.1 591.959L3827.22 587.427L3829.33 582.895L3811.39 574.539L3809.28 579.071ZM3845.15 595.783L3843.04 600.315L3860.97 608.671L3863.08 604.138L3865.19 599.606L3847.26 591.251L3845.15 595.783ZM3881.01 612.494L3878.9 617.026L3896.83 625.382L3898.95 620.85L3901.06 616.318L3883.13 607.962L3881.01 612.494ZM3916.88 629.206L3914.77 633.738L3932.7 642.093L3934.81 637.561L3936.92 633.029L3918.99 624.673L3916.88 629.206ZM3952.74 645.917L3950.63 650.449L3968.57 658.805L3970.68 654.273L3972.79 649.74L3954.86 641.385L3952.74 645.917ZM3988.61 662.628L3986.5 667.16L4004.43 675.516L4006.54 670.984L4008.65 666.452L3990.72 658.096L3988.61 662.628ZM4024.48 679.34L4022.36 683.872L4040.3 692.228L4042.41 687.695L4044.52 683.163L4026.59 674.808L4024.48 679.34ZM4060.34 696.051L4058.23 700.583L4076.16 708.939L4078.27 704.407L4080.39 699.875L4062.45 691.519L4060.34 696.051ZM4096.21 712.762L4094.09 717.295L4112.03 725.65L4114.14 721.118L4116.25 716.586L4098.32 708.23L4096.21 712.762ZM4132.07 729.474L4129.96 734.006L4147.89 742.362L4150 737.83L4152.12 733.297L4134.18 724.942L4132.07 729.474ZM4167.94 746.185L4165.83 750.717L4183.76 759.073L4185.87 754.541L4187.98 750.009L4170.05 741.653L4167.94 746.185ZM4203.8 762.897L4201.69 767.429L4219.62 775.784L4221.74 771.252L4223.85 766.72L4205.91 758.364L4203.8 762.897ZM4239.67 779.608L4237.56 784.14L4255.49 792.496L4257.6 787.964L4259.71 783.432L4241.78 775.076L4239.67 779.608ZM4275.53 796.319L4273.42 800.852L4282.39 805.03L4284.5 800.497L4286.61 795.965L4277.65 791.787L4275.53 796.319ZM4286.21 805.195C4288.81 804.25 4290.14 801.381 4289.2 798.786L4273.79 756.504C4272.85 753.91 4269.98 752.573 4267.39 753.518C4264.79 754.463 4263.45 757.333 4264.4 759.927L4278.09 797.511L4240.51 811.203C4237.91 812.148 4236.58 815.018 4237.52 817.612C4238.47 820.207 4241.34 821.544 4243.93 820.599L4286.21 805.195ZM3352 366.001L3349.89 370.533L3358.85 374.711L3360.97 370.179L3363.08 365.647L3354.11 361.469L3352 366.001ZM3378.9 378.535L3376.79 383.067L3394.72 391.422L3396.83 386.89L3398.94 382.358L3381.01 374.002L3378.9 378.535ZM3414.76 395.246L3412.65 399.778L3430.58 408.134L3432.7 403.602L3434.81 399.07L3416.88 390.714L3414.76 395.246ZM3450.63 411.957L3448.52 416.49L3466.45 424.845L3468.56 420.313L3470.67 415.781L3452.74 407.425L3450.63 411.957ZM3486.49 428.669L3484.38 433.201L3502.32 441.557L3504.43 437.025L3506.54 432.492L3488.61 424.137L3486.49 428.669ZM3522.36 445.38L3520.25 449.912L3538.18 458.268L3540.29 453.736L3542.4 449.204L3524.47 440.848L3522.36 445.38ZM3558.23 462.092L3556.11 466.624L3574.05 474.979L3576.16 470.447L3578.27 465.915L3560.34 457.559L3558.23 462.092ZM3594.09 478.803L3591.98 483.335L3609.91 491.691L3612.02 487.159L3614.14 482.627L3596.2 474.271L3594.09 478.803ZM3629.96 495.514L3627.84 500.047L3645.78 508.402L3647.89 503.87L3650 499.338L3632.07 490.982L3629.96 495.514ZM3665.82 512.226L3663.71 516.758L3681.64 525.114L3683.75 520.581L3685.87 516.049L3667.93 507.694L3665.82 512.226ZM3701.69 528.937L3699.58 533.469L3717.51 541.825L3719.62 537.293L3721.73 532.761L3703.8 524.405L3701.69 528.937ZM3737.55 545.649L3735.44 550.181L3753.37 558.536L3755.49 554.004L3757.6 549.472L3739.66 541.116L3737.55 545.649ZM3773.42 562.36L3771.31 566.892L3789.24 575.248L3791.35 570.716L3793.46 566.183L3775.53 557.828L3773.42 562.36ZM3809.28 579.071L3807.17 583.604L3825.1 591.959L3827.22 587.427L3829.33 582.895L3811.39 574.539L3809.28 579.071ZM3845.15 595.783L3843.04 600.315L3860.97 608.671L3863.08 604.138L3865.19 599.606L3847.26 591.251L3845.15 595.783ZM3881.01 612.494L3878.9 617.026L3896.83 625.382L3898.95 620.85L3901.06 616.318L3883.13 607.962L3881.01 612.494ZM3916.88 629.206L3914.77 633.738L3932.7 642.093L3934.81 637.561L3936.92 633.029L3918.99 624.673L3916.88 629.206ZM3952.74 645.917L3950.63 650.449L3968.57 658.805L3970.68 654.273L3972.79 649.74L3954.86 641.385L3952.74 645.917ZM3988.61 662.628L3986.5 667.16L4004.43 675.516L4006.54 670.984L4008.65 666.452L3990.72 658.096L3988.61 662.628ZM4024.48 679.34L4022.36 683.872L4040.3 692.228L4042.41 687.695L4044.52 683.163L4026.59 674.808L4024.48 679.34ZM4060.34 696.051L4058.23 700.583L4076.16 708.939L4078.27 704.407L4080.39 699.875L4062.45 691.519L4060.34 696.051ZM4096.21 712.762L4094.09 717.295L4112.03 725.65L4114.14 721.118L4116.25 716.586L4098.32 708.23L4096.21 712.762ZM4132.07 729.474L4129.96 734.006L4147.89 742.362L4150 737.83L4152.12 733.297L4134.18 724.942L4132.07 729.474ZM4167.94 746.185L4165.83 750.717L4183.76 759.073L4185.87 754.541L4187.98 750.009L4170.05 741.653L4167.94 746.185ZM4203.8 762.897L4201.69 767.429L4219.62 775.784L4221.74 771.252L4223.85 766.72L4205.91 758.364L4203.8 762.897ZM4239.67 779.608L4237.56 784.14L4255.49 792.496L4257.6 787.964L4259.71 783.432L4241.78 775.076L4239.67 779.608ZM4275.53 796.319L4273.42 800.852L4282.39 805.03L4284.5 800.497L4286.61 795.965L4277.65 791.787L4275.53 796.319Z" fill="#2259C9"/>
</svg>
