<svg width="600" height="100" viewBox="0 0 600 100" fill="none" xmlns="http://www.w3.org/2000/svg">
<rect width="600" height="100" fill="white"/>
<path d="M325.158 71.2598L327.462 64.6016H328.344L325.213 73.1875C325.149 73.3561 325.067 73.543 324.967 73.748C324.871 73.9531 324.743 74.1491 324.584 74.3359C324.429 74.5273 324.233 74.6823 323.996 74.8008C323.764 74.9238 323.479 74.9854 323.142 74.9854C323.055 74.9854 322.943 74.974 322.807 74.9512C322.674 74.9329 322.579 74.9147 322.52 74.8965L322.513 74.2061C322.563 74.2197 322.636 74.2311 322.731 74.2402C322.827 74.2493 322.893 74.2539 322.93 74.2539C323.226 74.2539 323.474 74.2038 323.675 74.1035C323.88 74.0033 324.051 73.8529 324.188 73.6523C324.324 73.4564 324.445 73.2103 324.55 72.9141L325.158 71.2598ZM323.005 64.6016L325.363 70.9521L325.582 71.8066L324.987 72.1416L322.116 64.6016H323.005Z" fill="#585656"/>
<path d="M320.729 61.5V72H319.915V61.5H320.729Z" fill="#585656"/>
<path d="M312.936 66.1846V72.002H312.122V64.6055H312.901L312.936 66.1846ZM312.751 67.8457L312.389 67.6406C312.416 67.2031 312.505 66.793 312.655 66.4102C312.806 66.0273 313.008 65.6901 313.264 65.3984C313.523 65.1068 313.826 64.8789 314.173 64.7148C314.524 64.5508 314.911 64.4688 315.335 64.4688C315.704 64.4688 316.035 64.5189 316.326 64.6191C316.618 64.7194 316.866 64.8789 317.071 65.0977C317.276 65.3164 317.431 65.5967 317.536 65.9385C317.646 66.2803 317.7 66.6973 317.7 67.1895V72.002H316.88V67.1826C316.88 66.6722 316.809 66.2734 316.668 65.9863C316.527 65.6947 316.326 65.4873 316.066 65.3643C315.807 65.2412 315.499 65.1797 315.144 65.1797C314.752 65.1797 314.408 65.2663 314.111 65.4395C313.82 65.6081 313.574 65.8291 313.373 66.1025C313.177 66.3714 313.027 66.6608 312.922 66.9707C312.817 67.276 312.76 67.5677 312.751 67.8457Z" fill="#585656"/>
<path d="M303.823 68.4199V68.1943C303.823 67.6566 303.901 67.1598 304.056 66.7041C304.211 66.2484 304.432 65.8542 304.719 65.5215C305.01 65.1888 305.359 64.9313 305.765 64.749C306.17 64.5622 306.621 64.4688 307.118 64.4688C307.619 64.4688 308.073 64.5622 308.479 64.749C308.884 64.9313 309.233 65.1888 309.524 65.5215C309.816 65.8542 310.039 66.2484 310.194 66.7041C310.349 67.1598 310.427 67.6566 310.427 68.1943V68.4199C310.427 68.9577 310.349 69.4544 310.194 69.9102C310.039 70.3613 309.816 70.7533 309.524 71.0859C309.237 71.4186 308.891 71.6784 308.485 71.8652C308.08 72.0475 307.629 72.1387 307.132 72.1387C306.631 72.1387 306.177 72.0475 305.771 71.8652C305.366 71.6784 305.017 71.4186 304.726 71.0859C304.434 70.7533 304.211 70.3613 304.056 69.9102C303.901 69.4544 303.823 68.9577 303.823 68.4199ZM304.637 68.1943V68.4199C304.637 68.8255 304.691 69.2106 304.801 69.5752C304.91 69.9352 305.07 70.2565 305.279 70.5391C305.489 70.8171 305.749 71.0358 306.059 71.1953C306.368 71.3548 306.726 71.4346 307.132 71.4346C307.533 71.4346 307.886 71.3548 308.191 71.1953C308.501 71.0358 308.761 70.8171 308.971 70.5391C309.18 70.2565 309.338 69.9352 309.442 69.5752C309.552 69.2106 309.606 68.8255 309.606 68.4199V68.1943C309.606 67.7933 309.552 67.4128 309.442 67.0527C309.338 66.6927 309.178 66.3714 308.964 66.0889C308.754 65.8063 308.494 65.583 308.185 65.4189C307.875 65.2549 307.519 65.1729 307.118 65.1729C306.717 65.1729 306.362 65.2549 306.052 65.4189C305.746 65.583 305.487 65.8063 305.272 66.0889C305.063 66.3714 304.903 66.6927 304.794 67.0527C304.689 67.4128 304.637 67.7933 304.637 68.1943Z" fill="#585656"/>
<path d="M296.468 72.1387C295.985 72.1387 295.54 72.0498 295.135 71.8721C294.734 71.6943 294.383 71.4437 294.082 71.1201C293.786 70.7965 293.556 70.4137 293.392 69.9717C293.232 69.5251 293.152 69.0374 293.152 68.5088V68.2148C293.152 67.6452 293.237 67.1302 293.405 66.6699C293.574 66.2096 293.806 65.8154 294.103 65.4873C294.399 65.1592 294.736 64.9085 295.114 64.7354C295.497 64.5576 295.898 64.4688 296.317 64.4688C296.787 64.4688 297.204 64.5531 297.568 64.7217C297.933 64.8857 298.238 65.1204 298.484 65.4258C298.735 65.7266 298.924 66.0843 299.052 66.499C299.179 66.9092 299.243 67.3626 299.243 67.8594V68.3584H293.645V67.6611H298.43V67.5654C298.421 67.1507 298.336 66.7633 298.177 66.4033C298.022 66.0387 297.789 65.7425 297.479 65.5146C297.17 65.2868 296.782 65.1729 296.317 65.1729C295.971 65.1729 295.652 65.2458 295.36 65.3916C295.073 65.5374 294.825 65.7471 294.615 66.0205C294.41 66.2894 294.251 66.6107 294.137 66.9844C294.027 67.3535 293.973 67.7637 293.973 68.2148V68.5088C293.973 68.9189 294.032 69.3018 294.15 69.6572C294.273 70.0081 294.447 70.318 294.67 70.5869C294.898 70.8558 295.167 71.0654 295.477 71.2158C295.786 71.3662 296.128 71.4414 296.502 71.4414C296.939 71.4414 297.327 71.3617 297.664 71.2021C298.001 71.0381 298.304 70.7806 298.573 70.4297L299.086 70.8262C298.926 71.0632 298.726 71.2819 298.484 71.4824C298.247 71.6829 297.963 71.8424 297.63 71.9609C297.297 72.0794 296.91 72.1387 296.468 72.1387Z" fill="#585656"/>
<path d="M290.944 70.1152C290.944 69.9147 290.894 69.7165 290.794 69.5205C290.694 69.3245 290.5 69.1445 290.213 68.9805C289.93 68.8164 289.513 68.6774 288.962 68.5635C288.552 68.4723 288.185 68.3698 287.861 68.2559C287.542 68.1419 287.273 68.0052 287.055 67.8457C286.836 67.6862 286.67 67.4948 286.556 67.2715C286.442 67.0482 286.385 66.7839 286.385 66.4785C286.385 66.2051 286.444 65.9476 286.562 65.7061C286.686 65.46 286.859 65.2458 287.082 65.0635C287.31 64.8766 287.583 64.7308 287.902 64.626C288.226 64.5212 288.588 64.4688 288.989 64.4688C289.559 64.4688 290.047 64.5667 290.452 64.7627C290.862 64.9541 291.174 65.2161 291.389 65.5488C291.607 65.8815 291.717 66.2575 291.717 66.6768H290.903C290.903 66.4215 290.828 66.18 290.678 65.9521C290.532 65.7243 290.315 65.5374 290.028 65.3916C289.746 65.2458 289.399 65.1729 288.989 65.1729C288.565 65.1729 288.221 65.2367 287.957 65.3643C287.693 65.4919 287.499 65.6536 287.376 65.8496C287.257 66.0456 287.198 66.2484 287.198 66.458C287.198 66.6221 287.223 66.7725 287.273 66.9092C287.328 67.0413 287.424 67.1644 287.561 67.2783C287.702 67.3923 287.902 67.4993 288.162 67.5996C288.422 67.6999 288.759 67.7979 289.174 67.8936C289.771 68.0257 290.258 68.1875 290.637 68.3789C291.02 68.5658 291.302 68.7982 291.484 69.0762C291.667 69.3496 291.758 69.6823 291.758 70.0742C291.758 70.3796 291.694 70.6598 291.566 70.915C291.439 71.1657 291.254 71.3822 291.013 71.5645C290.776 71.7467 290.489 71.888 290.151 71.9883C289.819 72.0885 289.445 72.1387 289.03 72.1387C288.406 72.1387 287.877 72.0361 287.444 71.8311C287.016 71.6214 286.69 71.348 286.467 71.0107C286.248 70.6689 286.139 70.3066 286.139 69.9238H286.952C286.979 70.3066 287.1 70.6097 287.314 70.833C287.529 71.0518 287.791 71.2067 288.101 71.2979C288.415 71.389 288.725 71.4346 289.03 71.4346C289.45 71.4346 289.8 71.373 290.083 71.25C290.366 71.127 290.58 70.9652 290.726 70.7646C290.871 70.5641 290.944 70.3477 290.944 70.1152Z" fill="#585656"/>
<path d="M283.555 70.2891V64.6016H284.375V71.998H283.589L283.555 70.2891ZM283.705 68.9219L284.129 68.9082C284.129 69.373 284.074 69.8014 283.965 70.1934C283.855 70.5853 283.685 70.9271 283.452 71.2188C283.22 71.5104 282.919 71.736 282.55 71.8955C282.181 72.055 281.736 72.1348 281.217 72.1348C280.857 72.1348 280.526 72.0846 280.226 71.9844C279.929 71.8796 279.674 71.7155 279.46 71.4922C279.246 71.2689 279.079 70.9795 278.961 70.624C278.847 70.2686 278.79 69.8379 278.79 69.332V64.6016H279.604V69.3457C279.604 69.7422 279.647 70.0726 279.733 70.3369C279.825 70.6012 279.948 70.8132 280.103 70.9727C280.262 71.1322 280.444 71.2461 280.649 71.3145C280.854 71.3828 281.076 71.417 281.312 71.417C281.914 71.417 282.388 71.3008 282.734 71.0684C283.085 70.8359 283.334 70.5306 283.479 70.1523C283.63 69.7695 283.705 69.3594 283.705 68.9219Z" fill="#585656"/>
<path d="M273.164 61.5V72H272.351V61.5H273.164Z" fill="#585656"/>
<path d="M269.247 70.6758V66.8613C269.247 66.5104 269.174 66.2074 269.028 65.9521C268.882 65.6969 268.668 65.501 268.386 65.3643C268.103 65.2275 267.755 65.1592 267.34 65.1592C266.957 65.1592 266.615 65.2275 266.314 65.3643C266.018 65.4964 265.784 65.6764 265.61 65.9043C265.442 66.1276 265.357 66.376 265.357 66.6494L264.537 66.6426C264.537 66.3646 264.605 66.0957 264.742 65.8359C264.879 65.5762 265.073 65.3438 265.323 65.1387C265.574 64.9336 265.872 64.7718 266.219 64.6533C266.57 64.5303 266.955 64.4688 267.374 64.4688C267.903 64.4688 268.368 64.5576 268.769 64.7354C269.174 64.9131 269.491 65.1797 269.719 65.5352C269.947 65.8906 270.061 66.3372 270.061 66.875V70.4502C270.061 70.7054 270.079 70.9697 270.115 71.2432C270.156 71.5166 270.213 71.7422 270.286 71.9199V72.002H269.418C269.363 71.8379 269.32 71.6328 269.288 71.3867C269.261 71.1361 269.247 70.8991 269.247 70.6758ZM269.438 67.6953L269.452 68.3242H267.846C267.426 68.3242 267.05 68.363 266.718 68.4404C266.39 68.5133 266.112 68.6227 265.884 68.7686C265.656 68.9098 265.48 69.0807 265.357 69.2812C265.239 69.4818 265.18 69.7096 265.18 69.9648C265.18 70.2292 265.246 70.4707 265.378 70.6895C265.515 70.9082 265.706 71.0837 265.952 71.2158C266.203 71.3434 266.499 71.4072 266.841 71.4072C267.297 71.4072 267.698 71.3229 268.044 71.1543C268.395 70.9857 268.684 70.7646 268.912 70.4912C269.14 70.2178 269.293 69.9193 269.37 69.5957L269.726 70.0674C269.666 70.2952 269.557 70.5299 269.397 70.7715C269.243 71.0085 269.04 71.2318 268.789 71.4414C268.538 71.6465 268.242 71.8151 267.9 71.9473C267.563 72.0749 267.18 72.1387 266.752 72.1387C266.269 72.1387 265.847 72.0475 265.487 71.8652C265.132 71.6829 264.854 71.4346 264.653 71.1201C264.457 70.8011 264.359 70.4411 264.359 70.04C264.359 69.6755 264.437 69.3496 264.592 69.0625C264.747 68.7708 264.97 68.5247 265.262 68.3242C265.558 68.1191 265.913 67.9642 266.328 67.8594C266.747 67.75 267.217 67.6953 267.736 67.6953H269.438Z" fill="#585656"/>
<path d="M257.865 66.1846V72.002H257.052V64.6055H257.831L257.865 66.1846ZM257.681 67.8457L257.318 67.6406C257.346 67.2031 257.435 66.793 257.585 66.4102C257.735 66.0273 257.938 65.6901 258.193 65.3984C258.453 65.1068 258.756 64.8789 259.103 64.7148C259.453 64.5508 259.841 64.4688 260.265 64.4688C260.634 64.4688 260.964 64.5189 261.256 64.6191C261.548 64.7194 261.796 64.8789 262.001 65.0977C262.206 65.3164 262.361 65.5967 262.466 65.9385C262.575 66.2803 262.63 66.6973 262.63 67.1895V72.002H261.81V67.1826C261.81 66.6722 261.739 66.2734 261.598 65.9863C261.456 65.6947 261.256 65.4873 260.996 65.3643C260.736 65.2412 260.429 65.1797 260.073 65.1797C259.681 65.1797 259.337 65.2663 259.041 65.4395C258.749 65.6081 258.503 65.8291 258.303 66.1025C258.107 66.3714 257.956 66.6608 257.852 66.9707C257.747 67.276 257.69 67.5677 257.681 67.8457Z" fill="#585656"/>
<path d="M253.148 65.8291V72.002H252.335V64.6055H253.128L253.148 65.8291ZM255.767 64.5508L255.746 65.3027C255.655 65.2891 255.566 65.2777 255.479 65.2686C255.393 65.2594 255.299 65.2549 255.199 65.2549C254.844 65.2549 254.532 65.321 254.263 65.4531C253.998 65.5807 253.775 65.7607 253.593 65.9932C253.41 66.221 253.271 66.4899 253.176 66.7998C253.08 67.1051 253.025 67.4333 253.012 67.7842L252.711 67.9004C252.711 67.4173 252.761 66.9684 252.861 66.5537C252.962 66.139 253.114 65.7767 253.319 65.4668C253.529 65.1523 253.791 64.9085 254.105 64.7354C254.424 64.5576 254.798 64.4688 255.227 64.4688C255.331 64.4688 255.434 64.4779 255.534 64.4961C255.639 64.5098 255.716 64.528 255.767 64.5508Z" fill="#585656"/>
<path d="M247.946 72.1387C247.463 72.1387 247.019 72.0498 246.613 71.8721C246.212 71.6943 245.861 71.4437 245.561 71.1201C245.264 70.7965 245.034 70.4137 244.87 69.9717C244.711 69.5251 244.631 69.0374 244.631 68.5088V68.2148C244.631 67.6452 244.715 67.1302 244.884 66.6699C245.052 66.2096 245.285 65.8154 245.581 65.4873C245.877 65.1592 246.215 64.9085 246.593 64.7354C246.976 64.5576 247.377 64.4688 247.796 64.4688C248.265 64.4688 248.682 64.5531 249.047 64.7217C249.411 64.8857 249.717 65.1204 249.963 65.4258C250.214 65.7266 250.403 66.0843 250.53 66.499C250.658 66.9092 250.722 67.3626 250.722 67.8594V68.3584H245.123V67.6611H249.908V67.5654C249.899 67.1507 249.815 66.7633 249.655 66.4033C249.5 66.0387 249.268 65.7425 248.958 65.5146C248.648 65.2868 248.261 65.1729 247.796 65.1729C247.45 65.1729 247.131 65.2458 246.839 65.3916C246.552 65.5374 246.303 65.7471 246.094 66.0205C245.889 66.2894 245.729 66.6107 245.615 66.9844C245.506 67.3535 245.451 67.7637 245.451 68.2148V68.5088C245.451 68.9189 245.51 69.3018 245.629 69.6572C245.752 70.0081 245.925 70.318 246.148 70.5869C246.376 70.8558 246.645 71.0654 246.955 71.2158C247.265 71.3662 247.607 71.4414 247.98 71.4414C248.418 71.4414 248.805 71.3617 249.143 71.2021C249.48 71.0381 249.783 70.7806 250.052 70.4297L250.564 70.8262C250.405 71.0632 250.204 71.2819 249.963 71.4824C249.726 71.6829 249.441 71.8424 249.108 71.9609C248.776 72.0794 248.388 72.1387 247.946 72.1387Z" fill="#585656"/>
<path d="M243.373 64.6035V65.2734H239.668V64.6035H243.373ZM241.028 62.7031H241.842V70.2021C241.842 70.5439 241.887 70.8014 241.979 70.9746C242.07 71.1478 242.188 71.264 242.334 71.3232C242.48 71.3825 242.637 71.4121 242.806 71.4121C242.929 71.4121 243.047 71.4053 243.161 71.3916C243.275 71.3734 243.378 71.3551 243.469 71.3369L243.503 72.0273C243.403 72.0592 243.273 72.0843 243.113 72.1025C242.954 72.1253 242.794 72.1367 242.635 72.1367C242.32 72.1367 242.042 72.0798 241.801 71.9658C241.559 71.8473 241.37 71.6468 241.233 71.3643C241.097 71.0771 241.028 70.6875 241.028 70.1953V62.7031Z" fill="#585656"/>
<path d="M233.693 66.1846V72.002H232.88V64.6055H233.659L233.693 66.1846ZM233.509 67.8457L233.146 67.6406C233.174 67.2031 233.263 66.793 233.413 66.4102C233.563 66.0273 233.766 65.6901 234.021 65.3984C234.281 65.1068 234.584 64.8789 234.931 64.7148C235.282 64.5508 235.669 64.4688 236.093 64.4688C236.462 64.4688 236.792 64.5189 237.084 64.6191C237.376 64.7194 237.624 64.8789 237.829 65.0977C238.034 65.3164 238.189 65.5967 238.294 65.9385C238.403 66.2803 238.458 66.6973 238.458 67.1895V72.002H237.638V67.1826C237.638 66.6722 237.567 66.2734 237.426 65.9863C237.285 65.6947 237.084 65.4873 236.824 65.3643C236.564 65.2412 236.257 65.1797 235.901 65.1797C235.509 65.1797 235.165 65.2663 234.869 65.4395C234.577 65.6081 234.331 65.8291 234.131 66.1025C233.935 66.3714 233.785 66.6608 233.68 66.9707C233.575 67.276 233.518 67.5677 233.509 67.8457Z" fill="#585656"/>
<path d="M230.364 62.0469V72H229.523V62.0469H230.364Z" fill="#585656"/>
<path d="M222.332 67.0977C222.332 66.9382 222.382 66.8037 222.482 66.6943C222.587 66.5804 222.729 66.5234 222.906 66.5234C223.084 66.5234 223.225 66.5804 223.33 66.6943C223.435 66.8037 223.487 66.9382 223.487 67.0977C223.487 67.2526 223.435 67.3848 223.33 67.4941C223.225 67.599 223.084 67.6514 222.906 67.6514C222.729 67.6514 222.587 67.599 222.482 67.4941C222.382 67.3848 222.332 67.2526 222.332 67.0977Z" fill="#585656"/>
<path d="M211.982 66.1846V72.002H211.169V64.6055H211.948L211.982 66.1846ZM211.798 67.8457L211.436 67.6406C211.463 67.2031 211.552 66.793 211.702 66.4102C211.853 66.0273 212.055 65.6901 212.311 65.3984C212.57 65.1068 212.873 64.8789 213.22 64.7148C213.571 64.5508 213.958 64.4688 214.382 64.4688C214.751 64.4688 215.081 64.5189 215.373 64.6191C215.665 64.7194 215.913 64.8789 216.118 65.0977C216.323 65.3164 216.478 65.5967 216.583 65.9385C216.692 66.2803 216.747 66.6973 216.747 67.1895V72.002H215.927V67.1826C215.927 66.6722 215.856 66.2734 215.715 65.9863C215.574 65.6947 215.373 65.4873 215.113 65.3643C214.854 65.2412 214.546 65.1797 214.19 65.1797C213.799 65.1797 213.454 65.2663 213.158 65.4395C212.867 65.6081 212.62 65.8291 212.42 66.1025C212.224 66.3714 212.074 66.6608 211.969 66.9707C211.864 67.276 211.807 67.5677 211.798 67.8457Z" fill="#585656"/>
<path d="M202.87 68.4199V68.1943C202.87 67.6566 202.948 67.1598 203.103 66.7041C203.257 66.2484 203.479 65.8542 203.766 65.5215C204.057 65.1888 204.406 64.9313 204.812 64.749C205.217 64.5622 205.668 64.4688 206.165 64.4688C206.666 64.4688 207.12 64.5622 207.525 64.749C207.931 64.9313 208.28 65.1888 208.571 65.5215C208.863 65.8542 209.086 66.2484 209.241 66.7041C209.396 67.1598 209.474 67.6566 209.474 68.1943V68.4199C209.474 68.9577 209.396 69.4544 209.241 69.9102C209.086 70.3613 208.863 70.7533 208.571 71.0859C208.284 71.4186 207.938 71.6784 207.532 71.8652C207.127 72.0475 206.675 72.1387 206.179 72.1387C205.677 72.1387 205.224 72.0475 204.818 71.8652C204.413 71.6784 204.064 71.4186 203.772 71.0859C203.481 70.7533 203.257 70.3613 203.103 69.9102C202.948 69.4544 202.87 68.9577 202.87 68.4199ZM203.684 68.1943V68.4199C203.684 68.8255 203.738 69.2106 203.848 69.5752C203.957 69.9352 204.117 70.2565 204.326 70.5391C204.536 70.8171 204.796 71.0358 205.105 71.1953C205.415 71.3548 205.773 71.4346 206.179 71.4346C206.58 71.4346 206.933 71.3548 207.238 71.1953C207.548 71.0358 207.808 70.8171 208.018 70.5391C208.227 70.2565 208.384 69.9352 208.489 69.5752C208.599 69.2106 208.653 68.8255 208.653 68.4199V68.1943C208.653 67.7933 208.599 67.4128 208.489 67.0527C208.384 66.6927 208.225 66.3714 208.011 66.0889C207.801 65.8063 207.541 65.583 207.231 65.4189C206.922 65.2549 206.566 65.1729 206.165 65.1729C205.764 65.1729 205.409 65.2549 205.099 65.4189C204.793 65.583 204.534 65.8063 204.319 66.0889C204.11 66.3714 203.95 66.6927 203.841 67.0527C203.736 67.4128 203.684 67.7933 203.684 68.1943Z" fill="#585656"/>
<path d="M201.086 64.5996V71.9961H200.272V64.5996H201.086ZM200.129 62.46C200.129 62.305 200.177 62.1751 200.272 62.0703C200.373 61.9609 200.509 61.9062 200.683 61.9062C200.856 61.9062 200.993 61.9609 201.093 62.0703C201.198 62.1751 201.25 62.305 201.25 62.46C201.25 62.6104 201.198 62.7402 201.093 62.8496C200.993 62.9544 200.856 63.0068 200.683 63.0068C200.509 63.0068 200.373 62.9544 200.272 62.8496C200.177 62.7402 200.129 62.6104 200.129 62.46Z" fill="#585656"/>
<path d="M198.461 64.6035V65.2734H194.756V64.6035H198.461ZM196.116 62.7031H196.93V70.2021C196.93 70.5439 196.975 70.8014 197.066 70.9746C197.158 71.1478 197.276 71.264 197.422 71.3232C197.568 71.3825 197.725 71.4121 197.894 71.4121C198.017 71.4121 198.135 71.4053 198.249 71.3916C198.363 71.3734 198.465 71.3551 198.557 71.3369L198.591 72.0273C198.491 72.0592 198.361 72.0843 198.201 72.1025C198.042 72.1253 197.882 72.1367 197.723 72.1367C197.408 72.1367 197.13 72.0798 196.889 71.9658C196.647 71.8473 196.458 71.6468 196.321 71.3643C196.185 71.0771 196.116 70.6875 196.116 70.1953V62.7031Z" fill="#585656"/>
<path d="M192.657 70.6758V66.8613C192.657 66.5104 192.584 66.2074 192.438 65.9521C192.293 65.6969 192.078 65.501 191.796 65.3643C191.513 65.2275 191.165 65.1592 190.75 65.1592C190.367 65.1592 190.025 65.2275 189.725 65.3643C189.428 65.4964 189.194 65.6764 189.021 65.9043C188.852 66.1276 188.768 66.376 188.768 66.6494L187.947 66.6426C187.947 66.3646 188.016 66.0957 188.152 65.8359C188.289 65.5762 188.483 65.3438 188.733 65.1387C188.984 64.9336 189.283 64.7718 189.629 64.6533C189.98 64.5303 190.365 64.4688 190.784 64.4688C191.313 64.4688 191.778 64.5576 192.179 64.7354C192.584 64.9131 192.901 65.1797 193.129 65.5352C193.357 65.8906 193.471 66.3372 193.471 66.875V70.4502C193.471 70.7054 193.489 70.9697 193.525 71.2432C193.566 71.5166 193.623 71.7422 193.696 71.9199V72.002H192.828C192.773 71.8379 192.73 71.6328 192.698 71.3867C192.671 71.1361 192.657 70.8991 192.657 70.6758ZM192.849 67.6953L192.862 68.3242H191.256C190.837 68.3242 190.461 68.363 190.128 68.4404C189.8 68.5133 189.522 68.6227 189.294 68.7686C189.066 68.9098 188.891 69.0807 188.768 69.2812C188.649 69.4818 188.59 69.7096 188.59 69.9648C188.59 70.2292 188.656 70.4707 188.788 70.6895C188.925 70.9082 189.116 71.0837 189.362 71.2158C189.613 71.3434 189.909 71.4072 190.251 71.4072C190.707 71.4072 191.108 71.3229 191.454 71.1543C191.805 70.9857 192.094 70.7646 192.322 70.4912C192.55 70.2178 192.703 69.9193 192.78 69.5957L193.136 70.0674C193.076 70.2952 192.967 70.5299 192.808 70.7715C192.653 71.0085 192.45 71.2318 192.199 71.4414C191.949 71.6465 191.652 71.8151 191.311 71.9473C190.973 72.0749 190.59 72.1387 190.162 72.1387C189.679 72.1387 189.257 72.0475 188.897 71.8652C188.542 71.6829 188.264 71.4346 188.063 71.1201C187.868 70.8011 187.77 70.4411 187.77 70.04C187.77 69.6755 187.847 69.3496 188.002 69.0625C188.157 68.7708 188.38 68.5247 188.672 68.3242C188.968 68.1191 189.324 67.9642 189.738 67.8594C190.158 67.75 190.627 67.6953 191.146 67.6953H192.849Z" fill="#585656"/>
<path d="M176.518 66.1367V72.002H175.697V64.6055H176.483L176.518 66.1367ZM176.367 67.8457L175.971 67.6406C175.998 67.2031 176.08 66.793 176.217 66.4102C176.358 66.0273 176.554 65.6901 176.805 65.3984C177.055 65.1068 177.356 64.8789 177.707 64.7148C178.058 64.5508 178.457 64.4688 178.903 64.4688C179.263 64.4688 179.589 64.5189 179.881 64.6191C180.177 64.7148 180.428 64.8675 180.633 65.0771C180.842 65.2822 181.004 65.5511 181.118 65.8838C181.232 66.2165 181.289 66.6152 181.289 67.0801V72.002H180.476V67.1074C180.476 66.6152 180.398 66.2301 180.243 65.9521C180.093 65.6742 179.881 65.4759 179.607 65.3574C179.339 65.2389 179.026 65.1797 178.671 65.1797C178.252 65.1797 177.896 65.2663 177.604 65.4395C177.317 65.6081 177.083 65.8291 176.9 66.1025C176.723 66.3714 176.59 66.6608 176.504 66.9707C176.417 67.276 176.372 67.5677 176.367 67.8457ZM181.282 67.2031L180.735 67.2168C180.758 66.8568 180.84 66.5127 180.981 66.1846C181.127 65.8564 181.326 65.5648 181.576 65.3096C181.827 65.0498 182.125 64.8447 182.472 64.6943C182.823 64.5439 183.217 64.4688 183.654 64.4688C184.037 64.4688 184.379 64.5212 184.68 64.626C184.98 64.7262 185.233 64.888 185.438 65.1113C185.648 65.3301 185.808 65.6104 185.917 65.9521C186.026 66.2939 186.081 66.7041 186.081 67.1826V72.002H185.261V67.1758C185.261 66.6517 185.183 66.2461 185.028 65.959C184.878 65.6673 184.668 65.4645 184.399 65.3506C184.131 65.2367 183.816 65.1797 183.456 65.1797C183.101 65.1842 182.788 65.2503 182.52 65.3779C182.251 65.501 182.025 65.665 181.843 65.8701C181.665 66.0706 181.528 66.2871 181.433 66.5195C181.341 66.752 181.291 66.9798 181.282 67.2031Z" fill="#585656"/>
<path d="M167.446 68.4199V68.1943C167.446 67.6566 167.524 67.1598 167.679 66.7041C167.834 66.2484 168.055 65.8542 168.342 65.5215C168.633 65.1888 168.982 64.9313 169.388 64.749C169.793 64.5622 170.244 64.4688 170.741 64.4688C171.243 64.4688 171.696 64.5622 172.102 64.749C172.507 64.9313 172.856 65.1888 173.147 65.5215C173.439 65.8542 173.662 66.2484 173.817 66.7041C173.972 67.1598 174.05 67.6566 174.05 68.1943V68.4199C174.05 68.9577 173.972 69.4544 173.817 69.9102C173.662 70.3613 173.439 70.7533 173.147 71.0859C172.86 71.4186 172.514 71.6784 172.108 71.8652C171.703 72.0475 171.252 72.1387 170.755 72.1387C170.254 72.1387 169.8 72.0475 169.395 71.8652C168.989 71.6784 168.64 71.4186 168.349 71.0859C168.057 70.7533 167.834 70.3613 167.679 69.9102C167.524 69.4544 167.446 68.9577 167.446 68.4199ZM168.26 68.1943V68.4199C168.26 68.8255 168.314 69.2106 168.424 69.5752C168.533 69.9352 168.693 70.2565 168.902 70.5391C169.112 70.8171 169.372 71.0358 169.682 71.1953C169.992 71.3548 170.349 71.4346 170.755 71.4346C171.156 71.4346 171.509 71.3548 171.814 71.1953C172.124 71.0358 172.384 70.8171 172.594 70.5391C172.803 70.2565 172.961 69.9352 173.065 69.5752C173.175 69.2106 173.229 68.8255 173.229 68.4199V68.1943C173.229 67.7933 173.175 67.4128 173.065 67.0527C172.961 66.6927 172.801 66.3714 172.587 66.0889C172.377 65.8063 172.118 65.583 171.808 65.4189C171.498 65.2549 171.142 65.1729 170.741 65.1729C170.34 65.1729 169.985 65.2549 169.675 65.4189C169.369 65.583 169.11 65.8063 168.896 66.0889C168.686 66.3714 168.526 66.6927 168.417 67.0527C168.312 67.4128 168.26 67.7933 168.26 68.1943Z" fill="#585656"/>
<path d="M166.318 64.6035V65.2734H162.613V64.6035H166.318ZM163.974 62.7031H164.787V70.2021C164.787 70.5439 164.833 70.8014 164.924 70.9746C165.015 71.1478 165.133 71.264 165.279 71.3232C165.425 71.3825 165.582 71.4121 165.751 71.4121C165.874 71.4121 165.993 71.4053 166.106 71.3916C166.22 71.3734 166.323 71.3551 166.414 71.3369L166.448 72.0273C166.348 72.0592 166.218 72.0843 166.059 72.1025C165.899 72.1253 165.74 72.1367 165.58 72.1367C165.266 72.1367 164.988 72.0798 164.746 71.9658C164.505 71.8473 164.315 71.6468 164.179 71.3643C164.042 71.0771 163.974 70.6875 163.974 70.1953V62.7031Z" fill="#585656"/>
<path d="M160.562 70.2891V64.6016H161.383V71.998H160.597L160.562 70.2891ZM160.713 68.9219L161.137 68.9082C161.137 69.373 161.082 69.8014 160.973 70.1934C160.863 70.5853 160.692 70.9271 160.46 71.2188C160.228 71.5104 159.927 71.736 159.558 71.8955C159.188 72.055 158.744 72.1348 158.225 72.1348C157.865 72.1348 157.534 72.0846 157.233 71.9844C156.937 71.8796 156.682 71.7155 156.468 71.4922C156.254 71.2689 156.087 70.9795 155.969 70.624C155.855 70.2686 155.798 69.8379 155.798 69.332V64.6016H156.611V69.3457C156.611 69.7422 156.655 70.0726 156.741 70.3369C156.832 70.6012 156.955 70.8132 157.11 70.9727C157.27 71.1322 157.452 71.2461 157.657 71.3145C157.862 71.3828 158.083 71.417 158.32 71.417C158.922 71.417 159.396 71.3008 159.742 71.0684C160.093 70.8359 160.341 70.5306 160.487 70.1523C160.638 69.7695 160.713 69.3594 160.713 68.9219Z" fill="#585656"/>
<path d="M150.616 62.6416L147.171 72H146.296L150.056 62.0469H150.664L150.616 62.6416ZM153.747 72L150.295 62.6416L150.247 62.0469H150.855L154.622 72H153.747ZM153.132 68.4863V69.2109H147.848V68.4863H153.132Z" fill="#585656"/>
<path d="M141.073 70.1152C141.073 69.9147 141.023 69.7165 140.923 69.5205C140.823 69.3245 140.629 69.1445 140.342 68.9805C140.059 68.8164 139.642 68.6774 139.091 68.5635C138.681 68.4723 138.314 68.3698 137.99 68.2559C137.671 68.1419 137.402 68.0052 137.184 67.8457C136.965 67.6862 136.799 67.4948 136.685 67.2715C136.571 67.0482 136.514 66.7839 136.514 66.4785C136.514 66.2051 136.573 65.9476 136.691 65.7061C136.814 65.46 136.988 65.2458 137.211 65.0635C137.439 64.8766 137.712 64.7308 138.031 64.626C138.355 64.5212 138.717 64.4688 139.118 64.4688C139.688 64.4688 140.175 64.5667 140.581 64.7627C140.991 64.9541 141.303 65.2161 141.518 65.5488C141.736 65.8815 141.846 66.2575 141.846 66.6768H141.032C141.032 66.4215 140.957 66.18 140.807 65.9521C140.661 65.7243 140.444 65.5374 140.157 65.3916C139.875 65.2458 139.528 65.1729 139.118 65.1729C138.694 65.1729 138.35 65.2367 138.086 65.3643C137.822 65.4919 137.628 65.6536 137.505 65.8496C137.386 66.0456 137.327 66.2484 137.327 66.458C137.327 66.6221 137.352 66.7725 137.402 66.9092C137.457 67.0413 137.553 67.1644 137.689 67.2783C137.831 67.3923 138.031 67.4993 138.291 67.5996C138.551 67.6999 138.888 67.7979 139.303 67.8936C139.9 68.0257 140.387 68.1875 140.766 68.3789C141.148 68.5658 141.431 68.7982 141.613 69.0762C141.796 69.3496 141.887 69.6823 141.887 70.0742C141.887 70.3796 141.823 70.6598 141.695 70.915C141.568 71.1657 141.383 71.3822 141.142 71.5645C140.905 71.7467 140.618 71.888 140.28 71.9883C139.948 72.0885 139.574 72.1387 139.159 72.1387C138.535 72.1387 138.006 72.0361 137.573 71.8311C137.145 71.6214 136.819 71.348 136.596 71.0107C136.377 70.6689 136.268 70.3066 136.268 69.9238H137.081C137.108 70.3066 137.229 70.6097 137.443 70.833C137.658 71.0518 137.92 71.2067 138.229 71.2979C138.544 71.389 138.854 71.4346 139.159 71.4346C139.578 71.4346 139.929 71.373 140.212 71.25C140.494 71.127 140.709 70.9652 140.854 70.7646C141 70.5641 141.073 70.3477 141.073 70.1152Z" fill="#585656"/>
<path d="M133.67 70.5645V61.5H134.49V72H133.725L133.67 70.5645ZM128.536 68.377V68.2334C128.536 67.6592 128.602 67.1419 128.734 66.6816C128.867 66.2168 129.056 65.8203 129.302 65.4922C129.552 65.1595 129.853 64.9066 130.204 64.7334C130.555 64.5557 130.951 64.4668 131.394 64.4668C131.826 64.4668 132.209 64.5374 132.542 64.6787C132.875 64.82 133.16 65.0228 133.396 65.2871C133.638 65.5514 133.832 65.8659 133.978 66.2305C134.128 66.5951 134.237 67.0007 134.306 67.4473V69.2725C134.251 69.6917 134.151 70.0768 134.005 70.4277C133.859 70.7741 133.665 71.0771 133.424 71.3369C133.182 71.5921 132.891 71.7904 132.549 71.9316C132.212 72.0684 131.822 72.1367 131.38 72.1367C130.942 72.1367 130.548 72.0456 130.197 71.8633C129.846 71.681 129.548 71.4235 129.302 71.0908C129.056 70.7536 128.867 70.3548 128.734 69.8945C128.602 69.4342 128.536 68.9284 128.536 68.377ZM129.356 68.2334V68.377C129.356 68.8099 129.4 69.2109 129.486 69.5801C129.573 69.9492 129.705 70.2705 129.883 70.5439C130.061 70.8174 130.286 71.0316 130.56 71.1865C130.833 71.3415 131.157 71.4189 131.53 71.4189C132 71.4189 132.394 71.3301 132.713 71.1523C133.032 70.9701 133.287 70.7308 133.479 70.4346C133.67 70.1338 133.809 69.8057 133.896 69.4502V67.3242C133.841 67.0827 133.761 66.8366 133.656 66.5859C133.551 66.3353 133.408 66.1051 133.226 65.8955C133.048 65.6813 132.82 65.5104 132.542 65.3828C132.269 65.2507 131.936 65.1846 131.544 65.1846C131.166 65.1846 130.84 65.262 130.566 65.417C130.293 65.5719 130.065 65.7884 129.883 66.0664C129.705 66.3398 129.573 66.6611 129.486 67.0303C129.4 67.3994 129.356 67.8005 129.356 68.2334Z" fill="#585656"/>
<path d="M123.573 62.6416L120.128 72H119.253L123.013 62.0469H123.621L123.573 62.6416ZM126.704 72L123.252 62.6416L123.204 62.0469H123.812L127.579 72H126.704ZM126.089 68.4863V69.2109H120.805V68.4863H126.089Z" fill="#585656"/>
<path d="M112.308 72.1387C111.825 72.1387 111.38 72.0498 110.975 71.8721C110.574 71.6943 110.223 71.4437 109.922 71.1201C109.626 70.7965 109.396 70.4137 109.231 69.9717C109.072 69.5251 108.992 69.0374 108.992 68.5088V68.2148C108.992 67.6452 109.076 67.1302 109.245 66.6699C109.414 66.2096 109.646 65.8154 109.942 65.4873C110.239 65.1592 110.576 64.9085 110.954 64.7354C111.337 64.5576 111.738 64.4688 112.157 64.4688C112.627 64.4688 113.044 64.5531 113.408 64.7217C113.773 64.8857 114.078 65.1204 114.324 65.4258C114.575 65.7266 114.764 66.0843 114.892 66.499C115.019 66.9092 115.083 67.3626 115.083 67.8594V68.3584H109.484V67.6611H114.27V67.5654C114.26 67.1507 114.176 66.7633 114.017 66.4033C113.862 66.0387 113.629 65.7425 113.319 65.5146C113.009 65.2868 112.622 65.1729 112.157 65.1729C111.811 65.1729 111.492 65.2458 111.2 65.3916C110.913 65.5374 110.665 65.7471 110.455 66.0205C110.25 66.2894 110.09 66.6107 109.977 66.9844C109.867 67.3535 109.812 67.7637 109.812 68.2148V68.5088C109.812 68.9189 109.872 69.3018 109.99 69.6572C110.113 70.0081 110.286 70.318 110.51 70.5869C110.738 70.8558 111.007 71.0654 111.316 71.2158C111.626 71.3662 111.968 71.4414 112.342 71.4414C112.779 71.4414 113.167 71.3617 113.504 71.2021C113.841 71.0381 114.144 70.7806 114.413 70.4297L114.926 70.8262C114.766 71.0632 114.566 71.2819 114.324 71.4824C114.087 71.6829 113.802 71.8424 113.47 71.9609C113.137 72.0794 112.75 72.1387 112.308 72.1387Z" fill="#585656"/>
<path d="M105.684 65.8291V72.002H104.87V64.6055H105.663L105.684 65.8291ZM108.302 64.5508L108.281 65.3027C108.19 65.2891 108.101 65.2777 108.015 65.2686C107.928 65.2594 107.835 65.2549 107.734 65.2549C107.379 65.2549 107.067 65.321 106.798 65.4531C106.534 65.5807 106.31 65.7607 106.128 65.9932C105.946 66.221 105.807 66.4899 105.711 66.7998C105.615 67.1051 105.561 67.4333 105.547 67.7842L105.246 67.9004C105.246 67.4173 105.296 66.9684 105.396 66.5537C105.497 66.139 105.649 65.7767 105.854 65.4668C106.064 65.1523 106.326 64.9085 106.641 64.7354C106.96 64.5576 107.333 64.4688 107.762 64.4688C107.867 64.4688 107.969 64.4779 108.069 64.4961C108.174 64.5098 108.252 64.528 108.302 64.5508Z" fill="#585656"/>
<path d="M96.5713 68.4199V68.1943C96.5713 67.6566 96.6488 67.1598 96.8037 66.7041C96.9587 66.2484 97.1797 65.8542 97.4668 65.5215C97.7585 65.1888 98.1071 64.9313 98.5127 64.749C98.9183 64.5622 99.3695 64.4688 99.8662 64.4688C100.368 64.4688 100.821 64.5622 101.227 64.749C101.632 64.9313 101.981 65.1888 102.272 65.5215C102.564 65.8542 102.787 66.2484 102.942 66.7041C103.097 67.1598 103.175 67.6566 103.175 68.1943V68.4199C103.175 68.9577 103.097 69.4544 102.942 69.9102C102.787 70.3613 102.564 70.7533 102.272 71.0859C101.985 71.4186 101.639 71.6784 101.233 71.8652C100.828 72.0475 100.377 72.1387 99.8799 72.1387C99.3786 72.1387 98.9251 72.0475 98.5195 71.8652C98.1139 71.6784 97.7653 71.4186 97.4736 71.0859C97.182 70.7533 96.9587 70.3613 96.8037 69.9102C96.6488 69.4544 96.5713 68.9577 96.5713 68.4199ZM97.3848 68.1943V68.4199C97.3848 68.8255 97.4395 69.2106 97.5488 69.5752C97.6582 69.9352 97.8177 70.2565 98.0273 70.5391C98.237 70.8171 98.4967 71.0358 98.8066 71.1953C99.1165 71.3548 99.4743 71.4346 99.8799 71.4346C100.281 71.4346 100.634 71.3548 100.939 71.1953C101.249 71.0358 101.509 70.8171 101.719 70.5391C101.928 70.2565 102.086 69.9352 102.19 69.5752C102.3 69.2106 102.354 68.8255 102.354 68.4199V68.1943C102.354 67.7933 102.3 67.4128 102.19 67.0527C102.086 66.6927 101.926 66.3714 101.712 66.0889C101.502 65.8063 101.243 65.583 100.933 65.4189C100.623 65.2549 100.267 65.1729 99.8662 65.1729C99.4652 65.1729 99.1097 65.2549 98.7998 65.4189C98.4945 65.583 98.2347 65.8063 98.0205 66.0889C97.8109 66.3714 97.6514 66.6927 97.542 67.0527C97.4372 67.4128 97.3848 67.7933 97.3848 68.1943Z" fill="#585656"/>
<path d="M95.4434 64.6035V65.2734H91.7383V64.6035H95.4434ZM93.0986 62.7031H93.9121V70.2021C93.9121 70.5439 93.9577 70.8014 94.0488 70.9746C94.14 71.1478 94.2585 71.264 94.4043 71.3232C94.5501 71.3825 94.7074 71.4121 94.876 71.4121C94.999 71.4121 95.1175 71.4053 95.2314 71.3916C95.3454 71.3734 95.4479 71.3551 95.5391 71.3369L95.5732 72.0273C95.473 72.0592 95.3431 72.0843 95.1836 72.1025C95.0241 72.1253 94.8646 72.1367 94.7051 72.1367C94.3906 72.1367 94.1126 72.0798 93.8711 71.9658C93.6296 71.8473 93.4404 71.6468 93.3037 71.3643C93.167 71.0771 93.0986 70.6875 93.0986 70.1953V62.7031Z" fill="#585656"/>
<path d="M90.1729 69.5488C90.1729 69.2754 90.1273 69.0316 90.0361 68.8174C89.945 68.6032 89.7946 68.4118 89.585 68.2432C89.3799 68.07 89.1019 67.9105 88.751 67.7646C88.4046 67.6143 87.9717 67.4661 87.4521 67.3203C86.9554 67.179 86.5065 67.0241 86.1055 66.8555C85.7044 66.6868 85.3604 66.4932 85.0732 66.2744C84.7907 66.0557 84.5742 65.8005 84.4238 65.5088C84.2734 65.2126 84.1982 64.8685 84.1982 64.4766C84.1982 64.0938 84.2803 63.7451 84.4443 63.4307C84.6084 63.1162 84.8385 62.8451 85.1348 62.6172C85.4355 62.3893 85.7887 62.2139 86.1943 62.0908C86.6045 61.9678 87.0534 61.9062 87.541 61.9062C88.2383 61.9062 88.8398 62.0384 89.3457 62.3027C89.8561 62.5671 90.2503 62.9248 90.5283 63.376C90.8109 63.8226 90.9521 64.3239 90.9521 64.8799H90.1113C90.1113 64.4469 90.0088 64.0618 89.8037 63.7246C89.6032 63.3828 89.3115 63.1162 88.9287 62.9248C88.5505 62.7288 88.0879 62.6309 87.541 62.6309C86.9941 62.6309 86.5339 62.7152 86.1602 62.8838C85.791 63.0479 85.5107 63.2689 85.3193 63.5469C85.1325 63.8203 85.0391 64.1257 85.0391 64.4629C85.0391 64.6999 85.0846 64.9186 85.1758 65.1191C85.2669 65.3151 85.415 65.4997 85.6201 65.6729C85.8298 65.8415 86.1055 66.001 86.4473 66.1514C86.7891 66.2972 87.2106 66.4362 87.7119 66.5684C88.2406 66.7142 88.71 66.876 89.1201 67.0537C89.5303 67.2314 89.8766 67.4365 90.1592 67.6689C90.4417 67.8968 90.6559 68.1634 90.8018 68.4688C90.9476 68.7741 91.0205 69.1296 91.0205 69.5352C91.0205 69.9408 90.9339 70.3053 90.7607 70.6289C90.5921 70.9479 90.3529 71.2191 90.043 71.4424C89.7376 71.6657 89.3753 71.8366 88.9561 71.9551C88.5413 72.0736 88.0879 72.1328 87.5957 72.1328C87.1536 72.1328 86.7139 72.0758 86.2764 71.9619C85.8389 71.848 85.4378 71.6725 85.0732 71.4355C84.7132 71.194 84.4238 70.8841 84.2051 70.5059C83.9909 70.1276 83.8838 69.6764 83.8838 69.1523H84.7178C84.7178 69.5716 84.8021 69.9248 84.9707 70.2119C85.1393 70.499 85.3626 70.7314 85.6406 70.9092C85.9232 71.0869 86.2331 71.2168 86.5703 71.2988C86.9121 71.3763 87.2539 71.415 87.5957 71.415C88.1198 71.415 88.5732 71.3376 88.9561 71.1826C89.3434 71.0277 89.6419 70.8112 89.8516 70.5332C90.0658 70.2507 90.1729 69.9225 90.1729 69.5488Z" fill="#585656"/>
<path d="M81.375 70.5645V61.5H82.1953V72H81.4297L81.375 70.5645ZM76.2412 68.377V68.2334C76.2412 67.6592 76.3073 67.1419 76.4395 66.6816C76.5716 66.2168 76.7607 65.8203 77.0068 65.4922C77.2575 65.1595 77.5583 64.9066 77.9092 64.7334C78.2601 64.5557 78.6566 64.4668 79.0986 64.4668C79.5316 64.4668 79.9144 64.5374 80.2471 64.6787C80.5798 64.82 80.8646 65.0228 81.1016 65.2871C81.3431 65.5514 81.5368 65.8659 81.6826 66.2305C81.833 66.5951 81.9424 67.0007 82.0107 67.4473V69.2725C81.9561 69.6917 81.8558 70.0768 81.71 70.4277C81.5641 70.7741 81.3704 71.0771 81.1289 71.3369C80.8874 71.5921 80.5957 71.7904 80.2539 71.9316C79.9167 72.0684 79.527 72.1367 79.085 72.1367C78.6475 72.1367 78.2533 72.0456 77.9023 71.8633C77.5514 71.681 77.2529 71.4235 77.0068 71.0908C76.7607 70.7536 76.5716 70.3548 76.4395 69.8945C76.3073 69.4342 76.2412 68.9284 76.2412 68.377ZM77.0615 68.2334V68.377C77.0615 68.8099 77.1048 69.2109 77.1914 69.5801C77.278 69.9492 77.4102 70.2705 77.5879 70.5439C77.7656 70.8174 77.9912 71.0316 78.2646 71.1865C78.5381 71.3415 78.8617 71.4189 79.2354 71.4189C79.7048 71.4189 80.099 71.3301 80.418 71.1523C80.737 70.9701 80.9922 70.7308 81.1836 70.4346C81.375 70.1338 81.514 69.8057 81.6006 69.4502V67.3242C81.5459 67.0827 81.4661 66.8366 81.3613 66.5859C81.2565 66.3353 81.113 66.1051 80.9307 65.8955C80.7529 65.6813 80.5251 65.5104 80.2471 65.3828C79.9736 65.2507 79.641 65.1846 79.249 65.1846C78.8708 65.1846 78.5449 65.262 78.2715 65.417C77.998 65.5719 77.7702 65.7884 77.5879 66.0664C77.4102 66.3398 77.278 66.6611 77.1914 67.0303C77.1048 67.3994 77.0615 67.8005 77.0615 68.2334Z" fill="#585656"/>
<path d="M69.6855 66.1846V72.002H68.8721V64.6055H69.6514L69.6855 66.1846ZM69.501 67.8457L69.1387 67.6406C69.166 67.2031 69.2549 66.793 69.4053 66.4102C69.5557 66.0273 69.7585 65.6901 70.0137 65.3984C70.2734 65.1068 70.5765 64.8789 70.9229 64.7148C71.2738 64.5508 71.6611 64.4688 72.085 64.4688C72.4541 64.4688 72.7845 64.5189 73.0762 64.6191C73.3678 64.7194 73.6162 64.8789 73.8213 65.0977C74.0264 65.3164 74.1813 65.5967 74.2861 65.9385C74.3955 66.2803 74.4502 66.6973 74.4502 67.1895V72.002H73.6299V67.1826C73.6299 66.6722 73.5592 66.2734 73.418 65.9863C73.2767 65.6947 73.0762 65.4873 72.8164 65.3643C72.5566 65.2412 72.249 65.1797 71.8936 65.1797C71.5016 65.1797 71.1576 65.2663 70.8613 65.4395C70.5697 65.6081 70.3236 65.8291 70.123 66.1025C69.9271 66.3714 69.7767 66.6608 69.6719 66.9707C69.5671 67.276 69.5101 67.5677 69.501 67.8457Z" fill="#585656"/>
<path d="M64.4834 72.1387C64.0003 72.1387 63.556 72.0498 63.1504 71.8721C62.7493 71.6943 62.3984 71.4437 62.0977 71.1201C61.8014 70.7965 61.5713 70.4137 61.4072 69.9717C61.2477 69.5251 61.168 69.0374 61.168 68.5088V68.2148C61.168 67.6452 61.2523 67.1302 61.4209 66.6699C61.5895 66.2096 61.8219 65.8154 62.1182 65.4873C62.4144 65.1592 62.7516 64.9085 63.1299 64.7354C63.5127 64.5576 63.9137 64.4688 64.333 64.4688C64.8024 64.4688 65.2194 64.5531 65.584 64.7217C65.9486 64.8857 66.2539 65.1204 66.5 65.4258C66.7507 65.7266 66.9398 66.0843 67.0674 66.499C67.195 66.9092 67.2588 67.3626 67.2588 67.8594V68.3584H61.6602V67.6611H66.4453V67.5654C66.4362 67.1507 66.3519 66.7633 66.1924 66.4033C66.0374 66.0387 65.805 65.7425 65.4951 65.5146C65.1852 65.2868 64.7979 65.1729 64.333 65.1729C63.9867 65.1729 63.6676 65.2458 63.376 65.3916C63.0889 65.5374 62.8405 65.7471 62.6309 66.0205C62.4258 66.2894 62.2663 66.6107 62.1523 66.9844C62.043 67.3535 61.9883 67.7637 61.9883 68.2148V68.5088C61.9883 68.9189 62.0475 69.3018 62.166 69.6572C62.2891 70.0081 62.4622 70.318 62.6855 70.5869C62.9134 70.8558 63.1823 71.0654 63.4922 71.2158C63.8021 71.3662 64.1439 71.4414 64.5176 71.4414C64.9551 71.4414 65.3424 71.3617 65.6797 71.2021C66.0169 71.0381 66.32 70.7806 66.5889 70.4297L67.1016 70.8262C66.9421 71.0632 66.7415 71.2819 66.5 71.4824C66.263 71.6829 65.9782 71.8424 65.6455 71.9609C65.3128 72.0794 64.9255 72.1387 64.4834 72.1387Z" fill="#585656"/>
<path d="M57.8594 65.8291V72.002H57.0459V64.6055H57.8389L57.8594 65.8291ZM60.4775 64.5508L60.457 65.3027C60.3659 65.2891 60.277 65.2777 60.1904 65.2686C60.1038 65.2594 60.0104 65.2549 59.9102 65.2549C59.5547 65.2549 59.2425 65.321 58.9736 65.4531C58.7093 65.5807 58.486 65.7607 58.3037 65.9932C58.1214 66.221 57.9824 66.4899 57.8867 66.7998C57.791 67.1051 57.7363 67.4333 57.7227 67.7842L57.4219 67.9004C57.4219 67.4173 57.472 66.9684 57.5723 66.5537C57.6725 66.139 57.8252 65.7767 58.0303 65.4668C58.2399 65.1523 58.502 64.9085 58.8164 64.7354C59.1354 64.5576 59.5091 64.4688 59.9375 64.4688C60.0423 64.4688 60.1449 64.4779 60.2451 64.4961C60.3499 64.5098 60.4274 64.528 60.4775 64.5508Z" fill="#585656"/>
<path d="M52.7256 62.0469V72H51.8916V62.0469H52.7256ZM56.1367 62.0469V62.7715H48.4873V62.0469H56.1367Z" fill="#585656"/>
<path d="M39.3545 67.0781L38.7119 66.8936L39.1973 62.0469H44.1738V62.8125H39.8945L39.5459 66.1621C39.7191 66.0391 39.9697 65.9183 40.2979 65.7998C40.6305 65.6768 41.0042 65.6152 41.4189 65.6152C41.861 65.6152 42.262 65.6904 42.6221 65.8408C42.9867 65.9867 43.2988 66.2008 43.5586 66.4834C43.8184 66.7614 44.0189 67.0986 44.1602 67.4951C44.3014 67.887 44.3721 68.3314 44.3721 68.8281C44.3721 69.3066 44.3128 69.7464 44.1943 70.1475C44.0758 70.5485 43.8958 70.8994 43.6543 71.2002C43.4128 71.4964 43.1051 71.7266 42.7314 71.8906C42.3577 72.0547 41.9134 72.1367 41.3984 72.1367C41.002 72.1367 40.6283 72.082 40.2773 71.9727C39.931 71.8587 39.6211 71.6878 39.3477 71.46C39.0742 71.2321 38.8509 70.945 38.6777 70.5986C38.5091 70.2523 38.4043 69.8467 38.3633 69.3818H39.1494C39.2041 69.8285 39.3249 70.2044 39.5117 70.5098C39.6986 70.8151 39.9492 71.0452 40.2637 71.2002C40.5827 71.3551 40.9609 71.4326 41.3984 71.4326C41.7539 71.4326 42.0638 71.3757 42.3281 71.2617C42.597 71.1478 42.8203 70.9814 42.998 70.7627C43.1803 70.5394 43.3171 70.2682 43.4082 69.9492C43.5039 69.6257 43.5518 69.2565 43.5518 68.8418C43.5518 68.4863 43.5016 68.1605 43.4014 67.8643C43.3011 67.5635 43.153 67.3014 42.957 67.0781C42.7656 66.8503 42.5286 66.6748 42.2461 66.5518C41.9635 66.4287 41.64 66.3672 41.2754 66.3672C40.8014 66.3672 40.4232 66.431 40.1406 66.5586C39.8626 66.6862 39.6006 66.8594 39.3545 67.0781Z" fill="#585656"/>
<path d="M36.6201 71.292V71.9961H30.3926V71.3604L33.6533 67.6621C34.0589 67.2018 34.3825 66.7985 34.624 66.4521C34.8656 66.1012 35.0387 65.7822 35.1436 65.4951C35.2529 65.2035 35.3076 64.9209 35.3076 64.6475C35.3076 64.2464 35.2279 63.8932 35.0684 63.5879C34.9134 63.2826 34.681 63.0433 34.3711 62.8701C34.0612 62.6969 33.6784 62.6104 33.2227 62.6104C32.7669 62.6104 32.3704 62.7083 32.0332 62.9043C31.696 63.1003 31.4362 63.3737 31.2539 63.7246C31.0762 64.071 30.9873 64.4652 30.9873 64.9072H30.1738C30.1738 64.3604 30.2946 63.859 30.5361 63.4033C30.7822 62.9476 31.1331 62.5853 31.5889 62.3164C32.0446 62.043 32.5892 61.9062 33.2227 61.9062C33.8242 61.9062 34.3415 62.0133 34.7744 62.2275C35.2074 62.4372 35.54 62.7402 35.7725 63.1367C36.0094 63.5332 36.1279 64.0117 36.1279 64.5723C36.1279 64.873 36.0732 65.1761 35.9639 65.4814C35.859 65.7868 35.7132 66.0921 35.5264 66.3975C35.3441 66.6982 35.1344 66.9967 34.8975 67.293C34.665 67.5892 34.4212 67.8809 34.166 68.168L31.3906 71.292H36.6201Z" fill="#585656"/>
<path d="M28.6221 66.1719V67.8467C28.6221 68.5758 28.5537 69.2116 28.417 69.7539C28.2803 70.2917 28.0798 70.7383 27.8154 71.0938C27.5557 71.4447 27.2367 71.7067 26.8584 71.8799C26.4847 72.0531 26.0563 72.1396 25.5732 72.1396C25.1904 72.1396 24.8395 72.085 24.5205 71.9756C24.2015 71.8662 23.9167 71.6999 23.666 71.4766C23.4199 71.2487 23.2103 70.9639 23.0371 70.6221C22.8639 70.2803 22.7318 69.8792 22.6406 69.4189C22.5495 68.9541 22.5039 68.43 22.5039 67.8467V66.1719C22.5039 65.4382 22.5723 64.8047 22.709 64.2715C22.8503 63.7383 23.0508 63.2962 23.3105 62.9453C23.5749 62.5944 23.8962 62.3346 24.2744 62.166C24.6527 61.9928 25.0811 61.9062 25.5596 61.9062C25.9424 61.9062 26.2933 61.9632 26.6123 62.0771C26.9359 62.1865 27.2207 62.3506 27.4668 62.5693C27.7174 62.7881 27.9271 63.0684 28.0957 63.4102C28.2689 63.7474 28.3988 64.1462 28.4854 64.6064C28.5765 65.0667 28.6221 65.5885 28.6221 66.1719ZM27.8086 67.9424V66.0693C27.8086 65.6182 27.7767 65.208 27.7129 64.8389C27.6536 64.4697 27.5648 64.1462 27.4463 63.8682C27.3278 63.5902 27.1774 63.3577 26.9951 63.1709C26.8174 62.984 26.6077 62.8451 26.3662 62.7539C26.1292 62.6582 25.8604 62.6104 25.5596 62.6104C25.1904 62.6104 24.8646 62.6855 24.582 62.8359C24.304 62.9818 24.0716 63.2005 23.8848 63.4922C23.6979 63.7793 23.5566 64.1393 23.4609 64.5723C23.3698 65.0052 23.3242 65.5042 23.3242 66.0693V67.9424C23.3242 68.389 23.3538 68.7969 23.4131 69.166C23.4723 69.5306 23.5635 69.8542 23.6865 70.1367C23.8096 70.4193 23.96 70.6585 24.1377 70.8545C24.32 71.0459 24.5296 71.1917 24.7666 71.292C25.0081 71.3877 25.277 71.4355 25.5732 71.4355C25.9515 71.4355 26.2796 71.3604 26.5576 71.21C26.8356 71.055 27.068 70.8294 27.2549 70.5332C27.4417 70.2324 27.5807 69.8656 27.6719 69.4326C27.763 68.9951 27.8086 68.4984 27.8086 67.9424Z" fill="#585656"/>
<path d="M21.0889 71.292V71.9961H14.8613V71.3604L18.1221 67.6621C18.5277 67.2018 18.8512 66.7985 19.0928 66.4521C19.3343 66.1012 19.5075 65.7822 19.6123 65.4951C19.7217 65.2035 19.7764 64.9209 19.7764 64.6475C19.7764 64.2464 19.6966 63.8932 19.5371 63.5879C19.3822 63.2826 19.1497 63.0433 18.8398 62.8701C18.5299 62.6969 18.1471 62.6104 17.6914 62.6104C17.2357 62.6104 16.8392 62.7083 16.502 62.9043C16.1647 63.1003 15.9049 63.3737 15.7227 63.7246C15.5449 64.071 15.4561 64.4652 15.4561 64.9072H14.6426C14.6426 64.3604 14.7633 63.859 15.0049 63.4033C15.251 62.9476 15.6019 62.5853 16.0576 62.3164C16.5133 62.043 17.0579 61.9062 17.6914 61.9062C18.293 61.9062 18.8102 62.0133 19.2432 62.2275C19.6761 62.4372 20.0088 62.7402 20.2412 63.1367C20.4782 63.5332 20.5967 64.0117 20.5967 64.5723C20.5967 64.873 20.542 65.1761 20.4326 65.4814C20.3278 65.7868 20.182 66.0921 19.9951 66.3975C19.8128 66.6982 19.6032 66.9967 19.3662 67.293C19.1338 67.5892 18.89 67.8809 18.6348 68.168L15.8594 71.292H21.0889Z" fill="#585656"/>
<path d="M6.2959 67.8467H6.97266C6.97266 68.5622 6.77897 69.0999 6.3916 69.46C6.00423 69.8154 5.48014 69.9932 4.81934 69.9932C4.36361 69.9932 3.96484 69.8815 3.62305 69.6582C3.28125 69.4349 3.01465 69.125 2.82324 68.7285C2.63639 68.332 2.54297 67.8717 2.54297 67.3477V66.6846C2.54297 66.1605 2.63639 65.7002 2.82324 65.3037C3.01465 64.9072 3.28125 64.5973 3.62305 64.374C3.96484 64.1507 4.36361 64.0391 4.81934 64.0391C5.48014 64.0391 6.00423 64.2168 6.3916 64.5723C6.78353 64.9277 6.97949 65.4632 6.97949 66.1787H6.30273C6.30273 65.6546 6.17513 65.2695 5.91992 65.0234C5.66927 64.7773 5.30241 64.6543 4.81934 64.6543C4.47754 64.6543 4.18587 64.7432 3.94434 64.9209C3.70736 65.0986 3.52734 65.3402 3.4043 65.6455C3.28125 65.9508 3.21973 66.2949 3.21973 66.6777V67.3477C3.21973 67.7305 3.28125 68.0768 3.4043 68.3867C3.52734 68.6921 3.70736 68.9336 3.94434 69.1113C4.18587 69.2845 4.47754 69.3711 4.81934 69.3711C5.30241 69.3711 5.66927 69.2503 5.91992 69.0088C6.17057 68.7673 6.2959 68.3799 6.2959 67.8467ZM0.62207 67.0127C0.62207 67.6462 0.731445 68.2386 0.950195 68.79C1.1735 69.3415 1.48112 69.8245 1.87305 70.2393C2.26497 70.6494 2.71842 70.9707 3.2334 71.2031C3.75293 71.431 4.30664 71.5449 4.89453 71.5449C5.47786 71.5449 6.02702 71.431 6.54199 71.2031C7.05697 70.9707 7.51042 70.6494 7.90234 70.2393C8.29427 69.8245 8.59961 69.3415 8.81836 68.79C9.04167 68.2386 9.15332 67.6462 9.15332 67.0127C9.15332 66.3747 9.04167 65.7822 8.81836 65.2354C8.59961 64.6885 8.29427 64.21 7.90234 63.7998C7.51042 63.3896 7.05697 63.0706 6.54199 62.8428C6.02702 62.6149 5.47786 62.501 4.89453 62.501C4.30664 62.501 3.75293 62.6149 3.2334 62.8428C2.71842 63.0706 2.26497 63.3896 1.87305 63.7998C1.48112 64.21 1.1735 64.6885 0.950195 65.2354C0.731445 65.7822 0.62207 66.3747 0.62207 67.0127ZM0.0410156 67.0127C0.0410156 66.2881 0.166341 65.6159 0.416992 64.9961C0.667643 64.3763 1.01628 63.8363 1.46289 63.376C1.90951 62.9111 2.42448 62.5511 3.00781 62.2959C3.5957 62.0361 4.22461 61.9062 4.89453 61.9062C5.56445 61.9062 6.19108 62.0361 6.77441 62.2959C7.3623 62.5511 7.87728 62.9111 8.31934 63.376C8.76595 63.8363 9.11458 64.3763 9.36523 64.9961C9.61589 65.6159 9.74121 66.2881 9.74121 67.0127C9.74121 67.7373 9.61589 68.4095 9.36523 69.0293C9.11458 69.6491 8.76595 70.1937 8.31934 70.6631C7.87728 71.1279 7.3623 71.4902 6.77441 71.75C6.19108 72.0098 5.56445 72.1396 4.89453 72.1396C4.22461 72.1396 3.5957 72.0098 3.00781 71.75C2.42448 71.4902 1.90951 71.1279 1.46289 70.6631C1.01628 70.1937 0.667643 69.6491 0.416992 69.0293C0.166341 68.4095 0.0410156 67.7373 0.0410156 67.0127Z" fill="#585656"/>
<path d="M248.11 34.1094V40.002H246.463V32.6055H248.015L248.11 34.1094ZM247.844 36.0303L247.283 36.0234C247.283 35.513 247.347 35.0413 247.475 34.6084C247.602 34.1755 247.789 33.7995 248.035 33.4805C248.281 33.1569 248.587 32.9085 248.951 32.7354C249.32 32.5576 249.746 32.4688 250.229 32.4688C250.567 32.4688 250.874 32.5189 251.152 32.6191C251.435 32.7148 251.679 32.8675 251.884 33.0771C252.093 33.2868 252.253 33.5557 252.362 33.8838C252.476 34.2119 252.533 34.6084 252.533 35.0732V40.002H250.886V35.2168C250.886 34.8568 250.831 34.5742 250.722 34.3691C250.617 34.1641 250.464 34.0182 250.264 33.9316C250.068 33.8405 249.833 33.7949 249.56 33.7949C249.25 33.7949 248.985 33.8542 248.767 33.9727C248.552 34.0911 248.377 34.2529 248.24 34.458C248.104 34.6631 248.003 34.9001 247.939 35.1689C247.876 35.4378 247.844 35.7249 247.844 36.0303ZM252.431 35.5928L251.658 35.7637C251.658 35.3171 251.72 34.8955 251.843 34.499C251.97 34.098 252.155 33.7471 252.396 33.4463C252.643 33.141 252.946 32.9017 253.306 32.7285C253.666 32.5553 254.078 32.4688 254.543 32.4688C254.921 32.4688 255.258 32.5212 255.555 32.626C255.855 32.7262 256.111 32.8857 256.32 33.1045C256.53 33.3232 256.689 33.6081 256.799 33.959C256.908 34.3053 256.963 34.7246 256.963 35.2168V40.002H255.309V35.21C255.309 34.8363 255.254 34.5469 255.145 34.3418C255.04 34.1367 254.889 33.9954 254.693 33.918C254.497 33.8359 254.263 33.7949 253.989 33.7949C253.734 33.7949 253.508 33.8428 253.312 33.9385C253.121 34.0296 252.959 34.1595 252.827 34.3281C252.695 34.4922 252.595 34.6813 252.526 34.8955C252.463 35.1097 252.431 35.3421 252.431 35.5928Z" fill="#585656"/>
<path d="M238.205 36.3857V36.2285C238.205 35.6953 238.283 35.2008 238.438 34.7451C238.592 34.2848 238.816 33.8861 239.107 33.5488C239.404 33.207 239.764 32.9427 240.188 32.7559C240.616 32.5645 241.099 32.4688 241.637 32.4688C242.179 32.4688 242.662 32.5645 243.086 32.7559C243.514 32.9427 243.877 33.207 244.173 33.5488C244.469 33.8861 244.695 34.2848 244.85 34.7451C245.005 35.2008 245.082 35.6953 245.082 36.2285V36.3857C245.082 36.9189 245.005 37.4134 244.85 37.8691C244.695 38.3249 244.469 38.7236 244.173 39.0654C243.877 39.4027 243.517 39.667 243.093 39.8584C242.669 40.0452 242.188 40.1387 241.65 40.1387C241.108 40.1387 240.623 40.0452 240.194 39.8584C239.771 39.667 239.41 39.4027 239.114 39.0654C238.818 38.7236 238.592 38.3249 238.438 37.8691C238.283 37.4134 238.205 36.9189 238.205 36.3857ZM239.853 36.2285V36.3857C239.853 36.7184 239.887 37.0329 239.955 37.3291C240.023 37.6253 240.131 37.8851 240.276 38.1084C240.422 38.3317 240.609 38.5072 240.837 38.6348C241.065 38.7624 241.336 38.8262 241.65 38.8262C241.956 38.8262 242.22 38.7624 242.443 38.6348C242.671 38.5072 242.858 38.3317 243.004 38.1084C243.15 37.8851 243.257 37.6253 243.325 37.3291C243.398 37.0329 243.435 36.7184 243.435 36.3857V36.2285C243.435 35.9004 243.398 35.5905 243.325 35.2988C243.257 35.0026 243.147 34.7406 242.997 34.5127C242.851 34.2848 242.664 34.1071 242.437 33.9795C242.213 33.8473 241.947 33.7812 241.637 33.7812C241.327 33.7812 241.058 33.8473 240.83 33.9795C240.607 34.1071 240.422 34.2848 240.276 34.5127C240.131 34.7406 240.023 35.0026 239.955 35.2988C239.887 35.5905 239.853 35.9004 239.853 36.2285Z" fill="#585656"/>
<path d="M234.227 38.8262C234.495 38.8262 234.737 38.7738 234.951 38.6689C235.17 38.5596 235.345 38.4092 235.478 38.2178C235.614 38.0264 235.689 37.8053 235.703 37.5547H237.255C237.246 38.0332 237.104 38.4684 236.831 38.8604C236.558 39.2523 236.195 39.5645 235.744 39.7969C235.293 40.0247 234.794 40.1387 234.247 40.1387C233.682 40.1387 233.19 40.043 232.771 39.8516C232.351 39.6556 232.003 39.3867 231.725 39.0449C231.447 38.7031 231.237 38.3089 231.096 37.8623C230.959 37.4157 230.891 36.9372 230.891 36.4268V36.1875C230.891 35.6771 230.959 35.1986 231.096 34.752C231.237 34.3008 231.447 33.9043 231.725 33.5625C232.003 33.2207 232.351 32.9541 232.771 32.7627C233.19 32.5667 233.68 32.4688 234.24 32.4688C234.833 32.4688 235.352 32.5872 235.799 32.8242C236.245 33.0566 236.596 33.3825 236.852 33.8018C237.111 34.2165 237.246 34.6995 237.255 35.251H235.703C235.689 34.9775 235.621 34.7314 235.498 34.5127C235.38 34.2894 235.211 34.1117 234.992 33.9795C234.778 33.8473 234.521 33.7812 234.22 33.7812C233.887 33.7812 233.611 33.8496 233.393 33.9863C233.174 34.1185 233.003 34.3008 232.88 34.5332C232.757 34.7611 232.668 35.0186 232.613 35.3057C232.563 35.5882 232.538 35.8822 232.538 36.1875V36.4268C232.538 36.7321 232.563 37.0283 232.613 37.3154C232.663 37.6025 232.75 37.86 232.873 38.0879C233.001 38.3112 233.174 38.4912 233.393 38.6279C233.611 38.7601 233.889 38.8262 234.227 38.8262Z" fill="#585656"/>
<path d="M227.377 39.1826C227.377 38.9274 227.464 38.7132 227.637 38.54C227.81 38.3623 228.045 38.2734 228.341 38.2734C228.642 38.2734 228.876 38.3623 229.045 38.54C229.218 38.7132 229.305 38.9274 229.305 39.1826C229.305 39.4378 229.218 39.652 229.045 39.8252C228.876 39.9984 228.642 40.085 228.341 40.085C228.045 40.085 227.81 39.9984 227.637 39.8252C227.464 39.652 227.377 39.4378 227.377 39.1826Z" fill="#585656"/>
<path d="M225.504 29.5V40H223.85V29.5H225.504Z" fill="#585656"/>
<path d="M221.936 32.6055V40.002H220.281V32.6055H221.936ZM220.172 30.6641C220.172 30.4134 220.254 30.2061 220.418 30.042C220.587 29.8734 220.819 29.7891 221.115 29.7891C221.407 29.7891 221.637 29.8734 221.806 30.042C221.974 30.2061 222.059 30.4134 222.059 30.6641C222.059 30.9102 221.974 31.1152 221.806 31.2793C221.637 31.4434 221.407 31.5254 221.115 31.5254C220.819 31.5254 220.587 31.4434 220.418 31.2793C220.254 31.1152 220.172 30.9102 220.172 30.6641Z" fill="#585656"/>
<path d="M216.795 38.5186V34.9912C216.795 34.7269 216.747 34.499 216.651 34.3076C216.556 34.1162 216.41 33.9681 216.214 33.8633C216.022 33.7585 215.781 33.7061 215.489 33.7061C215.22 33.7061 214.988 33.7516 214.792 33.8428C214.596 33.9339 214.443 34.057 214.334 34.2119C214.225 34.3669 214.17 34.5423 214.17 34.7383H212.529C212.529 34.4466 212.6 34.1641 212.741 33.8906C212.882 33.6172 213.088 33.3734 213.356 33.1592C213.625 32.945 213.947 32.7764 214.32 32.6533C214.694 32.5303 215.113 32.4688 215.578 32.4688C216.134 32.4688 216.626 32.5622 217.055 32.749C217.488 32.9359 217.827 33.2184 218.073 33.5967C218.324 33.9704 218.449 34.4398 218.449 35.0049V38.293C218.449 38.6302 218.472 38.9333 218.518 39.2021C218.568 39.4665 218.638 39.6966 218.729 39.8926V40.002H217.041C216.964 39.8242 216.902 39.5986 216.856 39.3252C216.815 39.0472 216.795 38.7783 216.795 38.5186ZM217.034 35.5039L217.048 36.5225H215.865C215.56 36.5225 215.291 36.5521 215.059 36.6113C214.826 36.666 214.632 36.748 214.478 36.8574C214.323 36.9668 214.206 37.099 214.129 37.2539C214.051 37.4089 214.013 37.5843 214.013 37.7803C214.013 37.9762 214.058 38.1562 214.149 38.3203C214.241 38.4798 214.373 38.6051 214.546 38.6963C214.724 38.7874 214.938 38.833 215.188 38.833C215.526 38.833 215.82 38.7646 216.07 38.6279C216.326 38.4867 216.526 38.3158 216.672 38.1152C216.818 37.9102 216.895 37.7165 216.904 37.5342L217.438 38.2656C217.383 38.4525 217.289 38.653 217.157 38.8672C217.025 39.0814 216.852 39.2865 216.638 39.4824C216.428 39.6738 216.175 39.8311 215.879 39.9541C215.587 40.0771 215.25 40.1387 214.867 40.1387C214.384 40.1387 213.953 40.043 213.575 39.8516C213.197 39.6556 212.901 39.3936 212.687 39.0654C212.472 38.7327 212.365 38.3568 212.365 37.9375C212.365 37.5456 212.438 37.1992 212.584 36.8984C212.734 36.5931 212.953 36.3379 213.24 36.1328C213.532 35.9277 213.887 35.7728 214.307 35.668C214.726 35.5586 215.204 35.5039 215.742 35.5039H217.034Z" fill="#585656"/>
<path d="M202.077 34.1094V40.002H200.43V32.6055H201.981L202.077 34.1094ZM201.811 36.0303L201.25 36.0234C201.25 35.513 201.314 35.0413 201.441 34.6084C201.569 34.1755 201.756 33.7995 202.002 33.4805C202.248 33.1569 202.553 32.9085 202.918 32.7354C203.287 32.5576 203.713 32.4688 204.196 32.4688C204.534 32.4688 204.841 32.5189 205.119 32.6191C205.402 32.7148 205.646 32.8675 205.851 33.0771C206.06 33.2868 206.22 33.5557 206.329 33.8838C206.443 34.2119 206.5 34.6084 206.5 35.0732V40.002H204.853V35.2168C204.853 34.8568 204.798 34.5742 204.688 34.3691C204.584 34.1641 204.431 34.0182 204.23 33.9316C204.035 33.8405 203.8 33.7949 203.526 33.7949C203.216 33.7949 202.952 33.8542 202.733 33.9727C202.519 34.0911 202.344 34.2529 202.207 34.458C202.07 34.6631 201.97 34.9001 201.906 35.1689C201.842 35.4378 201.811 35.7249 201.811 36.0303ZM206.397 35.5928L205.625 35.7637C205.625 35.3171 205.687 34.8955 205.81 34.499C205.937 34.098 206.122 33.7471 206.363 33.4463C206.609 33.141 206.912 32.9017 207.272 32.7285C207.632 32.5553 208.045 32.4688 208.51 32.4688C208.888 32.4688 209.225 32.5212 209.521 32.626C209.822 32.7262 210.077 32.8857 210.287 33.1045C210.497 33.3232 210.656 33.6081 210.766 33.959C210.875 34.3053 210.93 34.7246 210.93 35.2168V40.002H209.275V35.21C209.275 34.8363 209.221 34.5469 209.111 34.3418C209.007 34.1367 208.856 33.9954 208.66 33.918C208.464 33.8359 208.229 33.7949 207.956 33.7949C207.701 33.7949 207.475 33.8428 207.279 33.9385C207.088 34.0296 206.926 34.1595 206.794 34.3281C206.662 34.4922 206.562 34.6813 206.493 34.8955C206.429 35.1097 206.397 35.3421 206.397 35.5928Z" fill="#585656"/>
<path d="M197.224 32.6055H198.721V39.7969C198.721 40.4622 198.579 41.0273 198.297 41.4922C198.014 41.957 197.62 42.3102 197.114 42.5518C196.608 42.7979 196.023 42.9209 195.357 42.9209C195.075 42.9209 194.76 42.8799 194.414 42.7979C194.072 42.7158 193.74 42.5837 193.416 42.4014C193.097 42.2236 192.83 41.9889 192.616 41.6973L193.389 40.7266C193.653 41.041 193.945 41.2712 194.264 41.417C194.583 41.5628 194.918 41.6357 195.269 41.6357C195.647 41.6357 195.968 41.5651 196.232 41.4238C196.501 41.2871 196.709 41.0843 196.854 40.8154C197 40.5465 197.073 40.2184 197.073 39.8311V34.2803L197.224 32.6055ZM192.199 36.3857V36.2422C192.199 35.6816 192.268 35.1712 192.404 34.7109C192.541 34.2461 192.737 33.8473 192.992 33.5146C193.247 33.1774 193.557 32.9199 193.922 32.7422C194.286 32.5599 194.699 32.4688 195.159 32.4688C195.638 32.4688 196.046 32.5553 196.383 32.7285C196.725 32.9017 197.009 33.1501 197.237 33.4736C197.465 33.7926 197.643 34.1755 197.771 34.6221C197.903 35.0641 198.001 35.5563 198.064 36.0986V36.5566C198.005 37.0853 197.905 37.5684 197.764 38.0059C197.622 38.4434 197.436 38.8216 197.203 39.1406C196.971 39.4596 196.684 39.7057 196.342 39.8789C196.005 40.0521 195.606 40.1387 195.146 40.1387C194.694 40.1387 194.286 40.0452 193.922 39.8584C193.562 39.6715 193.252 39.4095 192.992 39.0723C192.737 38.735 192.541 38.3385 192.404 37.8828C192.268 37.4225 192.199 36.9235 192.199 36.3857ZM193.847 36.2422V36.3857C193.847 36.723 193.879 37.0374 193.942 37.3291C194.011 37.6208 194.113 37.8783 194.25 38.1016C194.391 38.3203 194.569 38.4935 194.783 38.6211C195.002 38.7441 195.259 38.8057 195.556 38.8057C195.943 38.8057 196.26 38.7236 196.506 38.5596C196.757 38.3955 196.948 38.1745 197.08 37.8965C197.217 37.6139 197.312 37.2995 197.367 36.9531V35.7158C197.34 35.4469 197.283 35.1963 197.196 34.9639C197.114 34.7314 197.003 34.5286 196.861 34.3555C196.72 34.1777 196.542 34.041 196.328 33.9453C196.114 33.8451 195.861 33.7949 195.569 33.7949C195.273 33.7949 195.016 33.8587 194.797 33.9863C194.578 34.1139 194.398 34.2894 194.257 34.5127C194.12 34.736 194.018 34.9958 193.949 35.292C193.881 35.5882 193.847 35.9049 193.847 36.2422Z" fill="#585656"/>
<path d="M190.989 36.4463C190.971 36.8883 190.905 37.3281 190.791 37.7656C190.677 38.2031 190.504 38.6019 190.272 38.9619C190.044 39.3219 189.75 39.609 189.39 39.8232C189.03 40.0374 188.597 40.1445 188.091 40.1445C187.786 40.1445 187.514 40.0921 187.277 39.9873C187.04 39.8779 186.842 39.723 186.683 39.5225C186.528 39.3219 186.416 39.0804 186.348 38.7979C186.279 38.5107 186.261 38.1917 186.293 37.8408L186.642 33.9648H187.838L187.496 37.8408C187.469 38.1188 187.473 38.3467 187.51 38.5244C187.551 38.7021 187.612 38.8389 187.694 38.9346C187.776 39.0303 187.87 39.0964 187.975 39.1328C188.079 39.1693 188.184 39.1875 188.289 39.1875C188.535 39.1875 188.756 39.1191 188.952 38.9824C189.148 38.8411 189.314 38.6475 189.451 38.4014C189.592 38.1507 189.702 37.8613 189.779 37.5332C189.861 37.2051 189.909 36.8496 189.923 36.4668C189.955 35.8288 189.925 35.2409 189.834 34.7031C189.743 34.1608 189.588 33.6777 189.369 33.2539C189.155 32.8301 188.875 32.4723 188.528 32.1807C188.187 31.8844 187.776 31.6589 187.298 31.5039C186.819 31.349 186.272 31.2715 185.657 31.2715C185.092 31.2715 184.57 31.3581 184.092 31.5312C183.613 31.7044 183.185 31.9551 182.807 32.2832C182.428 32.6068 182.103 32.9964 181.829 33.4521C181.56 33.9033 181.348 34.4115 181.193 34.9766C181.043 35.5371 180.954 36.1387 180.927 36.7812C180.895 37.4557 180.929 38.071 181.029 38.627C181.134 39.1829 181.303 39.6751 181.535 40.1035C181.768 40.5319 182.059 40.8919 182.41 41.1836C182.766 41.4798 183.176 41.7031 183.641 41.8535C184.11 42.0039 184.63 42.0791 185.199 42.0791C185.6 42.0791 186.006 42.0335 186.416 41.9424C186.831 41.8512 187.179 41.7305 187.462 41.5801L187.722 42.4893C187.403 42.6943 187.004 42.847 186.525 42.9473C186.047 43.0475 185.596 43.0977 185.172 43.0977C184.466 43.0977 183.818 43.0065 183.23 42.8242C182.647 42.6419 182.13 42.373 181.679 42.0176C181.232 41.6667 180.861 41.236 180.564 40.7256C180.268 40.2152 180.05 39.6296 179.908 38.9688C179.767 38.3079 179.712 37.5788 179.744 36.7812C179.776 36.0339 179.89 35.332 180.086 34.6758C180.282 34.015 180.551 33.4157 180.893 32.8779C181.239 32.3402 181.649 31.8776 182.123 31.4902C182.602 31.0983 183.139 30.7975 183.736 30.5879C184.333 30.3783 184.983 30.2734 185.685 30.2734C186.396 30.2734 187.038 30.3669 187.612 30.5537C188.187 30.7406 188.69 31.0117 189.123 31.3672C189.561 31.7227 189.923 32.1533 190.21 32.6592C190.497 33.165 190.707 33.737 190.839 34.375C190.971 35.0085 191.021 35.6989 190.989 36.4463ZM184.037 37.0957C184.005 37.4056 184.003 37.6813 184.03 37.9229C184.062 38.1644 184.119 38.3672 184.201 38.5312C184.288 38.6953 184.399 38.8206 184.536 38.9072C184.673 38.9938 184.832 39.0371 185.015 39.0371C185.129 39.0371 185.249 39.0098 185.377 38.9551C185.509 38.8958 185.639 38.8024 185.767 38.6748C185.894 38.5472 186.015 38.3786 186.129 38.1689C186.243 37.9548 186.339 37.6904 186.416 37.376L186.936 37.9707C186.831 38.3262 186.699 38.6406 186.539 38.9141C186.38 39.1829 186.2 39.4085 185.999 39.5908C185.799 39.7686 185.582 39.9053 185.35 40.001C185.117 40.0921 184.876 40.1377 184.625 40.1377C184.292 40.1377 183.996 40.0648 183.736 39.9189C183.481 39.7731 183.272 39.568 183.107 39.3037C182.943 39.0348 182.827 38.7158 182.759 38.3467C182.69 37.973 182.677 37.556 182.718 37.0957C182.763 36.6263 182.85 36.1911 182.978 35.79C183.11 35.389 183.272 35.0312 183.463 34.7168C183.659 34.4023 183.88 34.1357 184.126 33.917C184.372 33.6937 184.636 33.5251 184.919 33.4111C185.206 33.2926 185.5 33.2334 185.801 33.2334C186.316 33.2334 186.719 33.3063 187.011 33.4521C187.302 33.598 187.578 33.7689 187.838 33.9648L187.195 34.7852C187.063 34.6621 186.89 34.5459 186.676 34.4365C186.466 34.3271 186.216 34.2725 185.924 34.2725C185.664 34.2725 185.427 34.3317 185.213 34.4502C185.003 34.5687 184.819 34.7487 184.659 34.9902C184.5 35.2272 184.365 35.5212 184.256 35.8721C184.151 36.223 184.078 36.6309 184.037 37.0957Z" fill="#585656"/>
<path d="M175.677 40.1387C175.13 40.1387 174.635 40.0498 174.193 39.8721C173.756 39.6898 173.382 39.4368 173.072 39.1133C172.767 38.7897 172.532 38.4092 172.368 37.9717C172.204 37.5342 172.122 37.0625 172.122 36.5566V36.2832C172.122 35.7044 172.206 35.1803 172.375 34.7109C172.544 34.2415 172.778 33.8405 173.079 33.5078C173.38 33.1706 173.735 32.9131 174.146 32.7354C174.556 32.5576 175 32.4688 175.479 32.4688C176.007 32.4688 176.47 32.5576 176.866 32.7354C177.263 32.9131 177.591 33.1637 177.851 33.4873C178.115 33.8063 178.311 34.1868 178.438 34.6289C178.571 35.071 178.637 35.5586 178.637 36.0918V36.7959H172.922V35.6133H177.01V35.4834C177.001 35.1872 176.941 34.9092 176.832 34.6494C176.727 34.3896 176.565 34.18 176.347 34.0205C176.128 33.861 175.836 33.7812 175.472 33.7812C175.198 33.7812 174.954 33.8405 174.74 33.959C174.531 34.0729 174.355 34.2393 174.214 34.458C174.073 34.6768 173.963 34.9411 173.886 35.251C173.813 35.5563 173.776 35.9004 173.776 36.2832V36.5566C173.776 36.8802 173.82 37.181 173.906 37.459C173.997 37.7324 174.13 37.9717 174.303 38.1768C174.476 38.3818 174.686 38.5436 174.932 38.6621C175.178 38.776 175.458 38.833 175.772 38.833C176.169 38.833 176.522 38.7533 176.832 38.5938C177.142 38.4342 177.411 38.2087 177.639 37.917L178.507 38.7578C178.347 38.9902 178.14 39.2135 177.885 39.4277C177.63 39.6374 177.317 39.8083 176.948 39.9404C176.584 40.0726 176.16 40.1387 175.677 40.1387Z" fill="#585656"/>
<path d="M166.257 34.1846V40.002H164.609V32.6055H166.161L166.257 34.1846ZM165.963 36.0303L165.43 36.0234C165.434 35.4993 165.507 35.0186 165.648 34.5811C165.794 34.1436 165.995 33.7676 166.25 33.4531C166.51 33.1387 166.82 32.8971 167.18 32.7285C167.54 32.5553 167.941 32.4688 168.383 32.4688C168.738 32.4688 169.06 32.5189 169.347 32.6191C169.638 32.7148 169.887 32.8721 170.092 33.0908C170.301 33.3096 170.461 33.5944 170.57 33.9453C170.68 34.2917 170.734 34.7178 170.734 35.2236V40.002H169.08V35.2168C169.08 34.8613 169.028 34.5811 168.923 34.376C168.823 34.1663 168.674 34.0182 168.479 33.9316C168.287 33.8405 168.048 33.7949 167.761 33.7949C167.478 33.7949 167.225 33.8542 167.002 33.9727C166.779 34.0911 166.59 34.2529 166.435 34.458C166.284 34.6631 166.168 34.9001 166.086 35.1689C166.004 35.4378 165.963 35.7249 165.963 36.0303Z" fill="#585656"/>
<path d="M162.818 32.6055V40.002H161.164V32.6055H162.818ZM161.055 30.6641C161.055 30.4134 161.137 30.2061 161.301 30.042C161.469 29.8734 161.702 29.7891 161.998 29.7891C162.29 29.7891 162.52 29.8734 162.688 30.042C162.857 30.2061 162.941 30.4134 162.941 30.6641C162.941 30.9102 162.857 31.1152 162.688 31.2793C162.52 31.4434 162.29 31.5254 161.998 31.5254C161.702 31.5254 161.469 31.4434 161.301 31.2793C161.137 31.1152 161.055 30.9102 161.055 30.6641Z" fill="#585656"/>
<path d="M157.678 38.5186V34.9912C157.678 34.7269 157.63 34.499 157.534 34.3076C157.438 34.1162 157.293 33.9681 157.097 33.8633C156.905 33.7585 156.664 33.7061 156.372 33.7061C156.103 33.7061 155.871 33.7516 155.675 33.8428C155.479 33.9339 155.326 34.057 155.217 34.2119C155.107 34.3669 155.053 34.5423 155.053 34.7383H153.412C153.412 34.4466 153.483 34.1641 153.624 33.8906C153.765 33.6172 153.97 33.3734 154.239 33.1592C154.508 32.945 154.829 32.7764 155.203 32.6533C155.577 32.5303 155.996 32.4688 156.461 32.4688C157.017 32.4688 157.509 32.5622 157.938 32.749C158.37 32.9359 158.71 33.2184 158.956 33.5967C159.207 33.9704 159.332 34.4398 159.332 35.0049V38.293C159.332 38.6302 159.355 38.9333 159.4 39.2021C159.451 39.4665 159.521 39.6966 159.612 39.8926V40.002H157.924C157.846 39.8242 157.785 39.5986 157.739 39.3252C157.698 39.0472 157.678 38.7783 157.678 38.5186ZM157.917 35.5039L157.931 36.5225H156.748C156.443 36.5225 156.174 36.5521 155.941 36.6113C155.709 36.666 155.515 36.748 155.36 36.8574C155.205 36.9668 155.089 37.099 155.012 37.2539C154.934 37.4089 154.896 37.5843 154.896 37.7803C154.896 37.9762 154.941 38.1562 155.032 38.3203C155.123 38.4798 155.256 38.6051 155.429 38.6963C155.606 38.7874 155.821 38.833 156.071 38.833C156.409 38.833 156.702 38.7646 156.953 38.6279C157.208 38.4867 157.409 38.3158 157.555 38.1152C157.701 37.9102 157.778 37.7165 157.787 37.5342L158.32 38.2656C158.266 38.4525 158.172 38.653 158.04 38.8672C157.908 39.0814 157.735 39.2865 157.521 39.4824C157.311 39.6738 157.058 39.8311 156.762 39.9541C156.47 40.0771 156.133 40.1387 155.75 40.1387C155.267 40.1387 154.836 40.043 154.458 39.8516C154.08 39.6556 153.784 39.3936 153.569 39.0654C153.355 38.7327 153.248 38.3568 153.248 37.9375C153.248 37.5456 153.321 37.1992 153.467 36.8984C153.617 36.5931 153.836 36.3379 154.123 36.1328C154.415 35.9277 154.77 35.7728 155.189 35.668C155.609 35.5586 156.087 35.5039 156.625 35.5039H157.917Z" fill="#585656"/>
<path d="M150.459 34.0137V40.002H148.812V32.6055H150.384L150.459 34.0137ZM152.722 32.5576L152.708 34.0889C152.608 34.0706 152.498 34.057 152.38 34.0479C152.266 34.0387 152.152 34.0342 152.038 34.0342C151.756 34.0342 151.507 34.0752 151.293 34.1572C151.079 34.2347 150.899 34.3486 150.753 34.499C150.612 34.6449 150.502 34.8226 150.425 35.0322C150.347 35.2419 150.302 35.4766 150.288 35.7363L149.912 35.7637C149.912 35.2988 149.958 34.8682 150.049 34.4717C150.14 34.0752 150.277 33.7266 150.459 33.4258C150.646 33.125 150.878 32.8903 151.156 32.7217C151.439 32.5531 151.765 32.4688 152.134 32.4688C152.234 32.4688 152.341 32.4779 152.455 32.4961C152.574 32.5143 152.662 32.5348 152.722 32.5576Z" fill="#585656"/>
<path d="M143.165 29.5V40H141.511V29.5H143.165ZM147.759 32.6035L144.539 36.1719L142.775 37.9766L142.345 36.582L143.678 34.9346L145.77 32.6035H147.759ZM146.125 40L143.726 36.5273L144.765 35.3721L148.032 40H146.125Z" fill="#585656"/>
<path d="M138.161 38.2549V32.6016H139.815V39.998H138.257L138.161 38.2549ZM138.394 36.7168L138.947 36.7031C138.947 37.1999 138.893 37.6579 138.783 38.0771C138.674 38.4919 138.505 38.8542 138.277 39.1641C138.049 39.4694 137.758 39.7087 137.402 39.8818C137.047 40.0505 136.621 40.1348 136.124 40.1348C135.764 40.1348 135.434 40.0824 135.133 39.9775C134.832 39.8727 134.572 39.7109 134.354 39.4922C134.139 39.2734 133.973 38.9886 133.854 38.6377C133.736 38.2868 133.677 37.8675 133.677 37.3799V32.6016H135.324V37.3936C135.324 37.6624 135.356 37.888 135.42 38.0703C135.484 38.248 135.57 38.3916 135.68 38.501C135.789 38.6104 135.917 38.6878 136.062 38.7334C136.208 38.779 136.363 38.8018 136.527 38.8018C136.997 38.8018 137.366 38.7106 137.635 38.5283C137.908 38.3415 138.102 38.0908 138.216 37.7764C138.334 37.4619 138.394 37.1087 138.394 36.7168Z" fill="#585656"/>
<path d="M129.883 39.1826C129.883 38.9274 129.969 38.7132 130.143 38.54C130.316 38.3623 130.55 38.2734 130.847 38.2734C131.147 38.2734 131.382 38.3623 131.551 38.54C131.724 38.7132 131.811 38.9274 131.811 39.1826C131.811 39.4378 131.724 39.652 131.551 39.8252C131.382 39.9984 131.147 40.085 130.847 40.085C130.55 40.085 130.316 39.9984 130.143 39.8252C129.969 39.652 129.883 39.4378 129.883 39.1826Z" fill="#585656"/>
<path d="M125.569 40.1387C125.022 40.1387 124.528 40.0498 124.086 39.8721C123.648 39.6898 123.275 39.4368 122.965 39.1133C122.66 38.7897 122.425 38.4092 122.261 37.9717C122.097 37.5342 122.015 37.0625 122.015 36.5566V36.2832C122.015 35.7044 122.099 35.1803 122.268 34.7109C122.436 34.2415 122.671 33.8405 122.972 33.5078C123.272 33.1706 123.628 32.9131 124.038 32.7354C124.448 32.5576 124.893 32.4688 125.371 32.4688C125.9 32.4688 126.362 32.5576 126.759 32.7354C127.155 32.9131 127.483 33.1637 127.743 33.4873C128.007 33.8063 128.203 34.1868 128.331 34.6289C128.463 35.071 128.529 35.5586 128.529 36.0918V36.7959H122.814V35.6133H126.902V35.4834C126.893 35.1872 126.834 34.9092 126.725 34.6494C126.62 34.3896 126.458 34.18 126.239 34.0205C126.021 33.861 125.729 33.7812 125.364 33.7812C125.091 33.7812 124.847 33.8405 124.633 33.959C124.423 34.0729 124.248 34.2393 124.106 34.458C123.965 34.6768 123.856 34.9411 123.778 35.251C123.705 35.5563 123.669 35.9004 123.669 36.2832V36.5566C123.669 36.8802 123.712 37.181 123.799 37.459C123.89 37.7324 124.022 37.9717 124.195 38.1768C124.368 38.3818 124.578 38.5436 124.824 38.6621C125.07 38.776 125.351 38.833 125.665 38.833C126.062 38.833 126.415 38.7533 126.725 38.5938C127.035 38.4342 127.303 38.2087 127.531 37.917L128.399 38.7578C128.24 38.9902 128.033 39.2135 127.777 39.4277C127.522 39.6374 127.21 39.8083 126.841 39.9404C126.476 40.0726 126.052 40.1387 125.569 40.1387Z" fill="#585656"/>
<path d="M119.15 34.0137V40.002H117.503V32.6055H119.075L119.15 34.0137ZM121.413 32.5576L121.399 34.0889C121.299 34.0706 121.19 34.057 121.071 34.0479C120.957 34.0387 120.843 34.0342 120.729 34.0342C120.447 34.0342 120.199 34.0752 119.984 34.1572C119.77 34.2347 119.59 34.3486 119.444 34.499C119.303 34.6449 119.194 34.8226 119.116 35.0322C119.039 35.2419 118.993 35.4766 118.979 35.7363L118.604 35.7637C118.604 35.2988 118.649 34.8682 118.74 34.4717C118.831 34.0752 118.968 33.7266 119.15 33.4258C119.337 33.125 119.57 32.8903 119.848 32.7217C120.13 32.5531 120.456 32.4688 120.825 32.4688C120.925 32.4688 121.033 32.4779 121.146 32.4961C121.265 32.5143 121.354 32.5348 121.413 32.5576Z" fill="#585656"/>
<path d="M109.238 36.3857V36.2285C109.238 35.6953 109.316 35.2008 109.471 34.7451C109.626 34.2848 109.849 33.8861 110.141 33.5488C110.437 33.207 110.797 32.9427 111.221 32.7559C111.649 32.5645 112.132 32.4688 112.67 32.4688C113.212 32.4688 113.695 32.5645 114.119 32.7559C114.548 32.9427 114.91 33.207 115.206 33.5488C115.502 33.8861 115.728 34.2848 115.883 34.7451C116.038 35.2008 116.115 35.6953 116.115 36.2285V36.3857C116.115 36.9189 116.038 37.4134 115.883 37.8691C115.728 38.3249 115.502 38.7236 115.206 39.0654C114.91 39.4027 114.55 39.667 114.126 39.8584C113.702 40.0452 113.221 40.1387 112.684 40.1387C112.141 40.1387 111.656 40.0452 111.228 39.8584C110.804 39.667 110.444 39.4027 110.147 39.0654C109.851 38.7236 109.626 38.3249 109.471 37.8691C109.316 37.4134 109.238 36.9189 109.238 36.3857ZM110.886 36.2285V36.3857C110.886 36.7184 110.92 37.0329 110.988 37.3291C111.057 37.6253 111.164 37.8851 111.31 38.1084C111.455 38.3317 111.642 38.5072 111.87 38.6348C112.098 38.7624 112.369 38.8262 112.684 38.8262C112.989 38.8262 113.253 38.7624 113.477 38.6348C113.704 38.5072 113.891 38.3317 114.037 38.1084C114.183 37.8851 114.29 37.6253 114.358 37.3291C114.431 37.0329 114.468 36.7184 114.468 36.3857V36.2285C114.468 35.9004 114.431 35.5905 114.358 35.2988C114.29 35.0026 114.181 34.7406 114.03 34.5127C113.884 34.2848 113.698 34.1071 113.47 33.9795C113.246 33.8473 112.98 33.7812 112.67 33.7812C112.36 33.7812 112.091 33.8473 111.863 33.9795C111.64 34.1071 111.455 34.2848 111.31 34.5127C111.164 34.7406 111.057 35.0026 110.988 35.2988C110.92 35.5905 110.886 35.9004 110.886 36.2285Z" fill="#585656"/>
<path d="M108.445 32.6006V33.8037H104.275V32.6006H108.445ZM105.479 30.7891H107.126V37.9531C107.126 38.181 107.158 38.3564 107.222 38.4795C107.29 38.598 107.383 38.6777 107.502 38.7188C107.62 38.7598 107.759 38.7803 107.919 38.7803C108.033 38.7803 108.142 38.7734 108.247 38.7598C108.352 38.7461 108.436 38.7324 108.5 38.7188L108.507 39.9766C108.37 40.0176 108.211 40.054 108.028 40.0859C107.851 40.1178 107.646 40.1338 107.413 40.1338C107.035 40.1338 106.7 40.0677 106.408 39.9355C106.117 39.7988 105.889 39.5778 105.725 39.2725C105.561 38.9671 105.479 38.5615 105.479 38.0557V30.7891Z" fill="#585656"/>
<path d="M101.999 37.999C101.999 37.835 101.958 37.6868 101.876 37.5547C101.794 37.418 101.637 37.2949 101.404 37.1855C101.176 37.0762 100.839 36.9759 100.393 36.8848C100.001 36.7982 99.6406 36.6956 99.3125 36.5771C98.9889 36.4541 98.7109 36.306 98.4785 36.1328C98.2461 35.9596 98.0661 35.7546 97.9385 35.5176C97.8109 35.2806 97.7471 35.0072 97.7471 34.6973C97.7471 34.3965 97.8132 34.1117 97.9453 33.8428C98.0775 33.5739 98.2666 33.3369 98.5127 33.1318C98.7588 32.9268 99.0573 32.765 99.4082 32.6465C99.7637 32.528 100.16 32.4688 100.598 32.4688C101.217 32.4688 101.748 32.5736 102.19 32.7832C102.637 32.9883 102.979 33.2686 103.216 33.624C103.453 33.9749 103.571 34.3714 103.571 34.8135H101.924C101.924 34.6175 101.874 34.4352 101.773 34.2666C101.678 34.0934 101.532 33.9544 101.336 33.8496C101.14 33.7402 100.894 33.6855 100.598 33.6855C100.315 33.6855 100.08 33.7311 99.8936 33.8223C99.7113 33.9089 99.5745 34.0228 99.4834 34.1641C99.3968 34.3053 99.3535 34.4603 99.3535 34.6289C99.3535 34.752 99.3763 34.8636 99.4219 34.9639C99.472 35.0596 99.554 35.1484 99.668 35.2305C99.7819 35.3079 99.9368 35.3809 100.133 35.4492C100.333 35.5176 100.584 35.5837 100.885 35.6475C101.45 35.766 101.935 35.9186 102.341 36.1055C102.751 36.2878 103.065 36.5247 103.284 36.8164C103.503 37.1035 103.612 37.4681 103.612 37.9102C103.612 38.2383 103.542 38.5391 103.4 38.8125C103.264 39.0814 103.063 39.3161 102.799 39.5166C102.535 39.7126 102.218 39.8652 101.849 39.9746C101.484 40.084 101.074 40.1387 100.618 40.1387C99.9482 40.1387 99.3809 40.0202 98.916 39.7832C98.4512 39.5417 98.098 39.234 97.8564 38.8604C97.6195 38.4821 97.501 38.0902 97.501 37.6846H99.0938C99.112 37.9899 99.1963 38.2337 99.3467 38.416C99.5016 38.5938 99.693 38.7236 99.9209 38.8057C100.153 38.8831 100.393 38.9219 100.639 38.9219C100.935 38.9219 101.183 38.8831 101.384 38.8057C101.584 38.7236 101.737 38.6143 101.842 38.4775C101.947 38.3363 101.999 38.1768 101.999 37.999Z" fill="#585656"/>
<path d="M94.4727 38.4688V29.5H96.127V40H94.6299L94.4727 38.4688ZM89.6602 36.3838V36.2402C89.6602 35.6797 89.7262 35.1693 89.8584 34.709C89.9906 34.2441 90.182 33.8454 90.4326 33.5127C90.6833 33.1755 90.9886 32.918 91.3486 32.7402C91.7087 32.5579 92.1143 32.4668 92.5654 32.4668C93.012 32.4668 93.404 32.5534 93.7412 32.7266C94.0785 32.8997 94.3656 33.1481 94.6025 33.4717C94.8395 33.7907 95.0286 34.1735 95.1699 34.6201C95.3112 35.0622 95.4115 35.5544 95.4707 36.0967V36.5547C95.4115 37.0833 95.3112 37.5664 95.1699 38.0039C95.0286 38.4414 94.8395 38.8197 94.6025 39.1387C94.3656 39.4577 94.0762 39.7038 93.7344 39.877C93.3971 40.0501 93.0029 40.1367 92.5518 40.1367C92.1051 40.1367 91.7018 40.0433 91.3418 39.8564C90.9863 39.6696 90.6833 39.4076 90.4326 39.0703C90.182 38.7331 89.9906 38.3366 89.8584 37.8809C89.7262 37.4206 89.6602 36.9215 89.6602 36.3838ZM91.3076 36.2402V36.3838C91.3076 36.721 91.3372 37.0355 91.3965 37.3271C91.4603 37.6188 91.5583 37.8763 91.6904 38.0996C91.8226 38.3184 91.9935 38.4915 92.2031 38.6191C92.4173 38.7422 92.6725 38.8037 92.9688 38.8037C93.3424 38.8037 93.6501 38.7217 93.8916 38.5576C94.1331 38.3936 94.3223 38.1725 94.459 37.8945C94.6003 37.612 94.696 37.2975 94.7461 36.9512V35.7139C94.7188 35.445 94.6618 35.1943 94.5752 34.9619C94.4932 34.7295 94.3815 34.5267 94.2402 34.3535C94.099 34.1758 93.9235 34.0391 93.7139 33.9434C93.5088 33.8431 93.265 33.793 92.9824 33.793C92.6816 33.793 92.4264 33.8568 92.2168 33.9844C92.0072 34.112 91.834 34.2874 91.6973 34.5107C91.5651 34.734 91.4671 34.9938 91.4033 35.29C91.3395 35.5863 91.3076 35.903 91.3076 36.2402Z" fill="#585656"/>
<path d="M83.8018 34.1846V40.002H82.1543V32.6055H83.7061L83.8018 34.1846ZM83.5078 36.0303L82.9746 36.0234C82.9792 35.4993 83.0521 35.0186 83.1934 34.5811C83.3392 34.1436 83.5397 33.7676 83.7949 33.4531C84.0547 33.1387 84.3646 32.8971 84.7246 32.7285C85.0846 32.5553 85.4857 32.4688 85.9277 32.4688C86.2832 32.4688 86.6045 32.5189 86.8916 32.6191C87.1833 32.7148 87.4316 32.8721 87.6367 33.0908C87.8464 33.3096 88.0059 33.5944 88.1152 33.9453C88.2246 34.2917 88.2793 34.7178 88.2793 35.2236V40.002H86.625V35.2168C86.625 34.8613 86.5726 34.5811 86.4678 34.376C86.3675 34.1663 86.2194 34.0182 86.0234 33.9316C85.832 33.8405 85.5928 33.7949 85.3057 33.7949C85.0231 33.7949 84.7702 33.8542 84.5469 33.9727C84.3236 34.0911 84.1344 34.2529 83.9795 34.458C83.8291 34.6631 83.7129 34.9001 83.6309 35.1689C83.5488 35.4378 83.5078 35.7249 83.5078 36.0303Z" fill="#585656"/>
<path d="M77.9229 40.1387C77.376 40.1387 76.8815 40.0498 76.4395 39.8721C76.002 39.6898 75.6283 39.4368 75.3184 39.1133C75.013 38.7897 74.7783 38.4092 74.6143 37.9717C74.4502 37.5342 74.3682 37.0625 74.3682 36.5566V36.2832C74.3682 35.7044 74.4525 35.1803 74.6211 34.7109C74.7897 34.2415 75.0244 33.8405 75.3252 33.5078C75.626 33.1706 75.9814 32.9131 76.3916 32.7354C76.8018 32.5576 77.2461 32.4688 77.7246 32.4688C78.2533 32.4688 78.7158 32.5576 79.1123 32.7354C79.5088 32.9131 79.8369 33.1637 80.0967 33.4873C80.361 33.8063 80.557 34.1868 80.6846 34.6289C80.8167 35.071 80.8828 35.5586 80.8828 36.0918V36.7959H75.168V35.6133H79.2559V35.4834C79.2467 35.1872 79.1875 34.9092 79.0781 34.6494C78.9733 34.3896 78.8115 34.18 78.5928 34.0205C78.374 33.861 78.0824 33.7812 77.7178 33.7812C77.4443 33.7812 77.2005 33.8405 76.9863 33.959C76.7767 34.0729 76.6012 34.2393 76.46 34.458C76.3187 34.6768 76.2093 34.9411 76.1318 35.251C76.0589 35.5563 76.0225 35.9004 76.0225 36.2832V36.5566C76.0225 36.8802 76.0658 37.181 76.1523 37.459C76.2435 37.7324 76.3757 37.9717 76.5488 38.1768C76.722 38.3818 76.9316 38.5436 77.1777 38.6621C77.4238 38.776 77.7041 38.833 78.0186 38.833C78.415 38.833 78.7682 38.7533 79.0781 38.5938C79.388 38.4342 79.6569 38.2087 79.8848 37.917L80.7529 38.7578C80.5934 38.9902 80.3861 39.2135 80.1309 39.4277C79.8757 39.6374 79.5635 39.8083 79.1943 39.9404C78.8298 40.0726 78.4059 40.1387 77.9229 40.1387Z" fill="#585656"/>
<path d="M71.5039 34.0137V40.002H69.8564V32.6055H71.4287L71.5039 34.0137ZM73.7666 32.5576L73.7529 34.0889C73.6527 34.0706 73.5433 34.057 73.4248 34.0479C73.3109 34.0387 73.1969 34.0342 73.083 34.0342C72.8005 34.0342 72.5521 34.0752 72.3379 34.1572C72.1237 34.2347 71.9437 34.3486 71.7979 34.499C71.6566 34.6449 71.5472 34.8226 71.4697 35.0322C71.3923 35.2419 71.3467 35.4766 71.333 35.7363L70.957 35.7637C70.957 35.2988 71.0026 34.8682 71.0938 34.4717C71.1849 34.0752 71.3216 33.7266 71.5039 33.4258C71.6908 33.125 71.9232 32.8903 72.2012 32.7217C72.4837 32.5531 72.8096 32.4688 73.1787 32.4688C73.279 32.4688 73.3861 32.4779 73.5 32.4961C73.6185 32.5143 73.7074 32.5348 73.7666 32.5576Z" fill="#585656"/>
<path d="M68.5781 32.6006V33.8037H64.4082V32.6006H68.5781ZM65.6113 30.7891H67.2588V37.9531C67.2588 38.181 67.2907 38.3564 67.3545 38.4795C67.4229 38.598 67.5163 38.6777 67.6348 38.7188C67.7533 38.7598 67.8923 38.7803 68.0518 38.7803C68.1657 38.7803 68.2751 38.7734 68.3799 38.7598C68.4847 38.7461 68.569 38.7324 68.6328 38.7188L68.6396 39.9766C68.5029 40.0176 68.3434 40.054 68.1611 40.0859C67.9834 40.1178 67.7783 40.1338 67.5459 40.1338C67.1676 40.1338 66.8327 40.0677 66.541 39.9355C66.2493 39.7988 66.0215 39.5778 65.8574 39.2725C65.6934 38.9671 65.6113 38.5615 65.6113 38.0557V30.7891Z" fill="#585656"/>
<path d="M59.9102 34.4141V35.7334H52.9238V34.4141H59.9102Z" fill="#585656"/>
<path d="M47.9473 32.6006V33.8037H43.7773V32.6006H47.9473ZM44.9805 30.7891H46.6279V37.9531C46.6279 38.181 46.6598 38.3564 46.7236 38.4795C46.792 38.598 46.8854 38.6777 47.0039 38.7188C47.1224 38.7598 47.2614 38.7803 47.4209 38.7803C47.5348 38.7803 47.6442 38.7734 47.749 38.7598C47.8538 38.7461 47.9382 38.7324 48.002 38.7188L48.0088 39.9766C47.8721 40.0176 47.7126 40.054 47.5303 40.0859C47.3525 40.1178 47.1475 40.1338 46.915 40.1338C46.5368 40.1338 46.2018 40.0677 45.9102 39.9355C45.6185 39.7988 45.3906 39.5778 45.2266 39.2725C45.0625 38.9671 44.9805 38.5615 44.9805 38.0557V30.7891Z" fill="#585656"/>
<path d="M40.2637 38.8262C40.5326 38.8262 40.7741 38.7738 40.9883 38.6689C41.207 38.5596 41.3825 38.4092 41.5146 38.2178C41.6514 38.0264 41.7266 37.8053 41.7402 37.5547H43.292C43.2829 38.0332 43.1416 38.4684 42.8682 38.8604C42.5947 39.2523 42.2324 39.5645 41.7812 39.7969C41.3301 40.0247 40.8311 40.1387 40.2842 40.1387C39.7191 40.1387 39.2269 40.043 38.8076 39.8516C38.3883 39.6556 38.0397 39.3867 37.7617 39.0449C37.4837 38.7031 37.2741 38.3089 37.1328 37.8623C36.9961 37.4157 36.9277 36.9372 36.9277 36.4268V36.1875C36.9277 35.6771 36.9961 35.1986 37.1328 34.752C37.2741 34.3008 37.4837 33.9043 37.7617 33.5625C38.0397 33.2207 38.3883 32.9541 38.8076 32.7627C39.2269 32.5667 39.7168 32.4688 40.2773 32.4688C40.8698 32.4688 41.3893 32.5872 41.8359 32.8242C42.2826 33.0566 42.6335 33.3825 42.8887 33.8018C43.1484 34.2165 43.2829 34.6995 43.292 35.251H41.7402C41.7266 34.9775 41.6582 34.7314 41.5352 34.5127C41.4167 34.2894 41.248 34.1117 41.0293 33.9795C40.8151 33.8473 40.5576 33.7812 40.2568 33.7812C39.9242 33.7812 39.6484 33.8496 39.4297 33.9863C39.2109 34.1185 39.04 34.3008 38.917 34.5332C38.7939 34.7611 38.7051 35.0186 38.6504 35.3057C38.6003 35.5882 38.5752 35.8822 38.5752 36.1875V36.4268C38.5752 36.7321 38.6003 37.0283 38.6504 37.3154C38.7005 37.6025 38.7871 37.86 38.9102 38.0879C39.0378 38.3112 39.2109 38.4912 39.4297 38.6279C39.6484 38.7601 39.9264 38.8262 40.2637 38.8262Z" fill="#585656"/>
<path d="M33.8652 38.5186V34.9912C33.8652 34.7269 33.8174 34.499 33.7217 34.3076C33.626 34.1162 33.4801 33.9681 33.2842 33.8633C33.0928 33.7585 32.8512 33.7061 32.5596 33.7061C32.2907 33.7061 32.0583 33.7516 31.8623 33.8428C31.6663 33.9339 31.5137 34.057 31.4043 34.2119C31.2949 34.3669 31.2402 34.5423 31.2402 34.7383H29.5996C29.5996 34.4466 29.6702 34.1641 29.8115 33.8906C29.9528 33.6172 30.1579 33.3734 30.4268 33.1592C30.6956 32.945 31.0169 32.7764 31.3906 32.6533C31.7643 32.5303 32.1836 32.4688 32.6484 32.4688C33.2044 32.4688 33.6966 32.5622 34.125 32.749C34.5579 32.9359 34.8975 33.2184 35.1436 33.5967C35.3942 33.9704 35.5195 34.4398 35.5195 35.0049V38.293C35.5195 38.6302 35.5423 38.9333 35.5879 39.2021C35.638 39.4665 35.7087 39.6966 35.7998 39.8926V40.002H34.1113C34.0339 39.8242 33.9723 39.5986 33.9268 39.3252C33.8857 39.0472 33.8652 38.7783 33.8652 38.5186ZM34.1045 35.5039L34.1182 36.5225H32.9355C32.6302 36.5225 32.3613 36.5521 32.1289 36.6113C31.8965 36.666 31.7028 36.748 31.5479 36.8574C31.3929 36.9668 31.2767 37.099 31.1992 37.2539C31.1217 37.4089 31.083 37.5843 31.083 37.7803C31.083 37.9762 31.1286 38.1562 31.2197 38.3203C31.3109 38.4798 31.443 38.6051 31.6162 38.6963C31.7939 38.7874 32.0081 38.833 32.2588 38.833C32.596 38.833 32.89 38.7646 33.1406 38.6279C33.3958 38.4867 33.5964 38.3158 33.7422 38.1152C33.888 37.9102 33.9655 37.7165 33.9746 37.5342L34.5078 38.2656C34.4531 38.4525 34.3597 38.653 34.2275 38.8672C34.0954 39.0814 33.9222 39.2865 33.708 39.4824C33.4984 39.6738 33.2454 39.8311 32.9492 39.9541C32.6576 40.0771 32.3203 40.1387 31.9375 40.1387C31.4544 40.1387 31.0238 40.043 30.6455 39.8516C30.2673 39.6556 29.971 39.3936 29.7568 39.0654C29.5426 38.7327 29.4355 38.3568 29.4355 37.9375C29.4355 37.5456 29.5085 37.1992 29.6543 36.8984C29.8047 36.5931 30.0234 36.3379 30.3105 36.1328C30.6022 35.9277 30.9577 35.7728 31.377 35.668C31.7962 35.5586 32.2747 35.5039 32.8125 35.5039H34.1045Z" fill="#585656"/>
<path d="M28.4238 32.6006V33.8037H24.2539V32.6006H28.4238ZM25.457 30.7891H27.1045V37.9531C27.1045 38.181 27.1364 38.3564 27.2002 38.4795C27.2686 38.598 27.362 38.6777 27.4805 38.7188C27.599 38.7598 27.738 38.7803 27.8975 38.7803C28.0114 38.7803 28.1208 38.7734 28.2256 38.7598C28.3304 38.7461 28.4147 38.7324 28.4785 38.7188L28.4854 39.9766C28.3486 40.0176 28.1891 40.054 28.0068 40.0859C27.8291 40.1178 27.624 40.1338 27.3916 40.1338C27.0133 40.1338 26.6784 40.0677 26.3867 39.9355C26.0951 39.7988 25.8672 39.5778 25.7031 39.2725C25.5391 38.9671 25.457 38.5615 25.457 38.0557V30.7891Z" fill="#585656"/>
<path d="M18.874 34.1846V40.002H17.2266V32.6055H18.7783L18.874 34.1846ZM18.5801 36.0303L18.0469 36.0234C18.0514 35.4993 18.1243 35.0186 18.2656 34.5811C18.4115 34.1436 18.612 33.7676 18.8672 33.4531C19.127 33.1387 19.4368 32.8971 19.7969 32.7285C20.1569 32.5553 20.5579 32.4688 21 32.4688C21.3555 32.4688 21.6768 32.5189 21.9639 32.6191C22.2555 32.7148 22.5039 32.8721 22.709 33.0908C22.9186 33.3096 23.0781 33.5944 23.1875 33.9453C23.2969 34.2917 23.3516 34.7178 23.3516 35.2236V40.002H21.6973V35.2168C21.6973 34.8613 21.6449 34.5811 21.54 34.376C21.4398 34.1663 21.2917 34.0182 21.0957 33.9316C20.9043 33.8405 20.665 33.7949 20.3779 33.7949C20.0954 33.7949 19.8424 33.8542 19.6191 33.9727C19.3958 34.0911 19.2067 34.2529 19.0518 34.458C18.9014 34.6631 18.7852 34.9001 18.7031 35.1689C18.6211 35.4378 18.5801 35.7249 18.5801 36.0303Z" fill="#585656"/>
<path d="M8.98242 36.3857V36.2285C8.98242 35.6953 9.0599 35.2008 9.21484 34.7451C9.36979 34.2848 9.5931 33.8861 9.88477 33.5488C10.181 33.207 10.541 32.9427 10.9648 32.7559C11.3932 32.5645 11.8763 32.4688 12.4141 32.4688C12.9564 32.4688 13.4395 32.5645 13.8633 32.7559C14.2917 32.9427 14.654 33.207 14.9502 33.5488C15.2464 33.8861 15.472 34.2848 15.627 34.7451C15.7819 35.2008 15.8594 35.6953 15.8594 36.2285V36.3857C15.8594 36.9189 15.7819 37.4134 15.627 37.8691C15.472 38.3249 15.2464 38.7236 14.9502 39.0654C14.654 39.4027 14.2939 39.667 13.8701 39.8584C13.4463 40.0452 12.9655 40.1387 12.4277 40.1387C11.8854 40.1387 11.4001 40.0452 10.9717 39.8584C10.5479 39.667 10.1878 39.4027 9.8916 39.0654C9.59538 38.7236 9.36979 38.3249 9.21484 37.8691C9.0599 37.4134 8.98242 36.9189 8.98242 36.3857ZM10.6299 36.2285V36.3857C10.6299 36.7184 10.6641 37.0329 10.7324 37.3291C10.8008 37.6253 10.9079 37.8851 11.0537 38.1084C11.1995 38.3317 11.3864 38.5072 11.6143 38.6348C11.8421 38.7624 12.1133 38.8262 12.4277 38.8262C12.7331 38.8262 12.9974 38.7624 13.2207 38.6348C13.4486 38.5072 13.6354 38.3317 13.7812 38.1084C13.9271 37.8851 14.0342 37.6253 14.1025 37.3291C14.1755 37.0329 14.2119 36.7184 14.2119 36.3857V36.2285C14.2119 35.9004 14.1755 35.5905 14.1025 35.2988C14.0342 35.0026 13.9248 34.7406 13.7744 34.5127C13.6286 34.2848 13.4417 34.1071 13.2139 33.9795C12.9906 33.8473 12.724 33.7812 12.4141 33.7812C12.1042 33.7812 11.8353 33.8473 11.6074 33.9795C11.3841 34.1071 11.1995 34.2848 11.0537 34.5127C10.9079 34.7406 10.8008 35.0026 10.7324 35.2988C10.6641 35.5905 10.6299 35.9004 10.6299 36.2285Z" fill="#585656"/>
<path d="M6.19336 36.7559H7.90234C7.84766 37.4076 7.66536 37.9886 7.35547 38.499C7.04557 39.0049 6.61035 39.4036 6.0498 39.6953C5.48926 39.987 4.80794 40.1328 4.00586 40.1328C3.39062 40.1328 2.83691 40.0234 2.34473 39.8047C1.85254 39.5814 1.43099 39.2669 1.08008 38.8613C0.729167 38.4512 0.460286 37.9567 0.273438 37.3779C0.0911458 36.7992 0 36.152 0 35.4365V34.6094C0 33.8939 0.0934245 33.2467 0.280273 32.668C0.47168 32.0892 0.745117 31.5947 1.10059 31.1846C1.45605 30.7699 1.88216 30.4531 2.37891 30.2344C2.88021 30.0156 3.44303 29.9062 4.06738 29.9062C4.86035 29.9062 5.53027 30.0521 6.07715 30.3438C6.62402 30.6354 7.04785 31.0387 7.34863 31.5537C7.65397 32.0687 7.84082 32.6589 7.90918 33.3242H6.2002C6.15462 32.8958 6.05436 32.529 5.89941 32.2236C5.74902 31.9183 5.52572 31.6859 5.22949 31.5264C4.93327 31.3623 4.5459 31.2803 4.06738 31.2803C3.67546 31.2803 3.33366 31.3532 3.04199 31.499C2.75033 31.6449 2.50651 31.859 2.31055 32.1416C2.11458 32.4242 1.96647 32.7728 1.86621 33.1875C1.77051 33.5977 1.72266 34.0671 1.72266 34.5957V35.4365C1.72266 35.9378 1.76595 36.3936 1.85254 36.8037C1.94368 37.2093 2.0804 37.5579 2.2627 37.8496C2.44954 38.1413 2.68652 38.3669 2.97363 38.5264C3.26074 38.6859 3.60482 38.7656 4.00586 38.7656C4.49349 38.7656 4.8877 38.6882 5.18848 38.5332C5.49382 38.3783 5.72396 38.1527 5.87891 37.8564C6.03841 37.5557 6.14323 37.1888 6.19336 36.7559Z" fill="#585656"/>
</svg>
